{
.appVersion = "1141";
copyright = "Copyright (c) 2018, Cadson Demak (info@cadsondemak.com)";
customParameters = (
{
name = vendorID;
value = CDK;
},
{
name = description;
value = "Copyright (c) 2018, Cadson Demak (info@cadsondemak.com)";
},
{
name = license;

glyphs = (
{
glyphname = A;
lastChange = "2018-07-26 09:13:44 +0000";
layers = (
{
anchors = (
{
name = bottom;
position = "{315, 0}";
},
{
name = ogonek;
position = "{556, 4}";
},
{
name = top;
position = "{320, 700}";
}
);
layerId = "0B1DFD06-3317-40CA-B510-4969A0718C16";
paths = (
{
closed = 1;
nodes = (
"102 0 LINE",
"168 195 LINE",
"462 195 LINE",
"528 0 LINE",
"585 0 LINE",
"352 675 LINE",
"355 680 OFFCURVE",
"358 686 OFFCURVE",
"358 692 CURVE SMOOTH",
"358 703 OFFCURVE",
"347 718 OFFCURVE",
"320 718 CURVE SMOOTH",
"302 718 OFFCURVE",
"290 709 OFFCURVE",
"280 680 CURVE SMOOTH",
"45 0 LINE"
);
},
{
closed = 1;
nodes = (
"316 643 LINE",
"447 241 LINE",
"185 241 LINE"
);
}
);
width = 630;
},
{
anchors = (
{
name = bottom;
position = "{357, 0}";
},
{
name = ogonek;
position = "{619, 4}";
},
{
name = top;
position = "{362, 700}";
}
);
background = {
anchors = (
{
name = bottom;
position = "{357, 0}";
},
{
name = ogonek;
position = "{592, 10}";
},
{
name = top;
position = "{362, 700}";
}
);
paths = (
{
closed = 1;
nodes = (
"394 675 LINE",
"397 680 OFFCURVE",
"400 686 OFFCURVE",
"400 692 CURVE SMOOTH",
"400 703 OFFCURVE",
"389 718 OFFCURVE",
"362 718 CURVE SMOOTH",
"344 718 OFFCURVE",
"332 709 OFFCURVE",
"322 680 CURVE SMOOTH",
"87 0 LINE",
"144 0 LINE",
"210 195 LINE",
"504 195 LINE",
"570 0 LINE",
"627 0 LINE"
);
},
{
closed = 1;
nodes = (
"227 241 LINE",
"358 643 LINE",
"489 241 LINE"
);
}
);
};
layerId = "39D19F74-97F3-4EB6-8D96-77117D45ABB1";
paths = (
{
closed = 1;
nodes = (
"175 0 LINE",
"241 185 LINE",
"473 185 LINE",
"539 0 LINE",
"679 0 LINE",
"436 644 LINE",
"438 650 OFFCURVE",
"440 656 OFFCURVE",
"440 662 CURVE SMOOTH",
"440 696 OFFCURVE",
"410 718 OFFCURVE",
"362 718 CURVE SMOOTH",
"323 718 OFFCURVE",
"298 698 OFFCURVE",
"284 660 CURVE SMOOTH",
"35 0 LINE"
);
},
{
closed = 1;
nodes = (
"358 532 LINE",
"444 291 LINE",
"272 291 LINE"
);
}
);
width = 714;
},
{
anchors = (
{
name = bottom;
position = "{331, 0}";
},
{
name = ogonek;
position = "{581, 4}";
},
{
name = top;
position = "{336, 700}";
}
);
layerId = "62D79BA8-865E-4B23-88DF-F495C1A196AD";
paths = (
{
closed = 1;
nodes = (
"130 0 LINE",
"196 191 LINE",
"465 191 LINE",
"531 0 LINE",
"622 0 LINE",
"385 663 LINE",
"387 668 OFFCURVE",
"390 674 OFFCURVE",
"390 680 CURVE SMOOTH",
"390 700 OFFCURVE",
"371 718 OFFCURVE",
"336 718 CURVE SMOOTH",
"309 718 OFFCURVE",
"292 705 OFFCURVE",
"281 672 CURVE SMOOTH",
"40 0 LINE"
);
},
{
closed = 1;
nodes = (
"332 599 LINE",
"445 261 LINE",
"219 261 LINE"
);
}
);
width = 662;
},
{
anchors = (
{
name = bottom;
position = "{316, 0}";
},
{
name = ogonek;
position = "{578, 4}";
},
{
name = top;
position = "{444, 700}";
}
);
background = {
anchors = (
{
name = bottom;
position = "{357, 0}";
},
{
name = ogonek;
position = "{592, 10}";
},
{
name = top;
position = "{362, 700}";
}
);
paths = (
{
closed = 1;
nodes = (
"394 675 LINE",
"397 680 OFFCURVE",
"400 686 OFFCURVE",
"400 692 CURVE SMOOTH",
"400 703 OFFCURVE",
"389 718 OFFCURVE",
"362 718 CURVE SMOOTH",
"344 718 OFFCURVE",
"332 709 OFFCURVE",
"322 680 CURVE SMOOTH",
"87 0 LINE",
"144 0 LINE",
"210 195 LINE",
"504 195 LINE",
"570 0 LINE",
"627 0 LINE"
);
},
{
closed = 1;
nodes = (
"227 241 LINE",
"358 643 LINE",
"489 241 LINE"
);
}
);
};
layerId = "C1FA819C-E964-464A-9760-8985A4BBBA06";
paths = (
{
closed = 1;
nodes = (
"139 0 LINE",
"238 185 LINE",
"470 185 LINE",
"503 0 LINE",
"638 0 LINE",
"509 644 LINE",
"513 653 OFFCURVE",
"517 660 OFFCURVE",
"517 671 CURVE SMOOTH",
"517 700 OFFCURVE",
"491 718 OFFCURVE",
"448 718 CURVE SMOOTH",
"409 718 OFFCURVE",
"380 698 OFFCURVE",
"359 660 CURVE SMOOTH",
"-6 0 LINE"
);
},
{
closed = 1;
nodes = (
"416 532 LINE",
"459 291 LINE",
"287 291 LINE"
);
}
);
width = 714;
},
{
anchors = (
{
name = bottom;
position = "{290, 0}";
},
{
name = ogonek;
position = "{541, 4}";
},
{
name = top;
position = "{418, 700}";
}
);
layerId = "5A1050C4-4F08-4A6D-BA78-94A136104BF4";
paths = (
{
closed = 1;
nodes = (
"92 0 LINE",
"192 191 LINE",
"461 191 LINE",
"493 0 LINE",
"581 0 LINE",
"461 663 LINE",
"465 670 OFFCURVE",
"469 676 OFFCURVE",
"469 685 CURVE SMOOTH",
"469 703 OFFCURVE",
"453 718 OFFCURVE",
"422 718 CURVE SMOOTH",
"394 718 OFFCURVE",
"374 703 OFFCURVE",
"358 672 CURVE SMOOTH",
"-1 0 LINE"
);
},
{
closed = 1;
nodes = (
"400 599 LINE",
"453 261 LINE",
"227 261 LINE"
);
}
);
width = 662;
},
{
anchors = (
{
name = bottom;
position = "{274, 0}";
},
{
name = ogonek;
position = "{516, 4}";
},
{
name = top;
position = "{402, 700}";
}
);
layerId = "DD5BE8D6-EC3D-4275-AA48-09C9275F1F3A";
paths = (
{
closed = 1;
nodes = (
"64 0 LINE",
"164 195 LINE",
"458 195 LINE",
"490 0 LINE",
"544 0 LINE",
"430 675 LINE",
"434 680 OFFCURVE",
"439 688 OFFCURVE",
"439 695 CURVE SMOOTH",
"439 705 OFFCURVE",
"430 718 OFFCURVE",
"406 718 CURVE SMOOTH",
"388 718 OFFCURVE",
"374 709 OFFCURVE",
"359 680 CURVE SMOOTH",
"4 0 LINE"
);
},
{
closed = 1;
nodes = (
"391 643 LINE",
"451 241 LINE",
"189 241 LINE"
);
}
);
width = 630;
}
);
leftKerningGroup = A;
note = A;
rightKerningGroup = A;
unicode = 0041;
},
{
glyphname = AE;
lastChange = "2018-07-09 13:29:34 +0000";
layers = (
{
anchors = (
{
name = bottom;
position = "{380, 0}";
},
{
name = ogonek;
position = "{640, 10}";
},
{
name = top;
position = "{454, 700}";
},
{
name = topleft;
position = "{725, 700}";
}
);
layerId = "0B1DFD06-3317-40CA-B510-4969A0718C16";
paths = (
{
closed = 1;
nodes = (
"112 0 LINE",
"200 195 LINE",
"392 195 LINE",
"392 0 LINE",
"745 0 LINE",
"745 46 LINE",
"445 46 LINE",
"445 344 LINE",
"652 344 LINE",
"652 390 LINE",
"445 390 LINE",
"445 654 LINE",
"736 654 LINE",
"736 700 LINE",
"369 700 LINE",
"55 0 LINE"
);
},
{
closed = 1;
nodes = (
"392 625 LINE",
"392 241 LINE",
"220 241 LINE"
);
}
);
width = 800;
},
{
anchors = (
{
name = bottom;
position = "{420, 0}";
},
{
name = ogonek;
position = "{640, 10}";
},
{
name = top;
position = "{494, 700}";
},
{
name = topleft;
position = "{725, 700}";
}
);
background = {
paths = (
{
closed = 1;
nodes = (
"55 0 LINE",
"112 0 LINE",
"200 195 LINE",
"392 195 LINE",
"392 0 LINE",
"745 0 LINE",
"745 46 LINE",
"445 46 LINE",
"445 344 LINE",
"652 344 LINE",
"652 390 LINE",
"445 390 LINE",
"445 654 LINE",
"736 654 LINE",
"736 700 LINE",
"369 700 LINE"
);
},
{
closed = 1;
nodes = (
"392 625 LINE",
"392 241 LINE",
"220 241 LINE"
);
}
);
};
layerId = "39D19F74-97F3-4EB6-8D96-77117D45ABB1";
paths = (
{
closed = 1;
nodes = (
"175 0 LINE",
"241 185 LINE",
"370 185 LINE",
"370 0 LINE",
"801 0 LINE",
"801 116 LINE",
"502 116 LINE",
"502 312 LINE",
"708 312 LINE",
"708 422 LINE",
"502 422 LINE",
"502 584 LINE",
"792 584 LINE",
"792 700 LINE",
"298 700 LINE",
"35 0 LINE"
);
},
{
closed = 1;
nodes = (
"370 562 LINE",
"370 291 LINE",
"272 291 LINE"
);
}
);
width = 836;
},
{
anchors = (
{
name = bottom;
position = "{394, 0}";
},
{
name = ogonek;
position = "{638, 10}";
},
{
name = top;
position = "{468, 700}";
},
{
name = topleft;
position = "{723, 700}";
}
);
layerId = "62D79BA8-865E-4B23-88DF-F495C1A196AD";
paths = (
{
closed = 1;
nodes = (
"135 0 LINE",
"214 191 LINE",
"381 191 LINE",
"381 0 LINE",
"765 0 LINE",
"765 74 LINE",
"466 74 LINE",
"466 331 LINE",
"672 331 LINE",
"672 403 LINE",
"466 403 LINE",
"466 626 LINE",
"756 626 LINE",
"756 700 LINE",
"339 700 LINE",
"45 0 LINE"
);
},
{
closed = 1;
nodes = (
"381 610 LINE",
"381 261 LINE",
"239 261 LINE"
);
}
);
width = 810;
},
{
anchors = (
{
name = bottom;
position = "{379, 0}";
},
{
name = ogonek;
position = "{601, 10}";
},
{
name = top;
position = "{576, 700}";
},
{
name = topleft;
position = "{807, 700}";
}
);
background = {
paths = (
{
closed = 1;
nodes = (
"55 0 LINE",
"112 0 LINE",
"200 195 LINE",
"392 195 LINE",
"392 0 LINE",
"745 0 LINE",
"745 46 LINE",
"445 46 LINE",
"445 344 LINE",
"652 344 LINE",
"652 390 LINE",
"445 390 LINE",
"445 654 LINE",
"736 654 LINE",
"736 700 LINE",
"369 700 LINE"
);
},
{
closed = 1;
nodes = (
"392 625 LINE",
"392 241 LINE",
"220 241 LINE"
);
}
);
};
layerId = "C1FA819C-E964-464A-9760-8985A4BBBA06";
paths = (
{
closed = 1;
nodes = (
"138 0 LINE",
"237 185 LINE",
"366 185 LINE",
"333 0 LINE",
"760 0 LINE",
"780 116 LINE",
"481 116 LINE",
"516 312 LINE",
"722 312 LINE",
"741 422 LINE",
"535 422 LINE",
"564 584 LINE",
"854 584 LINE",
"874 700 LINE",
"380 700 LINE",
"-6 0 LINE"
);
},
{
closed = 1;
nodes = (
"432 562 LINE",
"384 291 LINE",
"286 291 LINE"
);
}
);
width = 836;
},
{
anchors = (
{
name = bottom;
position = "{353, 0}";
},
{
name = ogonek;
position = "{599, 10}";
},
{
name = top;
position = "{550, 700}";
},
{
name = topleft;
position = "{805, 700}";
}
);
layerId = "5A1050C4-4F08-4A6D-BA78-94A136104BF4";
paths = (
{
closed = 1;
nodes = (
"97 0 LINE",
"210 191 LINE",
"377 191 LINE",
"343 0 LINE",
"724 0 LINE",
"737 74 LINE",
"438 74 LINE",
"483 331 LINE",
"689 331 LINE",
"702 403 LINE",
"496 403 LINE",
"535 626 LINE",
"825 626 LINE",
"838 700 LINE",
"421 700 LINE",
"4 0 LINE"
);
},
{
closed = 1;
nodes = (
"451 610 LINE",
"389 261 LINE",
"247 261 LINE"
);
}
);
width = 810;
},
{
anchors = (
{
name = bottom;
position = "{339, 0}";
},
{
name = ogonek;
position = "{601, 10}";
},
{
name = top;
position = "{536, 700}";
},
{
name = topleft;
position = "{807, 700}";
}
);
layerId = "DD5BE8D6-EC3D-4275-AA48-09C9275F1F3A";
paths = (
{
closed = 1;
nodes = (
"73 0 LINE",
"195 195 LINE",
"387 195 LINE",
"353 0 LINE",
"704 0 LINE",
"712 46 LINE",
"412 46 LINE",
"465 344 LINE",
"672 344 LINE",
"680 390 LINE",
"473 390 LINE",
"519 654 LINE",
"810 654 LINE",
"818 700 LINE",
"451 700 LINE",
"14 0 LINE"
);
},
{
closed = 1;
nodes = (
"463 625 LINE",
"395 241 LINE",
"223 241 LINE"
);
}
);
width = 800;
}
);
leftKerningGroup = A;
note = AE;
rightKerningGroup = E;
unicode = 00C6;
},
{
glyphname = B;
lastChange = "2018-07-09 13:29:34 +0000";
layers = (
{
anchors = (
{
name = bottom;
position = "{289, 0}";
},
{
name = top;
position = "{289, 700}";
}
);
layerId = "0B1DFD06-3317-40CA-B510-4969A0718C16";
paths = (
{
closed = 1;
nodes = (
"320 0 LINE SMOOTH",
"449 0 OFFCURVE",
"523 74 OFFCURVE",
"523 191 CURVE SMOOTH",
"523 286 OFFCURVE",
"452 348 OFFCURVE",
"366 366 CURVE",
"366 367 LINE",
"434 377 OFFCURVE",
"503 416 OFFCURVE",
"503 524 CURVE SMOOTH",
"503 616 OFFCURVE",
"446 700 OFFCURVE",
"317 700 CURVE SMOOTH",
"118 700 LINE",
"111 709 OFFCURVE",
"100 718 OFFCURVE",
"91 718 CURVE SMOOTH",
"72 718 OFFCURVE",
"55 699 OFFCURVE",
"55 683 CURVE SMOOTH",
"55 661 OFFCURVE",
"81 670 OFFCURVE",
"81 631 CURVE SMOOTH",
"81 0 LINE"
);
},
{
closed = 1;
nodes = (
"134 341 LINE",
"289 341 LINE SMOOTH",
"396 341 OFFCURVE",
"467 288 OFFCURVE",
"467 191 CURVE SMOOTH",
"467 90 OFFCURVE",
"417 45 OFFCURVE",
"317 45 CURVE SMOOTH",
"134 45 LINE"
);
},
{
closed = 1;
nodes = (
"134 655 LINE",
"310 655 LINE SMOOTH",
"410 655 OFFCURVE",
"447 596 OFFCURVE",
"447 524 CURVE SMOOTH",
"447 421 OFFCURVE",
"373 387 OFFCURVE",
"276 387 CURVE SMOOTH",
"134 387 LINE"
);
}
);
width = 578;
},
{
anchors = (
{
name = bottom;
position = "{313, 0}";
},
{
name = top;
position = "{313, 700}";
}
);
background = {
anchors = (
{
name = bottom;
position = "{313, 0}";
},
{
name = top;
position = "{313, 700}";
}
);
paths = (
{
closed = 1;
nodes = (
"344 0 LINE SMOOTH",
"473 0 OFFCURVE",
"547 74 OFFCURVE",
"547 191 CURVE SMOOTH",
"547 286 OFFCURVE",
"476 348 OFFCURVE",
"390 366 CURVE",
"390 367 LINE",
"458 377 OFFCURVE",
"527 416 OFFCURVE",
"527 524 CURVE SMOOTH",
"527 616 OFFCURVE",
"470 700 OFFCURVE",
"341 700 CURVE SMOOTH",
"142 700 LINE",
"135 709 OFFCURVE",
"124 718 OFFCURVE",
"115 718 CURVE SMOOTH",
"96 718 OFFCURVE",
"79 699 OFFCURVE",
"79 683 CURVE SMOOTH",
"79 661 OFFCURVE",
"105 670 OFFCURVE",
"105 631 CURVE SMOOTH",
"105 0 LINE"
);
},
{
closed = 1;
nodes = (
"158 341 LINE",
"313 341 LINE SMOOTH",
"420 341 OFFCURVE",
"491 288 OFFCURVE",
"491 191 CURVE SMOOTH",
"491 90 OFFCURVE",
"441 45 OFFCURVE",
"341 45 CURVE SMOOTH",
"158 45 LINE"
);
},
{
closed = 1;
nodes = (
"158 655 LINE",
"334 655 LINE SMOOTH",
"434 655 OFFCURVE",
"471 596 OFFCURVE",
"471 524 CURVE SMOOTH",
"471 421 OFFCURVE",
"397 387 OFFCURVE",
"300 387 CURVE SMOOTH",
"158 387 LINE"
);
}
);
};
layerId = "39D19F74-97F3-4EB6-8D96-77117D45ABB1";
paths = (
{
closed = 1;
nodes = (
"344 0 LINE SMOOTH",
"493 0 OFFCURVE",
"587 77 OFFCURVE",
"587 213 CURVE SMOOTH",
"587 286 OFFCURVE",
"548 331 OFFCURVE",
"479 363 CURVE",
"479 367 LINE",
"539 398 OFFCURVE",
"567 438 OFFCURVE",
"567 509 CURVE SMOOTH",
"567 628 OFFCURVE",
"477 700 OFFCURVE",
"341 700 CURVE SMOOTH",
"140 700 LINE",
"129 712 OFFCURVE",
"118 718 OFFCURVE",
"102 718 CURVE SMOOTH",
"73 718 OFFCURVE",
"46 682 OFFCURVE",
"37 655 CURVE SMOOTH",
"27 625 OFFCURVE",
"65 635 OFFCURVE",
"65 576 CURVE SMOOTH",
"65 0 LINE"
);
},
{
closed = 1;
nodes = (
"197 311 LINE",
"339 311 LINE SMOOTH",
"413 311 OFFCURVE",
"451 275 OFFCURVE",
"451 213 CURVE SMOOTH",
"451 144 OFFCURVE",
"413 106 OFFCURVE",
"339 106 CURVE SMOOTH",
"197 106 LINE"
);
},
{
closed = 1;
nodes = (
"197 594 LINE",
"334 594 LINE SMOOTH",
"395 594 OFFCURVE",
"431 563 OFFCURVE",
"431 509 CURVE SMOOTH",
"431 451 OFFCURVE",
"395 417 OFFCURVE",
"334 417 CURVE SMOOTH",
"197 417 LINE"
);
}
);
width = 622;
},
{
anchors = (
{
name = bottom;
position = "{296, 0}";
},
{
name = top;
position = "{296, 700}";
}
);
layerId = "62D79BA8-865E-4B23-88DF-F495C1A196AD";
paths = (
{
closed = 1;
nodes = (
"327 0 LINE SMOOTH",
"464 0 OFFCURVE",
"546 75 OFFCURVE",
"546 200 CURVE SMOOTH",
"546 286 OFFCURVE",
"487 341 OFFCURVE",
"408 365 CURVE",
"408 367 LINE",
"473 385 OFFCURVE",
"526 425 OFFCURVE",
"526 518 CURVE SMOOTH",
"526 621 OFFCURVE",
"455 700 OFFCURVE",
"324 700 CURVE SMOOTH",
"124 700 LINE",
"115 710 OFFCURVE",
"104 718 OFFCURVE",
"92 718 CURVE SMOOTH",
"69 718 OFFCURVE",
"48 692 OFFCURVE",
"45 672 CURVE SMOOTH",
"41 647 OFFCURVE",
"72 656 OFFCURVE",
"72 609 CURVE SMOOTH",
"72 0 LINE"
);
},
{
closed = 1;
nodes = (
"156 329 LINE",
"306 329 LINE SMOOTH",
"400 329 OFFCURVE",
"458 283 OFFCURVE",
"458 200 CURVE SMOOTH",
"458 112 OFFCURVE",
"412 69 OFFCURVE",
"323 69 CURVE SMOOTH",
"156 69 LINE"
);
},
{
closed = 1;
nodes = (
"156 631 LINE",
"317 631 LINE SMOOTH",
"401 631 OFFCURVE",
"438 583 OFFCURVE",
"438 518 CURVE SMOOTH",
"438 433 OFFCURVE",
"379 399 OFFCURVE",
"296 399 CURVE SMOOTH",
"156 399 LINE"
);
}
);
width = 591;
},
{
anchors = (
{
name = bottom;
position = "{272, 0}";
},
{
name = top;
position = "{395, 700}";
}
);
background = {
anchors = (
{
name = bottom;
position = "{313, 0}";
},
{
name = top;
position = "{313, 700}";
}
);
paths = (
{
closed = 1;
nodes = (
"344 0 LINE SMOOTH",
"473 0 OFFCURVE",
"547 74 OFFCURVE",
"547 191 CURVE SMOOTH",
"547 286 OFFCURVE",
"476 348 OFFCURVE",
"390 366 CURVE",
"390 367 LINE",
"458 377 OFFCURVE",
"527 416 OFFCURVE",
"527 524 CURVE SMOOTH",
"527 616 OFFCURVE",
"470 700 OFFCURVE",
"341 700 CURVE SMOOTH",
"142 700 LINE",
"135 709 OFFCURVE",
"124 718 OFFCURVE",
"115 718 CURVE SMOOTH",
"96 718 OFFCURVE",
"79 699 OFFCURVE",
"79 683 CURVE SMOOTH",
"79 661 OFFCURVE",
"105 670 OFFCURVE",
"105 631 CURVE SMOOTH",
"105 0 LINE"
);
},
{
closed = 1;
nodes = (
"158 341 LINE",
"313 341 LINE SMOOTH",
"420 341 OFFCURVE",
"491 288 OFFCURVE",
"491 191 CURVE SMOOTH",
"491 90 OFFCURVE",
"441 45 OFFCURVE",
"341 45 CURVE SMOOTH",
"158 45 LINE"
);
},
{
closed = 1;
nodes = (
"158 655 LINE",
"334 655 LINE SMOOTH",
"434 655 OFFCURVE",
"471 596 OFFCURVE",
"471 524 CURVE SMOOTH",
"471 421 OFFCURVE",
"397 387 OFFCURVE",
"300 387 CURVE SMOOTH",
"158 387 LINE"
);
}
);
};
layerId = "C1FA819C-E964-464A-9760-8985A4BBBA06";
paths = (
{
closed = 1;
nodes = (
"301 0 LINE SMOOTH",
"479 0 OFFCURVE",
"584 104 OFFCURVE",
"584 244 CURVE SMOOTH",
"584 298 OFFCURVE",
"554 336 OFFCURVE",
"500 363 CURVE",
"501 367 LINE",
"564 397 OFFCURVE",
"617 449 OFFCURVE",
"617 546 CURVE SMOOTH",
"617 643 OFFCURVE",
"542 700 OFFCURVE",
"421 700 CURVE SMOOTH",
"222 700 LINE",
"213 713 OFFCURVE",
"202 718 OFFCURVE",
"188 718 CURVE SMOOTH",
"159 718 OFFCURVE",
"125 682 OFFCURVE",
"111 654 CURVE SMOOTH",
"96 625 OFFCURVE",
"136 635 OFFCURVE",
"126 576 CURVE SMOOTH",
"24 0 LINE"
);
},
{
closed = 1;
nodes = (
"211 311 LINE",
"351 311 LINE SMOOTH",
"414 311 OFFCURVE",
"448 284 OFFCURVE",
"448 236 CURVE SMOOTH",
"448 158 OFFCURVE",
"395 106 OFFCURVE",
"315 106 CURVE SMOOTH",
"175 106 LINE"
);
},
{
closed = 1;
nodes = (
"261 594 LINE",
"396 594 LINE SMOOTH",
"449 594 OFFCURVE",
"479 570 OFFCURVE",
"479 528 CURVE SMOOTH",
"479 463 OFFCURVE",
"432 417 OFFCURVE",
"365 417 CURVE SMOOTH",
"230 417 LINE"
);
}
);
width = 622;
},
{
anchors = (
{
name = bottom;
position = "{255, 0}";
},
{
name = top;
position = "{378, 700}";
}
);
layerId = "5A1050C4-4F08-4A6D-BA78-94A136104BF4";
paths = (
{
closed = 1;
nodes = (
"286 0 LINE SMOOTH",
"432 0 OFFCURVE",
"543 98 OFFCURVE",
"543 230 CURVE SMOOTH",
"543 298 OFFCURVE",
"497 342 OFFCURVE",
"431 363 CURVE",
"432 365 LINE",
"526 390 OFFCURVE",
"580 460 OFFCURVE",
"580 554 CURVE SMOOTH",
"580 639 OFFCURVE",
"521 700 OFFCURVE",
"406 700 CURVE SMOOTH",
"206 700 LINE",
"199 710 OFFCURVE",
"189 718 OFFCURVE",
"178 718 CURVE SMOOTH",
"155 718 OFFCURVE",
"129 692 OFFCURVE",
"123 673 CURVE SMOOTH",
"114 645 OFFCURVE",
"146 656 OFFCURVE",
"138 609 CURVE SMOOTH",
"31 0 LINE"
);
},
{
closed = 1;
nodes = (
"173 329 LINE",
"323 329 LINE SMOOTH",
"406 329 OFFCURVE",
"455 293 OFFCURVE",
"455 227 CURVE SMOOTH",
"455 131 OFFCURVE",
"392 69 OFFCURVE",
"294 69 CURVE SMOOTH",
"127 69 LINE"
);
},
{
closed = 1;
nodes = (
"226 631 LINE",
"387 631 LINE SMOOTH",
"466 631 OFFCURVE",
"491 595 OFFCURVE",
"491 544 CURVE SMOOTH",
"491 455 OFFCURVE",
"427 399 OFFCURVE",
"325 399 CURVE SMOOTH",
"185 399 LINE"
);
}
);
width = 591;
},
{
anchors = (
{
name = bottom;
position = "{248, 0}";
},
{
name = top;
position = "{371, 700}";
}
);
layerId = "DD5BE8D6-EC3D-4275-AA48-09C9275F1F3A";
paths = (
{
closed = 1;
nodes = (
"288 0 LINE SMOOTH",
"425 0 OFFCURVE",
"518 95 OFFCURVE",
"518 222 CURVE SMOOTH",
"518 299 OFFCURVE",
"463 348 OFFCURVE",
"390 364 CURVE",
"390 365 LINE",
"493 380 OFFCURVE",
"558 457 OFFCURVE",
"558 560 CURVE SMOOTH",
"558 637 OFFCURVE",
"509 700 OFFCURVE",
"397 700 CURVE SMOOTH",
"200 700 LINE",
"195 709 OFFCURVE",
"185 718 OFFCURVE",
"177 718 CURVE SMOOTH",
"157 718 OFFCURVE",
"134 696 OFFCURVE",
"134 679 CURVE SMOOTH",
"134 662 OFFCURVE",
"157 667 OFFCURVE",
"151 631 CURVE SMOOTH",
"40 0 LINE"
);
},
{
closed = 1;
nodes = (
"153 341 LINE",
"308 341 LINE SMOOTH",
"403 341 OFFCURVE",
"463 299 OFFCURVE",
"463 222 CURVE SMOOTH",
"463 107 OFFCURVE",
"394 45 OFFCURVE",
"284 45 CURVE SMOOTH",
"101 45 LINE"
);
},
{
closed = 1;
nodes = (
"208 655 LINE",
"384 655 LINE SMOOTH",
"478 655 OFFCURVE",
"501 612 OFFCURVE",
"501 556 CURVE SMOOTH",
"501 449 OFFCURVE",
"428 387 OFFCURVE",
"303 387 CURVE SMOOTH",
"161 387 LINE"
);
}
);
width = 578;
}
);
leftKerningGroup = B;
note = B;
rightKerningGroup = B;
unicode = 0042;
},
{
glyphname = C;
lastChange = "2018-07-09 13:29:34 +0000";
layers = (
{
anchors = (
{
name = bottom;
position = "{351, 0}";
},
{
name = top;
position = "{341, 700}";
}
);
layerId = "0B1DFD06-3317-40CA-B510-4969A0718C16";
paths = (
{
closed = 1;
nodes = (
"428 -10 OFFCURVE",
"497 15 OFFCURVE",
"550 65 CURVE",
"512 100 LINE",
"475 58 OFFCURVE",
"416 39 OFFCURVE",
"360 39 CURVE SMOOTH",
"204 39 OFFCURVE",
"111 179 OFFCURVE",
"111 351 CURVE SMOOTH",
"111 518 OFFCURVE",
"199 661 OFFCURVE",
"350 661 CURVE SMOOTH",
"416 661 OFFCURVE",
"468 637 OFFCURVE",
"506 597 CURVE",
"532 643 LINE",
"484 687 OFFCURVE",
"418 710 OFFCURVE",
"350 710 CURVE SMOOTH",
"170 710 OFFCURVE",
"55 561 OFFCURVE",
"55 351 CURVE SMOOTH",
"55 141 OFFCURVE",
"172 -10 OFFCURVE",
"358 -10 CURVE SMOOTH"
);
}
);
width = 605;
},
{
anchors = (
{
name = bottom;
position = "{361, 0}";
},
{
name = top;
position = "{351, 700}";
}
);
background = {
anchors = (
{
name = bottom;
position = "{371, 0}";
},
{
name = top;
position = "{361, 700}";
}
);
paths = (
{
closed = 1;
nodes = (
"532 100 LINE",
"495 58 OFFCURVE",
"436 39 OFFCURVE",
"380 39 CURVE SMOOTH",
"224 39 OFFCURVE",
"131 179 OFFCURVE",
"131 351 CURVE SMOOTH",
"131 518 OFFCURVE",
"219 661 OFFCURVE",
"370 661 CURVE SMOOTH",
"436 661 OFFCURVE",
"488 637 OFFCURVE",
"526 597 CURVE",
"552 643 LINE",
"504 687 OFFCURVE",
"438 710 OFFCURVE",
"370 710 CURVE SMOOTH",
"190 710 OFFCURVE",
"75 561 OFFCURVE",
"75 351 CURVE SMOOTH",
"75 141 OFFCURVE",
"192 -10 OFFCURVE",
"378 -10 CURVE SMOOTH",
"448 -10 OFFCURVE",
"517 15 OFFCURVE",
"570 65 CURVE"
);
}
);
};
layerId = "39D19F74-97F3-4EB6-8D96-77117D45ABB1";
paths = (
{
closed = 1;
nodes = (
"472 -10 OFFCURVE",
"566 31 OFFCURVE",
"619 97 CURVE",
"541 171 LINE",
"497 121 OFFCURVE",
"448 99 OFFCURVE",
"378 99 CURVE SMOOTH",
"245 99 OFFCURVE",
"171 193 OFFCURVE",
"171 351 CURVE SMOOTH",
"171 508 OFFCURVE",
"241 601 OFFCURVE",
"368 601 CURVE SMOOTH",
"456 601 OFFCURVE",
"501 573 OFFCURVE",
"545 526 CURVE",
"597 616 LINE",
"549 674 OFFCURVE",
"465 710 OFFCURVE",
"368 710 CURVE SMOOTH",
"156 710 OFFCURVE",
"35 577 OFFCURVE",
"35 351 CURVE SMOOTH",
"35 124 OFFCURVE",
"159 -10 OFFCURVE",
"376 -10 CURVE SMOOTH"
);
}
);
width = 654;
},
{
anchors = (
{
name = bottom;
position = "{353, 0}";
},
{
name = top;
position = "{343, 700}";
}
);
layerId = "62D79BA8-865E-4B23-88DF-F495C1A196AD";
paths = (
{
closed = 1;
nodes = (
"444 -10 OFFCURVE",
"523 21 OFFCURVE",
"576 78 CURVE",
"522 128 LINE",
"482 83 OFFCURVE",
"427 63 OFFCURVE",
"365 63 CURVE SMOOTH",
"218 63 OFFCURVE",
"133 173 OFFCURVE",
"133 351 CURVE SMOOTH",
"133 526 OFFCURVE",
"214 637 OFFCURVE",
"355 637 CURVE SMOOTH",
"430 637 OFFCURVE",
"479 611 OFFCURVE",
"520 569 CURVE",
"556 632 LINE",
"508 682 OFFCURVE",
"435 710 OFFCURVE",
"355 710 CURVE SMOOTH",
"162 710 OFFCURVE",
"45 567 OFFCURVE",
"45 351 CURVE SMOOTH",
"45 134 OFFCURVE",
"165 -10 OFFCURVE",
"363 -10 CURVE SMOOTH"
);
}
);
width = 621;
},
{
anchors = (
{
name = bottom;
position = "{320, 0}";
},
{
name = top;
position = "{433, 700}";
}
);
background = {
anchors = (
{
name = bottom;
position = "{371, 0}";
},
{
name = top;
position = "{361, 700}";
}
);
paths = (
{
closed = 1;
nodes = (
"532 100 LINE",
"495 58 OFFCURVE",
"436 39 OFFCURVE",
"380 39 CURVE SMOOTH",
"224 39 OFFCURVE",
"131 179 OFFCURVE",
"131 351 CURVE SMOOTH",
"131 518 OFFCURVE",
"219 661 OFFCURVE",
"370 661 CURVE SMOOTH",
"436 661 OFFCURVE",
"488 637 OFFCURVE",
"526 597 CURVE",
"552 643 LINE",
"504 687 OFFCURVE",
"438 710 OFFCURVE",
"370 710 CURVE SMOOTH",
"190 710 OFFCURVE",
"75 561 OFFCURVE",
"75 351 CURVE SMOOTH",
"75 141 OFFCURVE",
"192 -10 OFFCURVE",
"378 -10 CURVE SMOOTH",
"448 -10 OFFCURVE",
"517 15 OFFCURVE",
"570 65 CURVE"
);
}
);
};
layerId = "C1FA819C-E964-464A-9760-8985A4BBBA06";
paths = (
{
closed = 1;
nodes = (
"429 -10 OFFCURVE",
"530 31 OFFCURVE",
"595 97 CURVE",
"530 171 LINE",
"477 121 OFFCURVE",
"424 99 OFFCURVE",
"354 99 CURVE SMOOTH",
"243 99 OFFCURVE",
"189 165 OFFCURVE",
"189 278 CURVE SMOOTH",
"189 471 OFFCURVE",
"290 601 OFFCURVE",
"433 601 CURVE SMOOTH",
"520 601 OFFCURVE",
"561 573 OFFCURVE",
"596 526 CURVE",
"664 616 LINE",
"627 674 OFFCURVE",
"548 710 OFFCURVE",
"452 710 CURVE SMOOTH",
"201 710 OFFCURVE",
"51 539 OFFCURVE",
"51 264 CURVE SMOOTH",
"51 102 OFFCURVE",
"148 -10 OFFCURVE",
"333 -10 CURVE SMOOTH"
);
}
);
width = 654;
},
{
anchors = (
{
name = bottom;
position = "{312, 0}";
},
{
name = top;
position = "{426, 700}";
}
);
layerId = "5A1050C4-4F08-4A6D-BA78-94A136104BF4";
paths = (
{
closed = 1;
nodes = (
"402 -10 OFFCURVE",
"485 21 OFFCURVE",
"548 78 CURVE",
"503 128 LINE",
"455 83 OFFCURVE",
"397 63 OFFCURVE",
"336 63 CURVE SMOOTH",
"213 63 OFFCURVE",
"148 140 OFFCURVE",
"148 269 CURVE SMOOTH",
"148 486 OFFCURVE",
"268 637 OFFCURVE",
"427 637 CURVE SMOOTH",
"502 637 OFFCURVE",
"546 611 OFFCURVE",
"580 569 CURVE",
"627 632 LINE",
"588 682 OFFCURVE",
"519 710 OFFCURVE",
"440 710 CURVE SMOOTH",
"209 710 OFFCURVE",
"59 515 OFFCURVE",
"59 261 CURVE SMOOTH",
"59 95 OFFCURVE",
"164 -10 OFFCURVE",
"321 -10 CURVE SMOOTH"
);
}
);
width = 621;
},
{
anchors = (
{
name = bottom;
position = "{310, 0}";
},
{
name = top;
position = "{424, 700}";
}
);
layerId = "DD5BE8D6-EC3D-4275-AA48-09C9275F1F3A";
paths = (
{
closed = 1;
nodes = (
"385 -10 OFFCURVE",
"459 15 OFFCURVE",
"521 65 CURVE",
"489 100 LINE",
"447 60 OFFCURVE",
"385 39 OFFCURVE",
"326 39 CURVE SMOOTH",
"187 39 OFFCURVE",
"125 130 OFFCURVE",
"125 274 CURVE SMOOTH",
"125 487 OFFCURVE",
"265 661 OFFCURVE",
"426 661 CURVE SMOOTH",
"491 661 OFFCURVE",
"540 637 OFFCURVE",
"571 597 CURVE",
"605 643 LINE",
"564 687 OFFCURVE",
"503 710 OFFCURVE",
"434 710 CURVE SMOOTH",
"228 710 OFFCURVE",
"68 509 OFFCURVE",
"68 262 CURVE SMOOTH",
"68 105 OFFCURVE",
"157 -10 OFFCURVE",
"316 -10 CURVE SMOOTH"
);
}
);
width = 605;
}
);
leftKerningGroup = C;
note = C;
rightKerningGroup = C;
unicode = 0043;
},
{
glyphname = D;
lastChange = "2018-07-09 13:29:34 +0000";
layers = (
{
anchors = (
{
name = bottom;
position = "{309, 0}";
},
{
name = center;
position = "{309, 350}";
},
{
name = top;
position = "{309, 700}";
}
);
layerId = "0B1DFD06-3317-40CA-B510-4969A0718C16";
paths = (
{
closed = 1;
nodes = (
"258 0 LINE SMOOTH",
"454 0 OFFCURVE",
"563 118 OFFCURVE",
"563 352 CURVE SMOOTH",
"563 582 OFFCURVE",
"442 700 OFFCURVE",
"253 700 CURVE SMOOTH",
"116 700 LINE",
"108 709 OFFCURVE",
"97 718 OFFCURVE",
"91 718 CURVE SMOOTH",
"71 718 OFFCURVE",
"58 696 OFFCURVE",
"55 687 CURVE SMOOTH",
"51 669 OFFCURVE",
"80 666 OFFCURVE",
"80 631 CURVE SMOOTH",
"80 0 LINE"
);
},
{
closed = 1;
nodes = (
"134 654 LINE",
"250 654 LINE SMOOTH",
"409 654 OFFCURVE",
"507 557 OFFCURVE",
"507 352 CURVE SMOOTH",
"507 159 OFFCURVE",
"433 46 OFFCURVE",
"258 46 CURVE SMOOTH",
"134 46 LINE"
);
}
);
width = 618;
},
{
anchors = (
{
name = bottom;
position = "{314, 0}";
},
{
name = center;
position = "{314, 350}";
},
{
name = top;
position = "{314, 700}";
}
);
background = {
anchors = (
{
name = bottom;
position = "{334, 0}";
},
{
name = center;
position = "{334, 350}";
},
{
name = top;
position = "{334, 700}";
}
);
paths = (
{
closed = 1;
nodes = (
"105 0 LINE",
"283 0 LINE SMOOTH",
"479 0 OFFCURVE",
"588 118 OFFCURVE",
"588 352 CURVE SMOOTH",
"588 582 OFFCURVE",
"467 700 OFFCURVE",
"278 700 CURVE SMOOTH",
"141 700 LINE",
"133 709 OFFCURVE",
"122 718 OFFCURVE",
"116 718 CURVE SMOOTH",
"96 718 OFFCURVE",
"83 696 OFFCURVE",
"80 687 CURVE SMOOTH",
"76 669 OFFCURVE",
"105 666 OFFCURVE",
"105 631 CURVE SMOOTH"
);
},
{
closed = 1;
nodes = (
"159 46 LINE",
"159 654 LINE",
"275 654 LINE SMOOTH",
"434 654 OFFCURVE",
"532 557 OFFCURVE",
"532 352 CURVE SMOOTH",
"532 159 OFFCURVE",
"458 46 OFFCURVE",
"283 46 CURVE SMOOTH"
);
}
);
};
layerId = "39D19F74-97F3-4EB6-8D96-77117D45ABB1";
paths = (
{
closed = 1;
nodes = (
"283 0 LINE SMOOTH",
"506 0 OFFCURVE",
"628 135 OFFCURVE",
"628 352 CURVE SMOOTH",
"628 560 OFFCURVE",
"498 700 OFFCURVE",
"278 700 CURVE SMOOTH",
"140 700 LINE",
"129 712 OFFCURVE",
"118 718 OFFCURVE",
"102 718 CURVE SMOOTH",
"73 718 OFFCURVE",
"46 682 OFFCURVE",
"37 655 CURVE SMOOTH",
"27 625 OFFCURVE",
"65 635 OFFCURVE",
"65 576 CURVE SMOOTH",
"65 0 LINE"
);
},
{
closed = 1;
nodes = (
"199 584 LINE",
"275 584 LINE SMOOTH",
"418 584 OFFCURVE",
"492 502 OFFCURVE",
"492 352 CURVE SMOOTH",
"492 194 OFFCURVE",
"424 116 OFFCURVE",
"283 116 CURVE SMOOTH",
"199 116 LINE"
);
}
);
width = 663;
},
{
anchors = (
{
name = bottom;
position = "{309, 0}";
},
{
name = center;
position = "{309, 350}";
},
{
name = top;
position = "{309, 700}";
}
);
layerId = "62D79BA8-865E-4B23-88DF-F495C1A196AD";
paths = (
{
closed = 1;
nodes = (
"266 0 LINE SMOOTH",
"473 0 OFFCURVE",
"587 125 OFFCURVE",
"587 352 CURVE SMOOTH",
"587 573 OFFCURVE",
"462 700 OFFCURVE",
"261 700 CURVE SMOOTH",
"124 700 LINE",
"114 710 OFFCURVE",
"103 718 OFFCURVE",
"93 718 CURVE SMOOTH",
"70 718 OFFCURVE",
"51 690 OFFCURVE",
"46 674 CURVE SMOOTH",
"39 651 OFFCURVE",
"72 654 OFFCURVE",
"72 609 CURVE SMOOTH",
"72 0 LINE"
);
},
{
closed = 1;
nodes = (
"158 626 LINE",
"258 626 LINE SMOOTH",
"411 626 OFFCURVE",
"499 535 OFFCURVE",
"499 352 CURVE SMOOTH",
"499 173 OFFCURVE",
"427 74 OFFCURVE",
"266 74 CURVE SMOOTH",
"158 74 LINE"
);
}
);
width = 632;
},
{
anchors = (
{
name = bottom;
position = "{273, 0}";
},
{
name = center;
position = "{335, 350}";
},
{
name = top;
position = "{396, 700}";
}
);
background = {
anchors = (
{
name = bottom;
position = "{334, 0}";
},
{
name = center;
position = "{334, 350}";
},
{
name = top;
position = "{334, 700}";
}
);
paths = (
{
closed = 1;
nodes = (
"105 0 LINE",
"283 0 LINE SMOOTH",
"479 0 OFFCURVE",
"588 118 OFFCURVE",
"588 352 CURVE SMOOTH",
"588 582 OFFCURVE",
"467 700 OFFCURVE",
"278 700 CURVE SMOOTH",
"141 700 LINE",
"133 709 OFFCURVE",
"122 718 OFFCURVE",
"116 718 CURVE SMOOTH",
"96 718 OFFCURVE",
"83 696 OFFCURVE",
"80 687 CURVE SMOOTH",
"76 669 OFFCURVE",
"105 666 OFFCURVE",
"105 631 CURVE SMOOTH"
);
},
{
closed = 1;
nodes = (
"159 46 LINE",
"159 654 LINE",
"275 654 LINE SMOOTH",
"434 654 OFFCURVE",
"532 557 OFFCURVE",
"532 352 CURVE SMOOTH",
"532 159 OFFCURVE",
"458 46 OFFCURVE",
"283 46 CURVE SMOOTH"
);
}
);
};
layerId = "C1FA819C-E964-464A-9760-8985A4BBBA06";
paths = (
{
closed = 1;
nodes = (
"252 0 LINE SMOOTH",
"494 0 OFFCURVE",
"653 169 OFFCURVE",
"653 430 CURVE SMOOTH",
"653 594 OFFCURVE",
"539 700 OFFCURVE",
"360 700 CURVE SMOOTH",
"222 700 LINE",
"213 713 OFFCURVE",
"202 718 OFFCURVE",
"188 718 CURVE SMOOTH",
"159 718 OFFCURVE",
"125 682 OFFCURVE",
"111 654 CURVE SMOOTH",
"96 625 OFFCURVE",
"136 635 OFFCURVE",
"126 576 CURVE SMOOTH",
"24 0 LINE"
);
},
{
closed = 1;
nodes = (
"261 584 LINE",
"337 584 LINE SMOOTH",
"475 584 OFFCURVE",
"516 525 OFFCURVE",
"516 416 CURVE SMOOTH",
"516 234 OFFCURVE",
"419 116 OFFCURVE",
"262 116 CURVE SMOOTH",
"178 116 LINE"
);
}
);
width = 663;
},
{
anchors = (
{
name = bottom;
position = "{267, 0}";
},
{
name = center;
position = "{329, 350}";
},
{
name = top;
position = "{390, 700}";
}
);
layerId = "5A1050C4-4F08-4A6D-BA78-94A136104BF4";
paths = (
{
closed = 1;
nodes = (
"230 0 LINE SMOOTH",
"468 0 OFFCURVE",
"613 180 OFFCURVE",
"613 440 CURVE SMOOTH",
"613 606 OFFCURVE",
"506 700 OFFCURVE",
"342 700 CURVE SMOOTH",
"205 700 LINE",
"197 710 OFFCURVE",
"187 718 OFFCURVE",
"178 718 CURVE SMOOTH",
"154 718 OFFCURVE",
"131 690 OFFCURVE",
"123 674 CURVE SMOOTH",
"112 651 OFFCURVE",
"145 654 OFFCURVE",
"137 609 CURVE SMOOTH",
"30 0 LINE"
);
},
{
closed = 1;
nodes = (
"226 626 LINE",
"332 626 LINE SMOOTH",
"470 626 OFFCURVE",
"525 561 OFFCURVE",
"525 432 CURVE SMOOTH",
"525 216 OFFCURVE",
"411 74 OFFCURVE",
"237 74 CURVE SMOOTH",
"129 74 LINE"
);
}
);
width = 632;
},
{
anchors = (
{
name = bottom;
position = "{268, 0}";
},
{
name = center;
position = "{330, 350}";
},
{
name = top;
position = "{391, 700}";
}
);
layerId = "DD5BE8D6-EC3D-4275-AA48-09C9275F1F3A";
paths = (
{
closed = 1;
nodes = (
"217 0 LINE SMOOTH",
"445 0 OFFCURVE",
"593 181 OFFCURVE",
"593 447 CURVE SMOOTH",
"593 609 OFFCURVE",
"496 700 OFFCURVE",
"335 700 CURVE SMOOTH",
"198 700 LINE",
"192 709 OFFCURVE",
"182 718 OFFCURVE",
"177 718 CURVE SMOOTH",
"156 718 OFFCURVE",
"140 696 OFFCURVE",
"135 686 CURVE SMOOTH",
"128 670 OFFCURVE",
"156 666 OFFCURVE",
"150 631 CURVE SMOOTH",
"39 0 LINE"
);
},
{
closed = 1;
nodes = (
"208 654 LINE",
"324 654 LINE SMOOTH",
"471 654 OFFCURVE",
"537 585 OFFCURVE",
"537 441 CURVE SMOOTH",
"537 205 OFFCURVE",
"412 46 OFFCURVE",
"225 46 CURVE SMOOTH",
"101 46 LINE"
);
}
);
width = 618;
}
);
note = D;
rightKerningGroup = D;
unicode = 0044;
},
{
glyphname = Eth;
lastChange = "2018-07-09 13:29:34 +0000";
layers = (
{
anchors = (
{
name = bottom;
position = "{334, 0}";
},
{
name = center;
position = "{334, 350}";
},
{
name = top;
position = "{334, 700}";
}
);
layerId = "0B1DFD06-3317-40CA-B510-4969A0718C16";
paths = (
{
closed = 1;
nodes = (
"309 0 LINE SMOOTH",
"505 0 OFFCURVE",
"614 118 OFFCURVE",
"614 352 CURVE SMOOTH",
"614 582 OFFCURVE",
"493 700 OFFCURVE",
"304 700 CURVE SMOOTH",
"167 700 LINE",
"159 709 OFFCURVE",
"148 718 OFFCURVE",
"142 718 CURVE SMOOTH",
"122 718 OFFCURVE",
"109 696 OFFCURVE",
"106 687 CURVE SMOOTH",
"102 669 OFFCURVE",
"131 666 OFFCURVE",
"131 631 CURVE SMOOTH",
"131 0 LINE"
);
},
{
closed = 1;
nodes = (
"351 326 LINE",
"351 372 LINE",
"55 372 LINE",
"55 326 LINE"
);
},
{
closed = 1;
nodes = (
"185 654 LINE",
"301 654 LINE SMOOTH",
"460 654 OFFCURVE",
"558 557 OFFCURVE",
"558 352 CURVE SMOOTH",
"558 159 OFFCURVE",
"484 46 OFFCURVE",
"309 46 CURVE SMOOTH",
"185 46 LINE"
);
}
);
width = 669;
},
{
anchors = (
{
name = bottom;
position = "{334, 0}";
},
{
name = center;
position = "{334, 350}";
},
{
name = top;
position = "{334, 700}";
}
);
layerId = "39D19F74-97F3-4EB6-8D96-77117D45ABB1";
paths = (
{
closed = 1;
nodes = (
"303 0 LINE SMOOTH",
"526 0 OFFCURVE",
"648 135 OFFCURVE",
"648 352 CURVE SMOOTH",
"648 560 OFFCURVE",
"518 700 OFFCURVE",
"298 700 CURVE SMOOTH",
"160 700 LINE",
"149 712 OFFCURVE",
"138 718 OFFCURVE",
"122 718 CURVE SMOOTH",
"93 718 OFFCURVE",
"66 682 OFFCURVE",
"57 655 CURVE SMOOTH",
"47 625 OFFCURVE",
"85 635 OFFCURVE",
"85 576 CURVE SMOOTH",
"85 0 LINE"
);
},
{
closed = 1;
nodes = (
"371 301 LINE",
"371 397 LINE",
"35 397 LINE",
"35 301 LINE"
);
},
{
closed = 1;
nodes = (
"219 584 LINE",
"295 584 LINE SMOOTH",
"438 584 OFFCURVE",
"512 502 OFFCURVE",
"512 352 CURVE SMOOTH",
"512 194 OFFCURVE",
"444 116 OFFCURVE",
"303 116 CURVE SMOOTH",
"219 116 LINE"
);
}
);
width = 683;
},
{
anchors = (
{
name = bottom;
position = "{332, 0}";
},
{
name = center;
position = "{332, 350}";
},
{
name = top;
position = "{332, 700}";
}
);
layerId = "62D79BA8-865E-4B23-88DF-F495C1A196AD";
paths = (
{
closed = 1;
nodes = (
"305 0 LINE SMOOTH",
"511 0 OFFCURVE",
"626 125 OFFCURVE",
"626 352 CURVE SMOOTH",
"626 573 OFFCURVE",
"501 700 OFFCURVE",
"300 700 CURVE SMOOTH",
"162 700 LINE",
"153 710 OFFCURVE",
"142 718 OFFCURVE",
"132 718 CURVE SMOOTH",
"108 718 OFFCURVE",
"90 690 OFFCURVE",
"84 674 CURVE SMOOTH",
"78 651 OFFCURVE",
"111 654 OFFCURVE",
"111 609 CURVE SMOOTH",
"111 0 LINE"
);
},
{
closed = 1;
nodes = (
"357 316 LINE",
"357 382 LINE",
"45 382 LINE",
"45 316 LINE"
);
},
{
closed = 1;
nodes = (
"197 626 LINE",
"297 626 LINE SMOOTH",
"449 626 OFFCURVE",
"538 535 OFFCURVE",
"538 352 CURVE SMOOTH",
"538 173 OFFCURVE",
"466 74 OFFCURVE",
"305 74 CURVE SMOOTH",
"197 74 LINE"
);
}
);
width = 671;
},
{
anchors = (
{
name = bottom;
position = "{293, 0}";
},
{
name = center;
position = "{355, 350}";
},
{
name = top;
position = "{416, 700}";
}
);
layerId = "C1FA819C-E964-464A-9760-8985A4BBBA06";
paths = (
{
closed = 1;
nodes = (
"272 0 LINE SMOOTH",
"514 0 OFFCURVE",
"673 169 OFFCURVE",
"673 430 CURVE SMOOTH",
"673 594 OFFCURVE",
"559 700 OFFCURVE",
"380 700 CURVE SMOOTH",
"242 700 LINE",
"233 713 OFFCURVE",
"222 718 OFFCURVE",
"208 718 CURVE SMOOTH",
"179 718 OFFCURVE",
"145 682 OFFCURVE",
"131 654 CURVE SMOOTH",
"116 625 OFFCURVE",
"156 635 OFFCURVE",
"146 576 CURVE SMOOTH",
"44 0 LINE"
);
},
{
closed = 1;
nodes = (
"383 301 LINE",
"400 397 LINE",
"64 397 LINE",
"47 301 LINE"
);
},
{
closed = 1;
nodes = (
"281 584 LINE",
"357 584 LINE SMOOTH",
"495 584 OFFCURVE",
"536 525 OFFCURVE",
"536 416 CURVE SMOOTH",
"536 234 OFFCURVE",
"439 116 OFFCURVE",
"282 116 CURVE SMOOTH",
"198 116 LINE"
);
}
);
width = 683;
},
{
anchors = (
{
name = bottom;
position = "{291, 0}";
},
{
name = center;
position = "{353, 350}";
},
{
name = top;
position = "{415, 700}";
}
);
layerId = "5A1050C4-4F08-4A6D-BA78-94A136104BF4";
paths = (
{
closed = 1;
nodes = (
"269 0 LINE SMOOTH",
"507 0 OFFCURVE",
"652 180 OFFCURVE",
"652 440 CURVE SMOOTH",
"652 606 OFFCURVE",
"545 700 OFFCURVE",
"381 700 CURVE SMOOTH",
"244 700 LINE",
"236 710 OFFCURVE",
"226 718 OFFCURVE",
"217 718 CURVE SMOOTH",
"193 718 OFFCURVE",
"170 690 OFFCURVE",
"162 674 CURVE SMOOTH",
"151 651 OFFCURVE",
"184 654 OFFCURVE",
"176 609 CURVE SMOOTH",
"69 0 LINE"
);
},
{
closed = 1;
nodes = (
"372 316 LINE",
"384 382 LINE",
"71 382 LINE",
"59 316 LINE"
);
},
{
closed = 1;
nodes = (
"265 626 LINE",
"371 626 LINE SMOOTH",
"509 626 OFFCURVE",
"564 561 OFFCURVE",
"564 432 CURVE SMOOTH",
"564 216 OFFCURVE",
"450 74 OFFCURVE",
"276 74 CURVE SMOOTH",
"168 74 LINE"
);
}
);
width = 671;
},
{
anchors = (
{
name = bottom;
position = "{293, 0}";
},
{
name = center;
position = "{354, 350}";
},
{
name = top;
position = "{416, 700}";
}
);
layerId = "DD5BE8D6-EC3D-4275-AA48-09C9275F1F3A";
paths = (
{
closed = 1;
nodes = (
"268 0 LINE SMOOTH",
"496 0 OFFCURVE",
"641 181 OFFCURVE",
"641 447 CURVE SMOOTH",
"641 609 OFFCURVE",
"547 700 OFFCURVE",
"386 700 CURVE SMOOTH",
"249 700 LINE",
"243 709 OFFCURVE",
"233 718 OFFCURVE",
"228 718 CURVE SMOOTH",
"207 718 OFFCURVE",
"191 696 OFFCURVE",
"186 686 CURVE SMOOTH",
"178 670 OFFCURVE",
"207 666 OFFCURVE",
"201 631 CURVE SMOOTH",
"90 0 LINE"
);
},
{
closed = 1;
nodes = (
"367 326 LINE",
"375 372 LINE",
"79 372 LINE",
"71 326 LINE"
);
},
{
closed = 1;
nodes = (
"259 654 LINE",
"375 654 LINE SMOOTH",
"522 654 OFFCURVE",
"585 585 OFFCURVE",
"585 441 CURVE SMOOTH",
"585 205 OFFCURVE",
"463 46 OFFCURVE",
"276 46 CURVE SMOOTH",
"152 46 LINE"
);
}
);
width = 669;
}
);
note = Eth;
rightKerningGroup = D;
unicode = 00D0;
},
{
glyphname = Dcroat;
lastChange = "2018-07-09 13:29:34 +0000";
layers = (
{
layerId = "0B1DFD06-3317-40CA-B510-4969A0718C16";
paths = (
{
closed = 1;
nodes = (
"309 0 LINE SMOOTH",
"505 0 OFFCURVE",
"614 118 OFFCURVE",
"614 352 CURVE SMOOTH",
"614 582 OFFCURVE",
"493 700 OFFCURVE",
"304 700 CURVE SMOOTH",
"167 700 LINE",
"159 709 OFFCURVE",
"148 718 OFFCURVE",
"142 718 CURVE SMOOTH",
"122 718 OFFCURVE",
"109 696 OFFCURVE",
"106 687 CURVE SMOOTH",
"102 669 OFFCURVE",
"131 666 OFFCURVE",
"131 631 CURVE SMOOTH",
"131 0 LINE"
);
},
{
closed = 1;
nodes = (
"351 326 LINE",
"351 372 LINE",
"55 372 LINE",
"55 326 LINE"
);
},
{
closed = 1;
nodes = (
"185 654 LINE",
"301 654 LINE SMOOTH",
"460 654 OFFCURVE",
"558 557 OFFCURVE",
"558 352 CURVE SMOOTH",
"558 159 OFFCURVE",
"484 46 OFFCURVE",
"309 46 CURVE SMOOTH",
"185 46 LINE"
);
}
);
width = 669;
},
{
layerId = "39D19F74-97F3-4EB6-8D96-77117D45ABB1";
paths = (
{
closed = 1;
nodes = (
"303 0 LINE SMOOTH",
"526 0 OFFCURVE",
"648 135 OFFCURVE",
"648 352 CURVE SMOOTH",
"648 560 OFFCURVE",
"518 700 OFFCURVE",
"298 700 CURVE SMOOTH",
"160 700 LINE",
"149 712 OFFCURVE",
"138 718 OFFCURVE",
"122 718 CURVE SMOOTH",
"93 718 OFFCURVE",
"66 682 OFFCURVE",
"57 655 CURVE SMOOTH",
"47 625 OFFCURVE",
"85 635 OFFCURVE",
"85 576 CURVE SMOOTH",
"85 0 LINE"
);
},
{
closed = 1;
nodes = (
"371 301 LINE",
"371 397 LINE",
"35 397 LINE",
"35 301 LINE"
);
},
{
closed = 1;
nodes = (
"219 584 LINE",
"295 584 LINE SMOOTH",
"438 584 OFFCURVE",
"512 502 OFFCURVE",
"512 352 CURVE SMOOTH",
"512 194 OFFCURVE",
"444 116 OFFCURVE",
"303 116 CURVE SMOOTH",
"219 116 LINE"
);
}
);
width = 683;
},
{
layerId = "62D79BA8-865E-4B23-88DF-F495C1A196AD";
paths = (
{
closed = 1;
nodes = (
"305 0 LINE SMOOTH",
"511 0 OFFCURVE",
"626 125 OFFCURVE",
"626 352 CURVE SMOOTH",
"626 573 OFFCURVE",
"501 700 OFFCURVE",
"300 700 CURVE SMOOTH",
"162 700 LINE",
"153 710 OFFCURVE",
"142 718 OFFCURVE",
"132 718 CURVE SMOOTH",
"108 718 OFFCURVE",
"90 690 OFFCURVE",
"84 674 CURVE SMOOTH",
"78 651 OFFCURVE",
"111 654 OFFCURVE",
"111 609 CURVE SMOOTH",
"111 0 LINE"
);
},
{
closed = 1;
nodes = (
"357 316 LINE",
"357 382 LINE",
"45 382 LINE",
"45 316 LINE"
);
},
{
closed = 1;
nodes = (
"197 626 LINE",
"297 626 LINE SMOOTH",
"449 626 OFFCURVE",
"538 535 OFFCURVE",
"538 352 CURVE SMOOTH",
"538 173 OFFCURVE",
"466 74 OFFCURVE",
"305 74 CURVE SMOOTH",
"197 74 LINE"
);
}
);
width = 671;
},
{
layerId = "C1FA819C-E964-464A-9760-8985A4BBBA06";
paths = (
{
closed = 1;
nodes = (
"272 0 LINE SMOOTH",
"514 0 OFFCURVE",
"673 169 OFFCURVE",
"673 430 CURVE SMOOTH",
"673 594 OFFCURVE",
"559 700 OFFCURVE",
"380 700 CURVE SMOOTH",
"242 700 LINE",
"233 713 OFFCURVE",
"222 718 OFFCURVE",
"208 718 CURVE SMOOTH",
"179 718 OFFCURVE",
"145 682 OFFCURVE",
"131 654 CURVE SMOOTH",
"116 625 OFFCURVE",
"156 635 OFFCURVE",
"146 576 CURVE SMOOTH",
"44 0 LINE"
);
},
{
closed = 1;
nodes = (
"383 301 LINE",
"400 397 LINE",
"64 397 LINE",
"47 301 LINE"
);
},
{
closed = 1;
nodes = (
"281 584 LINE",
"357 584 LINE SMOOTH",
"495 584 OFFCURVE",
"536 525 OFFCURVE",
"536 416 CURVE SMOOTH",
"536 234 OFFCURVE",
"439 116 OFFCURVE",
"282 116 CURVE SMOOTH",
"198 116 LINE"
);
}
);
width = 683;
},
{
layerId = "5A1050C4-4F08-4A6D-BA78-94A136104BF4";
paths = (
{
closed = 1;
nodes = (
"269 0 LINE SMOOTH",
"507 0 OFFCURVE",
"652 180 OFFCURVE",
"652 440 CURVE SMOOTH",
"652 606 OFFCURVE",
"545 700 OFFCURVE",
"381 700 CURVE SMOOTH",
"244 700 LINE",
"236 710 OFFCURVE",
"226 718 OFFCURVE",
"217 718 CURVE SMOOTH",
"193 718 OFFCURVE",
"170 690 OFFCURVE",
"162 674 CURVE SMOOTH",
"151 651 OFFCURVE",
"184 654 OFFCURVE",
"176 609 CURVE SMOOTH",
"69 0 LINE"
);
},
{
closed = 1;
nodes = (
"372 316 LINE",
"384 382 LINE",
"71 382 LINE",
"59 316 LINE"
);
},
{
closed = 1;
nodes = (
"265 626 LINE",
"371 626 LINE SMOOTH",
"509 626 OFFCURVE",
"564 561 OFFCURVE",
"564 432 CURVE SMOOTH",
"564 216 OFFCURVE",
"450 74 OFFCURVE",
"276 74 CURVE SMOOTH",
"168 74 LINE"
);
}
);
width = 671;
},
{
layerId = "DD5BE8D6-EC3D-4275-AA48-09C9275F1F3A";
paths = (
{
closed = 1;
nodes = (
"268 0 LINE SMOOTH",
"496 0 OFFCURVE",
"641 181 OFFCURVE",
"641 447 CURVE SMOOTH",
"641 609 OFFCURVE",
"547 700 OFFCURVE",
"386 700 CURVE SMOOTH",
"249 700 LINE",
"243 709 OFFCURVE",
"233 718 OFFCURVE",
"228 718 CURVE SMOOTH",
"207 718 OFFCURVE",
"191 696 OFFCURVE",
"186 686 CURVE SMOOTH",
"178 670 OFFCURVE",
"207 666 OFFCURVE",
"201 631 CURVE SMOOTH",
"90 0 LINE"
);
},
{
closed = 1;
nodes = (
"367 326 LINE",
"375 372 LINE",
"79 372 LINE",
"71 326 LINE"
);
},
{
closed = 1;
nodes = (
"259 654 LINE",
"375 654 LINE SMOOTH",
"522 654 OFFCURVE",
"585 585 OFFCURVE",
"585 441 CURVE SMOOTH",
"585 205 OFFCURVE",
"463 46 OFFCURVE",
"276 46 CURVE SMOOTH",
"152 46 LINE"
);
}
);
width = 669;
}
);
note = Dcroat;
rightKerningGroup = D;
unicode = 0110;
},
{
glyphname = E;
lastChange = "2018-07-09 13:29:34 +0000";
layers = (
{
anchors = (
{
name = bottom;
position = "{265, 0}";
},
{
name = ogonek;
position = "{422, 10}";
},
{
name = top;
position = "{265, 700}";
},
{
name = topleft;
position = "{20, 700}";
}
);
layerId = "0B1DFD06-3317-40CA-B510-4969A0718C16";
paths = (
{
closed = 1;
nodes = (
"454 0 LINE",
"454 46 LINE",
"135 46 LINE",
"135 344 LINE",
"361 344 LINE",
"361 390 LINE",
"135 390 LINE",
"135 654 LINE",
"445 654 LINE",
"445 700 LINE",
"116 700 LINE",
"109 709 OFFCURVE",
"97 718 OFFCURVE",
"91 718 CURVE SMOOTH",
"72 718 OFFCURVE",
"59 696 OFFCURVE",
"56 687 CURVE SMOOTH",
"51 669 OFFCURVE",
"81 666 OFFCURVE",
"81 631 CURVE SMOOTH",
"81 0 LINE"
);
}
);
width = 509;
},
{
anchors = (
{
name = bottom;
position = "{289, 0}";
},
{
name = ogonek;
position = "{446, 10}";
},
{
name = top;
position = "{289, 700}";
},
{
name = topleft;
position = "{44, 700}";
}
);
background = {
anchors = (
{
name = bottom;
position = "{289, 0}";
},
{
name = ogonek;
position = "{446, 10}";
},
{
name = top;
position = "{289, 700}";
},
{
name = topleft;
position = "{44, 700}";
}
);
paths = (
{
closed = 1;
nodes = (
"105 0 LINE",
"478 0 LINE",
"478 46 LINE",
"159 46 LINE",
"159 344 LINE",
"385 344 LINE",
"385 390 LINE",
"159 390 LINE",
"159 654 LINE",
"469 654 LINE",
"469 700 LINE",
"140 700 LINE",
"133 709 OFFCURVE",
"121 718 OFFCURVE",
"115 718 CURVE SMOOTH",
"96 718 OFFCURVE",
"83 696 OFFCURVE",
"80 687 CURVE",
"75 669 OFFCURVE",
"105 666 OFFCURVE",
"105 631 CURVE SMOOTH"
);
}
);
};
layerId = "39D19F74-97F3-4EB6-8D96-77117D45ABB1";
paths = (
{
closed = 1;
nodes = (
"518 0 LINE",
"518 116 LINE",
"199 116 LINE",
"199 312 LINE",
"425 312 LINE",
"425 422 LINE",
"199 422 LINE",
"199 584 LINE",
"509 584 LINE",
"509 700 LINE",
"140 700 LINE",
"129 712 OFFCURVE",
"118 718 OFFCURVE",
"102 718 CURVE SMOOTH",
"73 718 OFFCURVE",
"46 682 OFFCURVE",
"37 655 CURVE SMOOTH",
"27 625 OFFCURVE",
"65 635 OFFCURVE",
"65 576 CURVE SMOOTH",
"65 0 LINE"
);
}
);
width = 553;
},
{
anchors = (
{
name = bottom;
position = "{273, 0}";
},
{
name = ogonek;
position = "{430, 10}";
},
{
name = top;
position = "{273, 700}";
},
{
name = topleft;
position = "{28, 700}";
}
);
layerId = "62D79BA8-865E-4B23-88DF-F495C1A196AD";
paths = (
{
closed = 1;
nodes = (
"478 0 LINE",
"478 74 LINE",
"159 74 LINE",
"159 331 LINE",
"385 331 LINE",
"385 403 LINE",
"159 403 LINE",
"159 626 LINE",
"469 626 LINE",
"469 700 LINE",
"124 700 LINE",
"115 710 OFFCURVE",
"103 718 OFFCURVE",
"93 718 CURVE SMOOTH",
"70 718 OFFCURVE",
"52 690 OFFCURVE",
"46 674 CURVE SMOOTH",
"39 651 OFFCURVE",
"73 654 OFFCURVE",
"73 609 CURVE SMOOTH",
"73 0 LINE"
);
}
);
width = 523;
},
{
anchors = (
{
name = bottom;
position = "{248, 0}";
},
{
name = ogonek;
position = "{407, 10}";
},
{
name = top;
position = "{371, 700}";
},
{
name = topleft;
position = "{126, 700}";
}
);
background = {
anchors = (
{
name = bottom;
position = "{289, 0}";
},
{
name = ogonek;
position = "{446, 10}";
},
{
name = top;
position = "{289, 700}";
},
{
name = topleft;
position = "{44, 700}";
}
);
paths = (
{
closed = 1;
nodes = (
"105 0 LINE",
"478 0 LINE",
"478 46 LINE",
"159 46 LINE",
"159 344 LINE",
"385 344 LINE",
"385 390 LINE",
"159 390 LINE",
"159 654 LINE",
"469 654 LINE",
"469 700 LINE",
"140 700 LINE",
"133 709 OFFCURVE",
"121 718 OFFCURVE",
"115 718 CURVE SMOOTH",
"96 718 OFFCURVE",
"83 696 OFFCURVE",
"80 687 CURVE",
"75 669 OFFCURVE",
"105 666 OFFCURVE",
"105 631 CURVE SMOOTH"
);
}
);
};
layerId = "C1FA819C-E964-464A-9760-8985A4BBBA06";
paths = (
{
closed = 1;
nodes = (
"477 0 LINE",
"497 116 LINE",
"178 116 LINE",
"213 312 LINE",
"439 312 LINE",
"458 422 LINE",
"232 422 LINE",
"261 584 LINE",
"571 584 LINE",
"591 700 LINE",
"222 700 LINE",
"213 713 OFFCURVE",
"202 718 OFFCURVE",
"188 718 CURVE SMOOTH",
"159 718 OFFCURVE",
"125 682 OFFCURVE",
"111 654 CURVE SMOOTH",
"96 625 OFFCURVE",
"136 635 OFFCURVE",
"126 576 CURVE SMOOTH",
"24 0 LINE"
);
}
);
width = 553;
},
{
anchors = (
{
name = bottom;
position = "{232, 0}";
},
{
name = ogonek;
position = "{391, 10}";
},
{
name = top;
position = "{355, 700}";
},
{
name = topleft;
position = "{110, 700}";
}
);
layerId = "5A1050C4-4F08-4A6D-BA78-94A136104BF4";
paths = (
{
closed = 1;
nodes = (
"437 0 LINE",
"450 74 LINE",
"130 74 LINE",
"175 331 LINE",
"402 331 LINE",
"415 403 LINE",
"188 403 LINE",
"227 626 LINE",
"538 626 LINE",
"551 700 LINE",
"205 700 LINE",
"198 710 OFFCURVE",
"187 718 OFFCURVE",
"178 718 CURVE SMOOTH",
"154 718 OFFCURVE",
"130 688 OFFCURVE",
"123 674 CURVE SMOOTH",
"112 653 OFFCURVE",
"146 654 OFFCURVE",
"138 609 CURVE SMOOTH",
"31 0 LINE"
);
}
);
width = 523;
},
{
anchors = (
{
name = bottom;
position = "{223, 0}";
},
{
name = ogonek;
position = "{382, 10}";
},
{
name = top;
position = "{346, 700}";
},
{
name = topleft;
position = "{101, 700}";
}
);
layerId = "DD5BE8D6-EC3D-4275-AA48-09C9275F1F3A";
paths = (
{
closed = 1;
nodes = (
"413 0 LINE",
"421 46 LINE",
"101 46 LINE",
"154 344 LINE",
"381 344 LINE",
"389 390 LINE",
"162 390 LINE",
"208 654 LINE",
"519 654 LINE",
"527 700 LINE",
"197 700 LINE",
"192 709 OFFCURVE",
"181 718 OFFCURVE",
"176 718 CURVE SMOOTH",
"156 718 OFFCURVE",
"138 694 OFFCURVE",
"135 687 CURVE SMOOTH",
"127 671 OFFCURVE",
"156 666 OFFCURVE",
"150 631 CURVE SMOOTH",
"39 0 LINE"
);
}
);
width = 509;
}
);
note = E;
rightKerningGroup = E;
unicode = 0045;
},
{
glyphname = Eacute;
lastChange = "2018-07-26 07:40:13 +0000";
layers = (
{
background = {
paths = (
{
closed = 1;
nodes = (
"554 0 LINE",
"571 179 LINE",
"544 179 LINE",
"538 124 OFFCURVE",
"520 40 OFFCURVE",
"456 40 CURVE SMOOTH",
"201 40 LINE",
"201 659 LINE",
"441 659 LINE SMOOTH",
"516 659 OFFCURVE",
"525 567 OFFCURVE",
"528 527 CURVE",
"555 527 LINE",
"555 700 LINE",
"16 700 LINE",
"16 673 LINE",
"44 673 LINE SMOOTH",
"83 673 OFFCURVE",
"103 662 OFFCURVE",
"103 637 CURVE SMOOTH",
"103 62 LINE SMOOTH",
"103 37 OFFCURVE",
"83 26 OFFCURVE",
"44 26 CURVE SMOOTH",
"16 26 LINE",
"16 0 LINE"
);
},
{
closed = 1;
nodes = (
"455 251 LINE",
"455 485 LINE",
"431 485 LINE",
"427 436 OFFCURVE",
"424 388 OFFCURVE",
"379 388 CURVE SMOOTH",
"162 388 LINE",
"162 348 LINE",
"379 348 LINE SMOOTH",
"424 348 OFFCURVE",
"427 300 OFFCURVE",
"431 251 CURVE"
);
},
{
closed = 1;
nodes = (
"398 865 LINE SMOOTH",
"420 877 OFFCURVE",
"432 890 OFFCURVE",
"432 907 CURVE SMOOTH",
"432 922 OFFCURVE",
"420 937 OFFCURVE",
"398 937 CURVE SMOOTH",
"377 937 OFFCURVE",
"362 921 OFFCURVE",
"354 914 CURVE SMOOTH",
"239 807 LINE",
"256 782 LINE"
);
}
);
};
components = (
{
name = E;
},
{
alignment = 1;
name = acutecomb;
transform = "{1, 0, 0, 1, 296, 230}";
}
);
layerId = "0B1DFD06-3317-40CA-B510-4969A0718C16";
width = 509;
},
{
background = {
paths = (
{
closed = 1;
nodes = (
"554 0 LINE",
"571 179 LINE",
"544 179 LINE",
"538 124 OFFCURVE",
"520 40 OFFCURVE",
"456 40 CURVE SMOOTH",
"201 40 LINE",
"201 659 LINE",
"441 659 LINE SMOOTH",
"516 659 OFFCURVE",
"525 567 OFFCURVE",
"528 527 CURVE",
"555 527 LINE",
"555 700 LINE",
"16 700 LINE",
"16 673 LINE",
"44 673 LINE SMOOTH",
"83 673 OFFCURVE",
"103 662 OFFCURVE",
"103 637 CURVE SMOOTH",
"103 62 LINE SMOOTH",
"103 37 OFFCURVE",
"83 26 OFFCURVE",
"44 26 CURVE SMOOTH",
"16 26 LINE",
"16 0 LINE"
);
},
{
closed = 1;
nodes = (
"455 251 LINE",
"455 485 LINE",
"431 485 LINE",
"427 436 OFFCURVE",
"424 388 OFFCURVE",
"379 388 CURVE SMOOTH",
"162 388 LINE",
"162 348 LINE",
"379 348 LINE SMOOTH",
"424 348 OFFCURVE",
"427 300 OFFCURVE",
"431 251 CURVE"
);
},
{
closed = 1;
nodes = (
"398 865 LINE SMOOTH",
"420 877 OFFCURVE",
"432 890 OFFCURVE",
"432 907 CURVE SMOOTH",
"432 922 OFFCURVE",
"420 937 OFFCURVE",
"398 937 CURVE SMOOTH",
"377 937 OFFCURVE",
"362 921 OFFCURVE",
"354 914 CURVE SMOOTH",
"239 807 LINE",
"256 782 LINE"
);
}
);
};
components = (
{
name = E;
},
{
alignment = 1;
name = acutecomb;
transform = "{1, 0, 0, 1, 320, 230}";
}
);
layerId = "39D19F74-97F3-4EB6-8D96-77117D45ABB1";
width = 553;
},
{
components = (
{
name = E;
},
{
alignment = 1;
name = acutecomb;
transform = "{1, 0, 0, 1, 304, 230}";
}
);
layerId = "62D79BA8-865E-4B23-88DF-F495C1A196AD";
width = 523;
},
{
background = {
paths = (
{
closed = 1;
nodes = (
"554 0 LINE",
"571 179 LINE",
"544 179 LINE",
"538 124 OFFCURVE",
"520 40 OFFCURVE",
"456 40 CURVE SMOOTH",
"201 40 LINE",
"201 659 LINE",
"441 659 LINE SMOOTH",
"516 659 OFFCURVE",
"525 567 OFFCURVE",
"528 527 CURVE",
"555 527 LINE",
"555 700 LINE",
"16 700 LINE",
"16 673 LINE",
"44 673 LINE SMOOTH",
"83 673 OFFCURVE",
"103 662 OFFCURVE",
"103 637 CURVE SMOOTH",
"103 62 LINE SMOOTH",
"103 37 OFFCURVE",
"83 26 OFFCURVE",
"44 26 CURVE SMOOTH",
"16 26 LINE",
"16 0 LINE"
);
},
{
closed = 1;
nodes = (
"455 251 LINE",
"455 485 LINE",
"431 485 LINE",
"427 436 OFFCURVE",
"424 388 OFFCURVE",
"379 388 CURVE SMOOTH",
"162 388 LINE",
"162 348 LINE",
"379 348 LINE SMOOTH",
"424 348 OFFCURVE",
"427 300 OFFCURVE",
"431 251 CURVE"
);
},
{
closed = 1;
nodes = (
"398 865 LINE SMOOTH",
"420 877 OFFCURVE",
"432 890 OFFCURVE",
"432 907 CURVE SMOOTH",
"432 922 OFFCURVE",
"420 937 OFFCURVE",
"398 937 CURVE SMOOTH",
"377 937 OFFCURVE",
"362 921 OFFCURVE",
"354 914 CURVE SMOOTH",
"239 807 LINE",
"256 782 LINE"
);
}
);
};
components = (
{
name = E;
},
{
alignment = 1;
name = acutecomb;
transform = "{1, 0, 0, 1, 362, 230}";
}
);
layerId = "C1FA819C-E964-464A-9760-8985A4BBBA06";
width = 553;
},
{
components = (
{
name = E;
},
{
alignment = 1;
name = acutecomb;
transform = "{1, 0, 0, 1, 346, 230}";
}
);
layerId = "5A1050C4-4F08-4A6D-BA78-94A136104BF4";
width = 523;
},
{
background = {
paths = (
{
closed = 1;
nodes = (
"554 0 LINE",
"571 179 LINE",
"544 179 LINE",
"538 124 OFFCURVE",
"520 40 OFFCURVE",
"456 40 CURVE SMOOTH",
"201 40 LINE",
"201 659 LINE",
"441 659 LINE SMOOTH",
"516 659 OFFCURVE",
"525 567 OFFCURVE",
"528 527 CURVE",
"555 527 LINE",
"555 700 LINE",
"16 700 LINE",
"16 673 LINE",
"44 673 LINE SMOOTH",
"83 673 OFFCURVE",
"103 662 OFFCURVE",
"103 637 CURVE SMOOTH",
"103 62 LINE SMOOTH",
"103 37 OFFCURVE",
"83 26 OFFCURVE",
"44 26 CURVE SMOOTH",
"16 26 LINE",
"16 0 LINE"
);
},
{
closed = 1;
nodes = (
"455 251 LINE",
"455 485 LINE",
"431 485 LINE",
"427 436 OFFCURVE",
"424 388 OFFCURVE",
"379 388 CURVE SMOOTH",
"162 388 LINE",
"162 348 LINE",
"379 348 LINE SMOOTH",
"424 348 OFFCURVE",
"427 300 OFFCURVE",
"431 251 CURVE"
);
},
{
closed = 1;
nodes = (
"398 865 LINE SMOOTH",
"420 877 OFFCURVE",
"432 890 OFFCURVE",
"432 907 CURVE SMOOTH",
"432 922 OFFCURVE",
"420 937 OFFCURVE",
"398 937 CURVE SMOOTH",
"377 937 OFFCURVE",
"362 921 OFFCURVE",
"354 914 CURVE SMOOTH",
"239 807 LINE",
"256 782 LINE"
);
}
);
};
components = (
{
name = E;
},
{
alignment = 1;
name = acutecomb;
transform = "{1, 0, 0, 1, 337, 230}";
}
);
layerId = "DD5BE8D6-EC3D-4275-AA48-09C9275F1F3A";
width = 509;
}
);
note = Eacute;
rightKerningGroup = E;
unicode = 00C9;
},
{
glyphname = Ebreve;
lastChange = "2018-07-26 07:40:14 +0000";
layers = (
{
background = {
paths = (
{
closed = 1;
nodes = (
"554 0 LINE",
"571 179 LINE",
"544 179 LINE",
"538 124 OFFCURVE",
"520 40 OFFCURVE",
"456 40 CURVE SMOOTH",
"201 40 LINE",
"201 659 LINE",
"441 659 LINE SMOOTH",
"516 659 OFFCURVE",
"525 567 OFFCURVE",
"528 527 CURVE",
"555 527 LINE",
"555 700 LINE",
"16 700 LINE",
"16 673 LINE",
"44 673 LINE SMOOTH",
"83 673 OFFCURVE",
"103 662 OFFCURVE",
"103 637 CURVE SMOOTH",
"103 62 LINE SMOOTH",
"103 37 OFFCURVE",
"83 26 OFFCURVE",
"44 26 CURVE SMOOTH",
"16 26 LINE",
"16 0 LINE"
);
},
{
closed = 1;
nodes = (
"455 251 LINE",
"455 485 LINE",
"431 485 LINE",
"427 436 OFFCURVE",
"424 388 OFFCURVE",
"379 388 CURVE SMOOTH",
"162 388 LINE",
"162 348 LINE",
"379 348 LINE SMOOTH",
"424 348 OFFCURVE",
"427 300 OFFCURVE",
"431 251 CURVE"
);
},
{
closed = 1;
nodes = (
"432 776 OFFCURVE",
"474 832 OFFCURVE",
"478 907 CURVE",
"445 907 LINE",
"439 848 OFFCURVE",
"397 822 OFFCURVE",
"333 822 CURVE SMOOTH",
"269 822 OFFCURVE",
"226 848 OFFCURVE",
"219 907 CURVE",
"186 907 LINE",
"190 829 OFFCURVE",
"232 776 OFFCURVE",
"333 776 CURVE SMOOTH"
);
}
);
};
components = (
{
name = E;
},
{
name = brevecomb;
transform = "{1, 0, 0, 1, 265, 230}";
}
);
layerId = "0B1DFD06-3317-40CA-B510-4969A0718C16";
width = 509;
},
{
background = {
paths = (
{
closed = 1;
nodes = (
"554 0 LINE",
"571 179 LINE",
"544 179 LINE",
"538 124 OFFCURVE",
"520 40 OFFCURVE",
"456 40 CURVE SMOOTH",
"201 40 LINE",
"201 659 LINE",
"441 659 LINE SMOOTH",
"516 659 OFFCURVE",
"525 567 OFFCURVE",
"528 527 CURVE",
"555 527 LINE",
"555 700 LINE",
"16 700 LINE",
"16 673 LINE",
"44 673 LINE SMOOTH",
"83 673 OFFCURVE",
"103 662 OFFCURVE",
"103 637 CURVE SMOOTH",
"103 62 LINE SMOOTH",
"103 37 OFFCURVE",
"83 26 OFFCURVE",
"44 26 CURVE SMOOTH",
"16 26 LINE",
"16 0 LINE"
);
},
{
closed = 1;
nodes = (
"455 251 LINE",
"455 485 LINE",
"431 485 LINE",
"427 436 OFFCURVE",
"424 388 OFFCURVE",
"379 388 CURVE SMOOTH",
"162 388 LINE",
"162 348 LINE",
"379 348 LINE SMOOTH",
"424 348 OFFCURVE",
"427 300 OFFCURVE",
"431 251 CURVE"
);
},
{
closed = 1;
nodes = (
"432 776 OFFCURVE",
"474 832 OFFCURVE",
"478 907 CURVE",
"445 907 LINE",
"439 848 OFFCURVE",
"397 822 OFFCURVE",
"333 822 CURVE SMOOTH",
"269 822 OFFCURVE",
"226 848 OFFCURVE",
"219 907 CURVE",
"186 907 LINE",
"190 829 OFFCURVE",
"232 776 OFFCURVE",
"333 776 CURVE SMOOTH"
);
}
);
};
components = (
{
name = E;
},
{
name = brevecomb;
transform = "{1, 0, 0, 1, 289, 230}";
}
);
layerId = "39D19F74-97F3-4EB6-8D96-77117D45ABB1";
width = 553;
},
{
components = (
{
name = E;
},
{
name = brevecomb;
transform = "{1, 0, 0, 1, 273, 230}";
}
);
layerId = "62D79BA8-865E-4B23-88DF-F495C1A196AD";
width = 523;
},
{
background = {
paths = (
{
closed = 1;
nodes = (
"554 0 LINE",
"571 179 LINE",
"544 179 LINE",
"538 124 OFFCURVE",
"520 40 OFFCURVE",
"456 40 CURVE SMOOTH",
"201 40 LINE",
"201 659 LINE",
"441 659 LINE SMOOTH",
"516 659 OFFCURVE",
"525 567 OFFCURVE",
"528 527 CURVE",
"555 527 LINE",
"555 700 LINE",
"16 700 LINE",
"16 673 LINE",
"44 673 LINE SMOOTH",
"83 673 OFFCURVE",
"103 662 OFFCURVE",
"103 637 CURVE SMOOTH",
"103 62 LINE SMOOTH",
"103 37 OFFCURVE",
"83 26 OFFCURVE",
"44 26 CURVE SMOOTH",
"16 26 LINE",
"16 0 LINE"
);
},
{
closed = 1;
nodes = (
"455 251 LINE",
"455 485 LINE",
"431 485 LINE",
"427 436 OFFCURVE",
"424 388 OFFCURVE",
"379 388 CURVE SMOOTH",
"162 388 LINE",
"162 348 LINE",
"379 348 LINE SMOOTH",
"424 348 OFFCURVE",
"427 300 OFFCURVE",
"431 251 CURVE"
);
},
{
closed = 1;
nodes = (
"432 776 OFFCURVE",
"474 832 OFFCURVE",
"478 907 CURVE",
"445 907 LINE",
"439 848 OFFCURVE",
"397 822 OFFCURVE",
"333 822 CURVE SMOOTH",
"269 822 OFFCURVE",
"226 848 OFFCURVE",
"219 907 CURVE",
"186 907 LINE",
"190 829 OFFCURVE",
"232 776 OFFCURVE",
"333 776 CURVE SMOOTH"
);
}
);
};
components = (
{
name = E;
},
{
name = brevecomb;
transform = "{1, 0, 0, 1, 331, 230}";
}
);
layerId = "C1FA819C-E964-464A-9760-8985A4BBBA06";
width = 553;
},
{
components = (
{
name = E;
},
{
name = brevecomb;
transform = "{1, 0, 0, 1, 315, 230}";
}
);
layerId = "5A1050C4-4F08-4A6D-BA78-94A136104BF4";
width = 523;
},
{
background = {
paths = (
{
closed = 1;
nodes = (
"554 0 LINE",
"571 179 LINE",
"544 179 LINE",
"538 124 OFFCURVE",
"520 40 OFFCURVE",
"456 40 CURVE SMOOTH",
"201 40 LINE",
"201 659 LINE",
"441 659 LINE SMOOTH",
"516 659 OFFCURVE",
"525 567 OFFCURVE",
"528 527 CURVE",
"555 527 LINE",
"555 700 LINE",
"16 700 LINE",
"16 673 LINE",
"44 673 LINE SMOOTH",
"83 673 OFFCURVE",
"103 662 OFFCURVE",
"103 637 CURVE SMOOTH",
"103 62 LINE SMOOTH",
"103 37 OFFCURVE",
"83 26 OFFCURVE",
"44 26 CURVE SMOOTH",
"16 26 LINE",
"16 0 LINE"
);
},
{
closed = 1;
nodes = (
"455 251 LINE",
"455 485 LINE",
"431 485 LINE",
"427 436 OFFCURVE",
"424 388 OFFCURVE",
"379 388 CURVE SMOOTH",
"162 388 LINE",
"162 348 LINE",
"379 348 LINE SMOOTH",
"424 348 OFFCURVE",
"427 300 OFFCURVE",
"431 251 CURVE"
);
},
{
closed = 1;
nodes = (
"432 776 OFFCURVE",
"474 832 OFFCURVE",
"478 907 CURVE",
"445 907 LINE",
"439 848 OFFCURVE",
"397 822 OFFCURVE",
"333 822 CURVE SMOOTH",
"269 822 OFFCURVE",
"226 848 OFFCURVE",
"219 907 CURVE",
"186 907 LINE",
"190 829 OFFCURVE",
"232 776 OFFCURVE",
"333 776 CURVE SMOOTH"
);
}
);
};
components = (
{
name = E;
},
{
name = brevecomb;
transform = "{1, 0, 0, 1, 306, 230}";
}
);
layerId = "DD5BE8D6-EC3D-4275-AA48-09C9275F1F3A";
width = 509;
}
);
note = Ebreve;
rightKerningGroup = E;
unicode = 0114;
},
{
glyphname = Ecaron;
lastChange = "2018-07-26 07:40:14 +0000";
layers = (
{
background = {
paths = (
{
closed = 1;
nodes = (
"554 0 LINE",
"571 179 LINE",
"544 179 LINE",
"538 124 OFFCURVE",
"520 40 OFFCURVE",
"456 40 CURVE SMOOTH",
"201 40 LINE",
"201 659 LINE",
"441 659 LINE SMOOTH",
"516 659 OFFCURVE",
"525 567 OFFCURVE",
"528 527 CURVE",
"555 527 LINE",
"555 700 LINE",
"16 700 LINE",
"16 673 LINE",
"44 673 LINE SMOOTH",
"83 673 OFFCURVE",
"103 662 OFFCURVE",
"103 637 CURVE SMOOTH",
"103 62 LINE SMOOTH",
"103 37 OFFCURVE",
"83 26 OFFCURVE",
"44 26 CURVE SMOOTH",
"16 26 LINE",
"16 0 LINE"
);
},
{
closed = 1;
nodes = (
"455 251 LINE",
"455 485 LINE",
"431 485 LINE",
"427 436 OFFCURVE",
"424 388 OFFCURVE",
"379 388 CURVE SMOOTH",
"162 388 LINE",
"162 348 LINE",
"379 348 LINE SMOOTH",
"424 348 OFFCURVE",
"427 300 OFFCURVE",
"431 251 CURVE"
);
},
{
closed = 1;
nodes = (
"357 782 LINE",
"481 911 LINE",
"462 932 LINE",
"354 847 LINE",
"346 840 OFFCURVE",
"337 836 OFFCURVE",
"331 836 CURVE SMOOTH",
"325 836 OFFCURVE",
"317 840 OFFCURVE",
"307 847 CURVE",
"199 932 LINE",
"180 911 LINE",
"304 782 LINE"
);
}
);
};
components = (
{
name = E;
},
{
name = caroncomb;
transform = "{1, 0, 0, 1, 266, 230}";
}
);
layerId = "0B1DFD06-3317-40CA-B510-4969A0718C16";
width = 509;
},
{
background = {
paths = (
{
closed = 1;
nodes = (
"554 0 LINE",
"571 179 LINE",
"544 179 LINE",
"538 124 OFFCURVE",
"520 40 OFFCURVE",
"456 40 CURVE SMOOTH",
"201 40 LINE",
"201 659 LINE",
"441 659 LINE SMOOTH",
"516 659 OFFCURVE",
"525 567 OFFCURVE",
"528 527 CURVE",
"555 527 LINE",
"555 700 LINE",
"16 700 LINE",
"16 673 LINE",
"44 673 LINE SMOOTH",
"83 673 OFFCURVE",
"103 662 OFFCURVE",
"103 637 CURVE SMOOTH",
"103 62 LINE SMOOTH",
"103 37 OFFCURVE",
"83 26 OFFCURVE",
"44 26 CURVE SMOOTH",
"16 26 LINE",
"16 0 LINE"
);
},
{
closed = 1;
nodes = (
"455 251 LINE",
"455 485 LINE",
"431 485 LINE",
"427 436 OFFCURVE",
"424 388 OFFCURVE",
"379 388 CURVE SMOOTH",
"162 388 LINE",
"162 348 LINE",
"379 348 LINE SMOOTH",
"424 348 OFFCURVE",
"427 300 OFFCURVE",
"431 251 CURVE"
);
},
{
closed = 1;
nodes = (
"357 782 LINE",
"481 911 LINE",
"462 932 LINE",
"354 847 LINE",
"346 840 OFFCURVE",
"337 836 OFFCURVE",
"331 836 CURVE SMOOTH",
"325 836 OFFCURVE",
"317 840 OFFCURVE",
"307 847 CURVE",
"199 932 LINE",
"180 911 LINE",
"304 782 LINE"
);
}
);
};
components = (
{
name = E;
},
{
name = caroncomb;
transform = "{1, 0, 0, 1, 290, 230}";
}
);
layerId = "39D19F74-97F3-4EB6-8D96-77117D45ABB1";
width = 553;
},
{
components = (
{
name = E;
},
{
name = caroncomb;
transform = "{1, 0, 0, 1, 274, 230}";
}
);
layerId = "62D79BA8-865E-4B23-88DF-F495C1A196AD";
width = 523;
},
{
background = {
paths = (
{
closed = 1;
nodes = (
"554 0 LINE",
"571 179 LINE",
"544 179 LINE",
"538 124 OFFCURVE",
"520 40 OFFCURVE",
"456 40 CURVE SMOOTH",
"201 40 LINE",
"201 659 LINE",
"441 659 LINE SMOOTH",
"516 659 OFFCURVE",
"525 567 OFFCURVE",
"528 527 CURVE",
"555 527 LINE",
"555 700 LINE",
"16 700 LINE",
"16 673 LINE",
"44 673 LINE SMOOTH",
"83 673 OFFCURVE",
"103 662 OFFCURVE",
"103 637 CURVE SMOOTH",
"103 62 LINE SMOOTH",
"103 37 OFFCURVE",
"83 26 OFFCURVE",
"44 26 CURVE SMOOTH",
"16 26 LINE",
"16 0 LINE"
);
},
{
closed = 1;
nodes = (
"455 251 LINE",
"455 485 LINE",
"431 485 LINE",
"427 436 OFFCURVE",
"424 388 OFFCURVE",
"379 388 CURVE SMOOTH",
"162 388 LINE",
"162 348 LINE",
"379 348 LINE SMOOTH",
"424 348 OFFCURVE",
"427 300 OFFCURVE",
"431 251 CURVE"
);
},
{
closed = 1;
nodes = (
"357 782 LINE",
"481 911 LINE",
"462 932 LINE",
"354 847 LINE",
"346 840 OFFCURVE",
"337 836 OFFCURVE",
"331 836 CURVE SMOOTH",
"325 836 OFFCURVE",
"317 840 OFFCURVE",
"307 847 CURVE",
"199 932 LINE",
"180 911 LINE",
"304 782 LINE"
);
}
);
};
components = (
{
name = E;
},
{
name = caroncomb;
transform = "{1, 0, 0, 1, 332, 230}";
}
);
layerId = "C1FA819C-E964-464A-9760-8985A4BBBA06";
width = 553;
},
{
components = (
{
name = E;
},
{
name = caroncomb;
transform = "{1, 0, 0, 1, 316, 230}";
}
);
layerId = "5A1050C4-4F08-4A6D-BA78-94A136104BF4";
width = 523;
},
{
background = {
paths = (
{
closed = 1;
nodes = (
"554 0 LINE",
"571 179 LINE",
"544 179 LINE",
"538 124 OFFCURVE",
"520 40 OFFCURVE",
"456 40 CURVE SMOOTH",
"201 40 LINE",
"201 659 LINE",
"441 659 LINE SMOOTH",
"516 659 OFFCURVE",
"525 567 OFFCURVE",
"528 527 CURVE",
"555 527 LINE",
"555 700 LINE",
"16 700 LINE",
"16 673 LINE",
"44 673 LINE SMOOTH",
"83 673 OFFCURVE",
"103 662 OFFCURVE",
"103 637 CURVE SMOOTH",
"103 62 LINE SMOOTH",
"103 37 OFFCURVE",
"83 26 OFFCURVE",
"44 26 CURVE SMOOTH",
"16 26 LINE",
"16 0 LINE"
);
},
{
closed = 1;
nodes = (
"455 251 LINE",
"455 485 LINE",
"431 485 LINE",
"427 436 OFFCURVE",
"424 388 OFFCURVE",
"379 388 CURVE SMOOTH",
"162 388 LINE",
"162 348 LINE",
"379 348 LINE SMOOTH",
"424 348 OFFCURVE",
"427 300 OFFCURVE",
"431 251 CURVE"
);
},
{
closed = 1;
nodes = (
"357 782 LINE",
"481 911 LINE",
"462 932 LINE",
"354 847 LINE",
"346 840 OFFCURVE",
"337 836 OFFCURVE",
"331 836 CURVE SMOOTH",
"325 836 OFFCURVE",
"317 840 OFFCURVE",
"307 847 CURVE",
"199 932 LINE",
"180 911 LINE",
"304 782 LINE"
);
}
);
};
components = (
{
name = E;
},
{
name = caroncomb;
transform = "{1, 0, 0, 1, 307, 230}";
}
);
layerId = "DD5BE8D6-EC3D-4275-AA48-09C9275F1F3A";
width = 509;
}
);
note = Ecaron;
rightKerningGroup = E;
unicode = 011A;
},
{
glyphname = Ecircumflex;
lastChange = "2018-07-26 07:40:14 +0000";
layers = (
{
background = {
paths = (
{
closed = 1;
nodes = (
"554 0 LINE",
"571 179 LINE",
"544 179 LINE",
"538 124 OFFCURVE",
"520 40 OFFCURVE",
"456 40 CURVE SMOOTH",
"201 40 LINE",
"201 659 LINE",
"441 659 LINE SMOOTH",
"516 659 OFFCURVE",
"525 567 OFFCURVE",
"528 527 CURVE",
"555 527 LINE",
"555 700 LINE",
"16 700 LINE",
"16 673 LINE",
"44 673 LINE SMOOTH",
"83 673 OFFCURVE",
"103 662 OFFCURVE",
"103 637 CURVE SMOOTH",
"103 62 LINE SMOOTH",
"103 37 OFFCURVE",
"83 26 OFFCURVE",
"44 26 CURVE SMOOTH",
"16 26 LINE",
"16 0 LINE"
);
},
{
closed = 1;
nodes = (
"455 251 LINE",
"455 485 LINE",
"431 485 LINE",
"427 436 OFFCURVE",
"424 388 OFFCURVE",
"379 388 CURVE SMOOTH",
"162 388 LINE",
"162 348 LINE",
"379 348 LINE SMOOTH",
"424 348 OFFCURVE",
"427 300 OFFCURVE",
"431 251 CURVE"
);
},
{
closed = 1;
nodes = (
"304 868 LINE SMOOTH",
"312 874 OFFCURVE",
"322 879 OFFCURVE",
"328 879 CURVE SMOOTH",
"334 879 OFFCURVE",
"342 874 OFFCURVE",
"351 868 CURVE",
"459 782 LINE",
"478 803 LINE",
"354 932 LINE",
"301 932 LINE",
"177 803 LINE",
"196 782 LINE"
);
}
);
};
components = (
{
name = E;
},
{
name = circumflexcomb;
transform = "{1, 0, 0, 1, 266, 230}";
}
);
layerId = "0B1DFD06-3317-40CA-B510-4969A0718C16";
width = 509;
},
{
background = {
paths = (
{
closed = 1;
nodes = (
"554 0 LINE",
"571 179 LINE",
"544 179 LINE",
"538 124 OFFCURVE",
"520 40 OFFCURVE",
"456 40 CURVE SMOOTH",
"201 40 LINE",
"201 659 LINE",
"441 659 LINE SMOOTH",
"516 659 OFFCURVE",
"525 567 OFFCURVE",
"528 527 CURVE",
"555 527 LINE",
"555 700 LINE",
"16 700 LINE",
"16 673 LINE",
"44 673 LINE SMOOTH",
"83 673 OFFCURVE",
"103 662 OFFCURVE",
"103 637 CURVE SMOOTH",
"103 62 LINE SMOOTH",
"103 37 OFFCURVE",
"83 26 OFFCURVE",
"44 26 CURVE SMOOTH",
"16 26 LINE",
"16 0 LINE"
);
},
{
closed = 1;
nodes = (
"455 251 LINE",
"455 485 LINE",
"431 485 LINE",
"427 436 OFFCURVE",
"424 388 OFFCURVE",
"379 388 CURVE SMOOTH",
"162 388 LINE",
"162 348 LINE",
"379 348 LINE SMOOTH",
"424 348 OFFCURVE",
"427 300 OFFCURVE",
"431 251 CURVE"
);
},
{
closed = 1;
nodes = (
"304 868 LINE SMOOTH",
"312 874 OFFCURVE",
"322 879 OFFCURVE",
"328 879 CURVE SMOOTH",
"334 879 OFFCURVE",
"342 874 OFFCURVE",
"351 868 CURVE",
"459 782 LINE",
"478 803 LINE",
"354 932 LINE",
"301 932 LINE",
"177 803 LINE",
"196 782 LINE"
);
}
);
};
components = (
{
name = E;
},
{
name = circumflexcomb;
transform = "{1, 0, 0, 1, 290, 230}";
}
);
layerId = "39D19F74-97F3-4EB6-8D96-77117D45ABB1";
width = 553;
},
{
components = (
{
name = E;
},
{
name = circumflexcomb;
transform = "{1, 0, 0, 1, 274, 230}";
}
);
layerId = "62D79BA8-865E-4B23-88DF-F495C1A196AD";
width = 523;
},
{
background = {
paths = (
{
closed = 1;
nodes = (
"554 0 LINE",
"571 179 LINE",
"544 179 LINE",
"538 124 OFFCURVE",
"520 40 OFFCURVE",
"456 40 CURVE SMOOTH",
"201 40 LINE",
"201 659 LINE",
"441 659 LINE SMOOTH",
"516 659 OFFCURVE",
"525 567 OFFCURVE",
"528 527 CURVE",
"555 527 LINE",
"555 700 LINE",
"16 700 LINE",
"16 673 LINE",
"44 673 LINE SMOOTH",
"83 673 OFFCURVE",
"103 662 OFFCURVE",
"103 637 CURVE SMOOTH",
"103 62 LINE SMOOTH",
"103 37 OFFCURVE",
"83 26 OFFCURVE",
"44 26 CURVE SMOOTH",
"16 26 LINE",
"16 0 LINE"
);
},
{
closed = 1;
nodes = (
"455 251 LINE",
"455 485 LINE",
"431 485 LINE",
"427 436 OFFCURVE",
"424 388 OFFCURVE",
"379 388 CURVE SMOOTH",
"162 388 LINE",
"162 348 LINE",
"379 348 LINE SMOOTH",
"424 348 OFFCURVE",
"427 300 OFFCURVE",
"431 251 CURVE"
);
},
{
closed = 1;
nodes = (
"304 868 LINE SMOOTH",
"312 874 OFFCURVE",
"322 879 OFFCURVE",
"328 879 CURVE SMOOTH",
"334 879 OFFCURVE",
"342 874 OFFCURVE",
"351 868 CURVE",
"459 782 LINE",
"478 803 LINE",
"354 932 LINE",
"301 932 LINE",
"177 803 LINE",
"196 782 LINE"
);
}
);
};
components = (
{
name = E;
},
{
name = circumflexcomb;
transform = "{1, 0, 0, 1, 332, 230}";
}
);
layerId = "C1FA819C-E964-464A-9760-8985A4BBBA06";
width = 553;
},
{
components = (
{
name = E;
},
{
name = circumflexcomb;
transform = "{1, 0, 0, 1, 316, 230}";
}
);
layerId = "5A1050C4-4F08-4A6D-BA78-94A136104BF4";
width = 523;
},
{
background = {
paths = (
{
closed = 1;
nodes = (
"554 0 LINE",
"571 179 LINE",
"544 179 LINE",
"538 124 OFFCURVE",
"520 40 OFFCURVE",
"456 40 CURVE SMOOTH",
"201 40 LINE",
"201 659 LINE",
"441 659 LINE SMOOTH",
"516 659 OFFCURVE",
"525 567 OFFCURVE",
"528 527 CURVE",
"555 527 LINE",
"555 700 LINE",
"16 700 LINE",
"16 673 LINE",
"44 673 LINE SMOOTH",
"83 673 OFFCURVE",
"103 662 OFFCURVE",
"103 637 CURVE SMOOTH",
"103 62 LINE SMOOTH",
"103 37 OFFCURVE",
"83 26 OFFCURVE",
"44 26 CURVE SMOOTH",
"16 26 LINE",
"16 0 LINE"
);
},
{
closed = 1;
nodes = (
"455 251 LINE",
"455 485 LINE",
"431 485 LINE",
"427 436 OFFCURVE",
"424 388 OFFCURVE",
"379 388 CURVE SMOOTH",
"162 388 LINE",
"162 348 LINE",
"379 348 LINE SMOOTH",
"424 348 OFFCURVE",
"427 300 OFFCURVE",
"431 251 CURVE"
);
},
{
closed = 1;
nodes = (
"304 868 LINE SMOOTH",
"312 874 OFFCURVE",
"322 879 OFFCURVE",
"328 879 CURVE SMOOTH",
"334 879 OFFCURVE",
"342 874 OFFCURVE",
"351 868 CURVE",
"459 782 LINE",
"478 803 LINE",
"354 932 LINE",
"301 932 LINE",
"177 803 LINE",
"196 782 LINE"
);
}
);
};
components = (
{
name = E;
},
{
name = circumflexcomb;
transform = "{1, 0, 0, 1, 307, 230}";
}
);
layerId = "DD5BE8D6-EC3D-4275-AA48-09C9275F1F3A";
width = 509;
}
);
note = Ecircumflex;
rightKerningGroup = E;
unicode = 00CA;
},
{
glyphname = Ecircumflexacute;
lastChange = "2018-07-26 07:40:15 +0000";
layers = (
{
background = {
paths = (
{
closed = 1;
nodes = (
"554 0 LINE",
"571 179 LINE",
"544 179 LINE",
"538 124 OFFCURVE",
"520 40 OFFCURVE",
"456 40 CURVE SMOOTH",
"201 40 LINE",
"201 659 LINE",
"441 659 LINE SMOOTH",
"516 659 OFFCURVE",
"525 567 OFFCURVE",
"528 527 CURVE",
"555 527 LINE",
"555 700 LINE",
"16 700 LINE",
"16 673 LINE",
"44 673 LINE SMOOTH",
"83 673 OFFCURVE",
"103 662 OFFCURVE",
"103 637 CURVE SMOOTH",
"103 62 LINE SMOOTH",
"103 37 OFFCURVE",
"83 26 OFFCURVE",
"44 26 CURVE SMOOTH",
"16 26 LINE",
"16 0 LINE"
);
},
{
closed = 1;
nodes = (
"455 251 LINE",
"455 485 LINE",
"431 485 LINE",
"427 436 OFFCURVE",
"424 388 OFFCURVE",
"379 388 CURVE SMOOTH",
"162 388 LINE",
"162 348 LINE",
"379 348 LINE SMOOTH",
"424 348 OFFCURVE",
"427 300 OFFCURVE",
"431 251 CURVE"
);
},
{
closed = 1;
nodes = (
"290 862 LINE SMOOTH",
"300 870 OFFCURVE",
"310 878 OFFCURVE",
"318 878 CURVE SMOOTH",
"324 878 OFFCURVE",
"332 873 OFFCURVE",
"341 867 CURVE",
"447 781 LINE",
"466 803 LINE",
"344 932 LINE",
"293 932 LINE",
"171 803 LINE",
"189 781 LINE"
);
},
{
closed = 1;
nodes = (
"555 960 LINE SMOOTH",
"578 972 OFFCURVE",
"591 988 OFFCURVE",
"591 1003 CURVE SMOOTH",
"591 1017 OFFCURVE",
"580 1034 OFFCURVE",
"557 1034 CURVE SMOOTH",
"538 1034 OFFCURVE",
"521 1018 OFFCURVE",
"511 1008 CURVE SMOOTH",
"415 915 LINE",
"433 893 LINE"
);
}
);
};
components = (
{
name = E;
},
{
name = circumflex_acute;
transform = "{1, 0, 0, 1, 515, 230}";
}
);
layerId = "0B1DFD06-3317-40CA-B510-4969A0718C16";
width = 509;
},
{
background = {
paths = (
{
closed = 1;
nodes = (
"554 0 LINE",
"571 179 LINE",
"544 179 LINE",
"538 124 OFFCURVE",
"520 40 OFFCURVE",
"456 40 CURVE SMOOTH",
"201 40 LINE",
"201 659 LINE",
"441 659 LINE SMOOTH",
"516 659 OFFCURVE",
"525 567 OFFCURVE",
"528 527 CURVE",
"555 527 LINE",
"555 700 LINE",
"16 700 LINE",
"16 673 LINE",
"44 673 LINE SMOOTH",
"83 673 OFFCURVE",
"103 662 OFFCURVE",
"103 637 CURVE SMOOTH",
"103 62 LINE SMOOTH",
"103 37 OFFCURVE",
"83 26 OFFCURVE",
"44 26 CURVE SMOOTH",
"16 26 LINE",
"16 0 LINE"
);
},
{
closed = 1;
nodes = (
"455 251 LINE",
"455 485 LINE",
"431 485 LINE",
"427 436 OFFCURVE",
"424 388 OFFCURVE",
"379 388 CURVE SMOOTH",
"162 388 LINE",
"162 348 LINE",
"379 348 LINE SMOOTH",
"424 348 OFFCURVE",
"427 300 OFFCURVE",
"431 251 CURVE"
);
},
{
closed = 1;
nodes = (
"290 862 LINE SMOOTH",
"300 870 OFFCURVE",
"310 878 OFFCURVE",
"318 878 CURVE SMOOTH",
"324 878 OFFCURVE",
"332 873 OFFCURVE",
"341 867 CURVE",
"447 781 LINE",
"466 803 LINE",
"344 932 LINE",
"293 932 LINE",
"171 803 LINE",
"189 781 LINE"
);
},
{
closed = 1;
nodes = (
"555 960 LINE SMOOTH",
"578 972 OFFCURVE",
"591 988 OFFCURVE",
"591 1003 CURVE SMOOTH",
"591 1017 OFFCURVE",
"580 1034 OFFCURVE",
"557 1034 CURVE SMOOTH",
"538 1034 OFFCURVE",
"521 1018 OFFCURVE",
"511 1008 CURVE SMOOTH",
"415 915 LINE",
"433 893 LINE"
);
}
);
};
components = (
{
name = E;
},
{
name = circumflex_acute;
transform = "{1, 0, 0, 1, 539, 230}";
}
);
layerId = "39D19F74-97F3-4EB6-8D96-77117D45ABB1";
width = 553;
},
{
components = (
{
name = E;
},
{
name = circumflex_acute;
transform = "{1, 0, 0, 1, 523, 230}";
}
);
layerId = "62D79BA8-865E-4B23-88DF-F495C1A196AD";
width = 523;
},
{
background = {
paths = (
{
closed = 1;
nodes = (
"554 0 LINE",
"571 179 LINE",
"544 179 LINE",
"538 124 OFFCURVE",
"520 40 OFFCURVE",
"456 40 CURVE SMOOTH",
"201 40 LINE",
"201 659 LINE",
"441 659 LINE SMOOTH",
"516 659 OFFCURVE",
"525 567 OFFCURVE",
"528 527 CURVE",
"555 527 LINE",
"555 700 LINE",
"16 700 LINE",
"16 673 LINE",
"44 673 LINE SMOOTH",
"83 673 OFFCURVE",
"103 662 OFFCURVE",
"103 637 CURVE SMOOTH",
"103 62 LINE SMOOTH",
"103 37 OFFCURVE",
"83 26 OFFCURVE",
"44 26 CURVE SMOOTH",
"16 26 LINE",
"16 0 LINE"
);
},
{
closed = 1;
nodes = (
"455 251 LINE",
"455 485 LINE",
"431 485 LINE",
"427 436 OFFCURVE",
"424 388 OFFCURVE",
"379 388 CURVE SMOOTH",
"162 388 LINE",
"162 348 LINE",
"379 348 LINE SMOOTH",
"424 348 OFFCURVE",
"427 300 OFFCURVE",
"431 251 CURVE"
);
},
{
closed = 1;
nodes = (
"290 862 LINE SMOOTH",
"300 870 OFFCURVE",
"310 878 OFFCURVE",
"318 878 CURVE SMOOTH",
"324 878 OFFCURVE",
"332 873 OFFCURVE",
"341 867 CURVE",
"447 781 LINE",
"466 803 LINE",
"344 932 LINE",
"293 932 LINE",
"171 803 LINE",
"189 781 LINE"
);
},
{
closed = 1;
nodes = (
"555 960 LINE SMOOTH",
"578 972 OFFCURVE",
"591 988 OFFCURVE",
"591 1003 CURVE SMOOTH",
"591 1017 OFFCURVE",
"580 1034 OFFCURVE",
"557 1034 CURVE SMOOTH",
"538 1034 OFFCURVE",
"521 1018 OFFCURVE",
"511 1008 CURVE SMOOTH",
"415 915 LINE",
"433 893 LINE"
);
}
);
};
components = (
{
name = E;
},
{
name = circumflex_acute;
transform = "{1, 0, 0, 1, 581, 230}";
}
);
layerId = "C1FA819C-E964-464A-9760-8985A4BBBA06";
width = 553;
},
{
components = (
{
name = E;
},
{
name = circumflex_acute;
transform = "{1, 0, 0, 1, 565, 230}";
}
);
layerId = "5A1050C4-4F08-4A6D-BA78-94A136104BF4";
width = 523;
},
{
background = {
paths = (
{
closed = 1;
nodes = (
"554 0 LINE",
"571 179 LINE",
"544 179 LINE",
"538 124 OFFCURVE",
"520 40 OFFCURVE",
"456 40 CURVE SMOOTH",
"201 40 LINE",
"201 659 LINE",
"441 659 LINE SMOOTH",
"516 659 OFFCURVE",
"525 567 OFFCURVE",
"528 527 CURVE",
"555 527 LINE",
"555 700 LINE",
"16 700 LINE",
"16 673 LINE",
"44 673 LINE SMOOTH",
"83 673 OFFCURVE",
"103 662 OFFCURVE",
"103 637 CURVE SMOOTH",
"103 62 LINE SMOOTH",
"103 37 OFFCURVE",
"83 26 OFFCURVE",
"44 26 CURVE SMOOTH",
"16 26 LINE",
"16 0 LINE"
);
},
{
closed = 1;
nodes = (
"455 251 LINE",
"455 485 LINE",
"431 485 LINE",
"427 436 OFFCURVE",
"424 388 OFFCURVE",
"379 388 CURVE SMOOTH",
"162 388 LINE",
"162 348 LINE",
"379 348 LINE SMOOTH",
"424 348 OFFCURVE",
"427 300 OFFCURVE",
"431 251 CURVE"
);
},
{
closed = 1;
nodes = (
"290 862 LINE SMOOTH",
"300 870 OFFCURVE",
"310 878 OFFCURVE",
"318 878 CURVE SMOOTH",
"324 878 OFFCURVE",
"332 873 OFFCURVE",
"341 867 CURVE",
"447 781 LINE",
"466 803 LINE",
"344 932 LINE",
"293 932 LINE",
"171 803 LINE",
"189 781 LINE"
);
},
{
closed = 1;
nodes = (
"555 960 LINE SMOOTH",
"578 972 OFFCURVE",
"591 988 OFFCURVE",
"591 1003 CURVE SMOOTH",
"591 1017 OFFCURVE",
"580 1034 OFFCURVE",
"557 1034 CURVE SMOOTH",
"538 1034 OFFCURVE",
"521 1018 OFFCURVE",
"511 1008 CURVE SMOOTH",
"415 915 LINE",
"433 893 LINE"
);
}
);
};
components = (
{
name = E;
},
{
name = circumflex_acute;
transform = "{1, 0, 0, 1, 556, 230}";
}
);
layerId = "DD5BE8D6-EC3D-4275-AA48-09C9275F1F3A";
width = 509;
}
);
note = Ecircumflexacute;
rightKerningGroup = E;
unicode = 1EBE;
},
{
glyphname = Ecircumflexdotbelow;
lastChange = "2018-07-26 07:40:15 +0000";
layers = (
{
background = {
paths = (
{
closed = 1;
nodes = (
"554 0 LINE",
"571 179 LINE",
"544 179 LINE",
"538 124 OFFCURVE",
"520 40 OFFCURVE",
"456 40 CURVE SMOOTH",
"201 40 LINE",
"201 659 LINE",
"441 659 LINE SMOOTH",
"516 659 OFFCURVE",
"525 567 OFFCURVE",
"528 527 CURVE",
"555 527 LINE",
"555 700 LINE",
"16 700 LINE",
"16 673 LINE",
"44 673 LINE SMOOTH",
"83 673 OFFCURVE",
"103 662 OFFCURVE",
"103 637 CURVE SMOOTH",
"103 62 LINE SMOOTH",
"103 37 OFFCURVE",
"83 26 OFFCURVE",
"44 26 CURVE SMOOTH",
"16 26 LINE",
"16 0 LINE"
);
},
{
closed = 1;
nodes = (
"350 -159 OFFCURVE",
"368 -140 OFFCURVE",
"368 -112 CURVE SMOOTH",
"368 -84 OFFCURVE",
"350 -64 OFFCURVE",
"322 -64 CURVE SMOOTH",
"294 -64 OFFCURVE",
"275 -84 OFFCURVE",
"275 -112 CURVE SMOOTH",
"275 -140 OFFCURVE",
"294 -159 OFFCURVE",
"322 -159 CURVE SMOOTH"
);
},
{
closed = 1;
nodes = (
"455 251 LINE",
"455 485 LINE",
"431 485 LINE",
"427 436 OFFCURVE",
"424 388 OFFCURVE",
"379 388 CURVE SMOOTH",
"162 388 LINE",
"162 348 LINE",
"379 348 LINE SMOOTH",
"424 348 OFFCURVE",
"427 300 OFFCURVE",
"431 251 CURVE"
);
},
{
closed = 1;
nodes = (
"294 868 LINE SMOOTH",
"302 874 OFFCURVE",
"312 879 OFFCURVE",
"318 879 CURVE SMOOTH",
"324 879 OFFCURVE",
"332 874 OFFCURVE",
"341 868 CURVE",
"449 782 LINE",
"468 803 LINE",
"344 932 LINE",
"291 932 LINE",
"167 803 LINE",
"186 782 LINE"
);
}
);
};
components = (
{
name = E;
},
{
name = dotbelowcomb;
transform = "{1, 0, 0, 1, 266, 0}";
},
{
name = circumflexcomb;
transform = "{1, 0, 0, 1, 266, 230}";
}
);
layerId = "0B1DFD06-3317-40CA-B510-4969A0718C16";
width = 509;
},
{
background = {
paths = (
{
closed = 1;
nodes = (
"554 0 LINE",
"571 179 LINE",
"544 179 LINE",
"538 124 OFFCURVE",
"520 40 OFFCURVE",
"456 40 CURVE SMOOTH",
"201 40 LINE",
"201 659 LINE",
"441 659 LINE SMOOTH",
"516 659 OFFCURVE",
"525 567 OFFCURVE",
"528 527 CURVE",
"555 527 LINE",
"555 700 LINE",
"16 700 LINE",
"16 673 LINE",
"44 673 LINE SMOOTH",
"83 673 OFFCURVE",
"103 662 OFFCURVE",
"103 637 CURVE SMOOTH",
"103 62 LINE SMOOTH",
"103 37 OFFCURVE",
"83 26 OFFCURVE",
"44 26 CURVE SMOOTH",
"16 26 LINE",
"16 0 LINE"
);
},
{
closed = 1;
nodes = (
"350 -159 OFFCURVE",
"368 -140 OFFCURVE",
"368 -112 CURVE SMOOTH",
"368 -84 OFFCURVE",
"350 -64 OFFCURVE",
"322 -64 CURVE SMOOTH",
"294 -64 OFFCURVE",
"275 -84 OFFCURVE",
"275 -112 CURVE SMOOTH",
"275 -140 OFFCURVE",
"294 -159 OFFCURVE",
"322 -159 CURVE SMOOTH"
);
},
{
closed = 1;
nodes = (
"455 251 LINE",
"455 485 LINE",
"431 485 LINE",
"427 436 OFFCURVE",
"424 388 OFFCURVE",
"379 388 CURVE SMOOTH",
"162 388 LINE",
"162 348 LINE",
"379 348 LINE SMOOTH",
"424 348 OFFCURVE",
"427 300 OFFCURVE",
"431 251 CURVE"
);
},
{
closed = 1;
nodes = (
"294 868 LINE SMOOTH",
"302 874 OFFCURVE",
"312 879 OFFCURVE",
"318 879 CURVE SMOOTH",
"324 879 OFFCURVE",
"332 874 OFFCURVE",
"341 868 CURVE",
"449 782 LINE",
"468 803 LINE",
"344 932 LINE",
"291 932 LINE",
"167 803 LINE",
"186 782 LINE"
);
}
);
};
components = (
{
name = E;
},
{
name = dotbelowcomb;
transform = "{1, 0, 0, 1, 290, -30}";
},
{
name = circumflexcomb;
transform = "{1, 0, 0, 1, 290, 230}";
}
);
layerId = "39D19F74-97F3-4EB6-8D96-77117D45ABB1";
width = 553;
},
{
components = (
{
name = E;
},
{
name = dotbelowcomb;
transform = "{1, 0, 0, 1, 274, -12}";
},
{
name = circumflexcomb;
transform = "{1, 0, 0, 1, 274, 230}";
}
);
layerId = "62D79BA8-865E-4B23-88DF-F495C1A196AD";
width = 523;
},
{
background = {
paths = (
{
closed = 1;
nodes = (
"554 0 LINE",
"571 179 LINE",
"544 179 LINE",
"538 124 OFFCURVE",
"520 40 OFFCURVE",
"456 40 CURVE SMOOTH",
"201 40 LINE",
"201 659 LINE",
"441 659 LINE SMOOTH",
"516 659 OFFCURVE",
"525 567 OFFCURVE",
"528 527 CURVE",
"555 527 LINE",
"555 700 LINE",
"16 700 LINE",
"16 673 LINE",
"44 673 LINE SMOOTH",
"83 673 OFFCURVE",
"103 662 OFFCURVE",
"103 637 CURVE SMOOTH",
"103 62 LINE SMOOTH",
"103 37 OFFCURVE",
"83 26 OFFCURVE",
"44 26 CURVE SMOOTH",
"16 26 LINE",
"16 0 LINE"
);
},
{
closed = 1;
nodes = (
"350 -159 OFFCURVE",
"368 -140 OFFCURVE",
"368 -112 CURVE SMOOTH",
"368 -84 OFFCURVE",
"350 -64 OFFCURVE",
"322 -64 CURVE SMOOTH",
"294 -64 OFFCURVE",
"275 -84 OFFCURVE",
"275 -112 CURVE SMOOTH",
"275 -140 OFFCURVE",
"294 -159 OFFCURVE",
"322 -159 CURVE SMOOTH"
);
},
{
closed = 1;
nodes = (
"455 251 LINE",
"455 485 LINE",
"431 485 LINE",
"427 436 OFFCURVE",
"424 388 OFFCURVE",
"379 388 CURVE SMOOTH",
"162 388 LINE",
"162 348 LINE",
"379 348 LINE SMOOTH",
"424 348 OFFCURVE",
"427 300 OFFCURVE",
"431 251 CURVE"
);
},
{
closed = 1;
nodes = (
"294 868 LINE SMOOTH",
"302 874 OFFCURVE",
"312 879 OFFCURVE",
"318 879 CURVE SMOOTH",
"324 879 OFFCURVE",
"332 874 OFFCURVE",
"341 868 CURVE",
"449 782 LINE",
"468 803 LINE",
"344 932 LINE",
"291 932 LINE",
"167 803 LINE",
"186 782 LINE"
);
}
);
};
components = (
{
name = E;
},
{
name = dotbelowcomb;
transform = "{1, 0, 0, 1, 287, -30}";
},
{
name = circumflexcomb;
transform = "{1, 0, 0, 1, 332, 230}";
}
);
layerId = "C1FA819C-E964-464A-9760-8985A4BBBA06";
width = 553;
},
{
components = (
{
name = E;
},
{
name = dotbelowcomb;
transform = "{1, 0, 0, 1, 274, -12}";
},
{
name = circumflexcomb;
transform = "{1, 0, 0, 1, 316, 230}";
}
);
layerId = "5A1050C4-4F08-4A6D-BA78-94A136104BF4";
width = 523;
},
{
background = {
paths = (
{
closed = 1;
nodes = (
"554 0 LINE",
"571 179 LINE",
"544 179 LINE",
"538 124 OFFCURVE",
"520 40 OFFCURVE",
"456 40 CURVE SMOOTH",
"201 40 LINE",
"201 659 LINE",
"441 659 LINE SMOOTH",
"516 659 OFFCURVE",
"525 567 OFFCURVE",
"528 527 CURVE",
"555 527 LINE",
"555 700 LINE",
"16 700 LINE",
"16 673 LINE",
"44 673 LINE SMOOTH",
"83 673 OFFCURVE",
"103 662 OFFCURVE",
"103 637 CURVE SMOOTH",
"103 62 LINE SMOOTH",
"103 37 OFFCURVE",
"83 26 OFFCURVE",
"44 26 CURVE SMOOTH",
"16 26 LINE",
"16 0 LINE"
);
},
{
closed = 1;
nodes = (
"350 -159 OFFCURVE",
"368 -140 OFFCURVE",
"368 -112 CURVE SMOOTH",
"368 -84 OFFCURVE",
"350 -64 OFFCURVE",
"322 -64 CURVE SMOOTH",
"294 -64 OFFCURVE",
"275 -84 OFFCURVE",
"275 -112 CURVE SMOOTH",
"275 -140 OFFCURVE",
"294 -159 OFFCURVE",
"322 -159 CURVE SMOOTH"
);
},
{
closed = 1;
nodes = (
"455 251 LINE",
"455 485 LINE",
"431 485 LINE",
"427 436 OFFCURVE",
"424 388 OFFCURVE",
"379 388 CURVE SMOOTH",
"162 388 LINE",
"162 348 LINE",
"379 348 LINE SMOOTH",
"424 348 OFFCURVE",
"427 300 OFFCURVE",
"431 251 CURVE"
);
},
{
closed = 1;
nodes = (
"294 868 LINE SMOOTH",
"302 874 OFFCURVE",
"312 879 OFFCURVE",
"318 879 CURVE SMOOTH",
"324 879 OFFCURVE",
"332 874 OFFCURVE",
"341 868 CURVE",
"449 782 LINE",
"468 803 LINE",
"344 932 LINE",
"291 932 LINE",
"167 803 LINE",
"186 782 LINE"
);
}
);
};
components = (
{
name = E;
},
{
name = dotbelowcomb;
transform = "{1, 0, 0, 1, 267, 0}";
},
{
name = circumflexcomb;
transform = "{1, 0, 0, 1, 307, 230}";
}
);
layerId = "DD5BE8D6-EC3D-4275-AA48-09C9275F1F3A";
width = 509;
}
);
note = Ecircumflexdotbelow;
rightKerningGroup = E;
unicode = 1EC6;
},
{
glyphname = Ecircumflexgrave;
lastChange = "2018-07-26 07:40:16 +0000";
layers = (
{
background = {
paths = (
{
closed = 1;
nodes = (
"554 0 LINE",
"571 179 LINE",
"544 179 LINE",
"538 124 OFFCURVE",
"520 40 OFFCURVE",
"456 40 CURVE SMOOTH",
"201 40 LINE",
"201 659 LINE",
"441 659 LINE SMOOTH",
"516 659 OFFCURVE",
"525 567 OFFCURVE",
"528 527 CURVE",
"555 527 LINE",
"555 700 LINE",
"16 700 LINE",
"16 673 LINE",
"44 673 LINE SMOOTH",
"83 673 OFFCURVE",
"103 662 OFFCURVE",
"103 637 CURVE SMOOTH",
"103 62 LINE SMOOTH",
"103 37 OFFCURVE",
"83 26 OFFCURVE",
"44 26 CURVE SMOOTH",
"16 26 LINE",
"16 0 LINE"
);
},
{
closed = 1;
nodes = (
"455 251 LINE",
"455 485 LINE",
"431 485 LINE",
"427 436 OFFCURVE",
"424 388 OFFCURVE",
"379 388 CURVE SMOOTH",
"162 388 LINE",
"162 348 LINE",
"379 348 LINE SMOOTH",
"424 348 OFFCURVE",
"427 300 OFFCURVE",
"431 251 CURVE"
);
},
{
closed = 1;
nodes = (
"227 915 LINE",
"132 1008 LINE SMOOTH",
"122 1018 OFFCURVE",
"105 1034 OFFCURVE",
"85 1034 CURVE SMOOTH",
"63 1034 OFFCURVE",
"52 1017 OFFCURVE",
"52 1003 CURVE SMOOTH",
"52 988 OFFCURVE",
"65 972 OFFCURVE",
"88 960 CURVE SMOOTH",
"210 893 LINE"
);
},
{
closed = 1;
nodes = (
"290 862 LINE SMOOTH",
"300 870 OFFCURVE",
"310 878 OFFCURVE",
"318 878 CURVE SMOOTH",
"324 878 OFFCURVE",
"332 873 OFFCURVE",
"341 867 CURVE",
"447 781 LINE",
"466 803 LINE",
"344 932 LINE",
"293 932 LINE",
"171 803 LINE",
"189 781 LINE"
);
}
);
};
components = (
{
name = E;
},
{
name = circumflex_grave;
transform = "{1, 0, 0, 1, 515, 230}";
}
);
layerId = "0B1DFD06-3317-40CA-B510-4969A0718C16";
width = 509;
},
{
background = {
paths = (
{
closed = 1;
nodes = (
"554 0 LINE",
"571 179 LINE",
"544 179 LINE",
"538 124 OFFCURVE",
"520 40 OFFCURVE",
"456 40 CURVE SMOOTH",
"201 40 LINE",
"201 659 LINE",
"441 659 LINE SMOOTH",
"516 659 OFFCURVE",
"525 567 OFFCURVE",
"528 527 CURVE",
"555 527 LINE",
"555 700 LINE",
"16 700 LINE",
"16 673 LINE",
"44 673 LINE SMOOTH",
"83 673 OFFCURVE",
"103 662 OFFCURVE",
"103 637 CURVE SMOOTH",
"103 62 LINE SMOOTH",
"103 37 OFFCURVE",
"83 26 OFFCURVE",
"44 26 CURVE SMOOTH",
"16 26 LINE",
"16 0 LINE"
);
},
{
closed = 1;
nodes = (
"455 251 LINE",
"455 485 LINE",
"431 485 LINE",
"427 436 OFFCURVE",
"424 388 OFFCURVE",
"379 388 CURVE SMOOTH",
"162 388 LINE",
"162 348 LINE",
"379 348 LINE SMOOTH",
"424 348 OFFCURVE",
"427 300 OFFCURVE",
"431 251 CURVE"
);
},
{
closed = 1;
nodes = (
"227 915 LINE",
"132 1008 LINE SMOOTH",
"122 1018 OFFCURVE",
"105 1034 OFFCURVE",
"85 1034 CURVE SMOOTH",
"63 1034 OFFCURVE",
"52 1017 OFFCURVE",
"52 1003 CURVE SMOOTH",
"52 988 OFFCURVE",
"65 972 OFFCURVE",
"88 960 CURVE SMOOTH",
"210 893 LINE"
);
},
{
closed = 1;
nodes = (
"290 862 LINE SMOOTH",
"300 870 OFFCURVE",
"310 878 OFFCURVE",
"318 878 CURVE SMOOTH",
"324 878 OFFCURVE",
"332 873 OFFCURVE",
"341 867 CURVE",
"447 781 LINE",
"466 803 LINE",
"344 932 LINE",
"293 932 LINE",
"171 803 LINE",
"189 781 LINE"
);
}
);
};
components = (
{
name = E;
},
{
name = circumflex_grave;
transform = "{1, 0, 0, 1, 539, 230}";
}
);
layerId = "39D19F74-97F3-4EB6-8D96-77117D45ABB1";
width = 553;
},
{
components = (
{
name = E;
},
{
name = circumflex_grave;
transform = "{1, 0, 0, 1, 523, 230}";
}
);
layerId = "62D79BA8-865E-4B23-88DF-F495C1A196AD";
width = 523;
},
{
background = {
paths = (
{
closed = 1;
nodes = (
"554 0 LINE",
"571 179 LINE",
"544 179 LINE",
"538 124 OFFCURVE",
"520 40 OFFCURVE",
"456 40 CURVE SMOOTH",
"201 40 LINE",
"201 659 LINE",
"441 659 LINE SMOOTH",
"516 659 OFFCURVE",
"525 567 OFFCURVE",
"528 527 CURVE",
"555 527 LINE",
"555 700 LINE",
"16 700 LINE",
"16 673 LINE",
"44 673 LINE SMOOTH",
"83 673 OFFCURVE",
"103 662 OFFCURVE",
"103 637 CURVE SMOOTH",
"103 62 LINE SMOOTH",
"103 37 OFFCURVE",
"83 26 OFFCURVE",
"44 26 CURVE SMOOTH",
"16 26 LINE",
"16 0 LINE"
);
},
{
closed = 1;
nodes = (
"455 251 LINE",
"455 485 LINE",
"431 485 LINE",
"427 436 OFFCURVE",
"424 388 OFFCURVE",
"379 388 CURVE SMOOTH",
"162 388 LINE",
"162 348 LINE",
"379 348 LINE SMOOTH",
"424 348 OFFCURVE",
"427 300 OFFCURVE",
"431 251 CURVE"
);
},
{
closed = 1;
nodes = (
"227 915 LINE",
"132 1008 LINE SMOOTH",
"122 1018 OFFCURVE",
"105 1034 OFFCURVE",
"85 1034 CURVE SMOOTH",
"63 1034 OFFCURVE",
"52 1017 OFFCURVE",
"52 1003 CURVE SMOOTH",
"52 988 OFFCURVE",
"65 972 OFFCURVE",
"88 960 CURVE SMOOTH",
"210 893 LINE"
);
},
{
closed = 1;
nodes = (
"290 862 LINE SMOOTH",
"300 870 OFFCURVE",
"310 878 OFFCURVE",
"318 878 CURVE SMOOTH",
"324 878 OFFCURVE",
"332 873 OFFCURVE",
"341 867 CURVE",
"447 781 LINE",
"466 803 LINE",
"344 932 LINE",
"293 932 LINE",
"171 803 LINE",
"189 781 LINE"
);
}
);
};
components = (
{
name = E;
},
{
name = circumflex_grave;
transform = "{1, 0, 0, 1, 581, 230}";
}
);
layerId = "C1FA819C-E964-464A-9760-8985A4BBBA06";
width = 553;
},
{
components = (
{
name = E;
},
{
name = circumflex_grave;
transform = "{1, 0, 0, 1, 565, 230}";
}
);
layerId = "5A1050C4-4F08-4A6D-BA78-94A136104BF4";
width = 523;
},
{
background = {
paths = (
{
closed = 1;
nodes = (
"554 0 LINE",
"571 179 LINE",
"544 179 LINE",
"538 124 OFFCURVE",
"520 40 OFFCURVE",
"456 40 CURVE SMOOTH",
"201 40 LINE",
"201 659 LINE",
"441 659 LINE SMOOTH",
"516 659 OFFCURVE",
"525 567 OFFCURVE",
"528 527 CURVE",
"555 527 LINE",
"555 700 LINE",
"16 700 LINE",
"16 673 LINE",
"44 673 LINE SMOOTH",
"83 673 OFFCURVE",
"103 662 OFFCURVE",
"103 637 CURVE SMOOTH",
"103 62 LINE SMOOTH",
"103 37 OFFCURVE",
"83 26 OFFCURVE",
"44 26 CURVE SMOOTH",
"16 26 LINE",
"16 0 LINE"
);
},
{
closed = 1;
nodes = (
"455 251 LINE",
"455 485 LINE",
"431 485 LINE",
"427 436 OFFCURVE",
"424 388 OFFCURVE",
"379 388 CURVE SMOOTH",
"162 388 LINE",
"162 348 LINE",
"379 348 LINE SMOOTH",
"424 348 OFFCURVE",
"427 300 OFFCURVE",
"431 251 CURVE"
);
},
{
closed = 1;
nodes = (
"227 915 LINE",
"132 1008 LINE SMOOTH",
"122 1018 OFFCURVE",
"105 1034 OFFCURVE",
"85 1034 CURVE SMOOTH",
"63 1034 OFFCURVE",
"52 1017 OFFCURVE",
"52 1003 CURVE SMOOTH",
"52 988 OFFCURVE",
"65 972 OFFCURVE",
"88 960 CURVE SMOOTH",
"210 893 LINE"
);
},
{
closed = 1;
nodes = (
"290 862 LINE SMOOTH",
"300 870 OFFCURVE",
"310 878 OFFCURVE",
"318 878 CURVE SMOOTH",
"324 878 OFFCURVE",
"332 873 OFFCURVE",
"341 867 CURVE",
"447 781 LINE",
"466 803 LINE",
"344 932 LINE",
"293 932 LINE",
"171 803 LINE",
"189 781 LINE"
);
}
);
};
components = (
{
name = E;
},
{
name = circumflex_grave;
transform = "{1, 0, 0, 1, 556, 230}";
}
);
layerId = "DD5BE8D6-EC3D-4275-AA48-09C9275F1F3A";
width = 509;
}
);
note = Ecircumflexgrave;
rightKerningGroup = E;
unicode = 1EC0;
},
{
glyphname = Ecircumflexhookabove;
lastChange = "2018-07-26 07:40:17 +0000";
layers = (
{
background = {
paths = (
{
closed = 1;
nodes = (
"554 0 LINE",
"571 179 LINE",
"544 179 LINE",
"538 124 OFFCURVE",
"520 40 OFFCURVE",
"456 40 CURVE SMOOTH",
"201 40 LINE",
"201 659 LINE",
"441 659 LINE SMOOTH",
"516 659 OFFCURVE",
"525 567 OFFCURVE",
"528 527 CURVE",
"555 527 LINE",
"555 700 LINE",
"16 700 LINE",
"16 673 LINE",
"44 673 LINE SMOOTH",
"83 673 OFFCURVE",
"103 662 OFFCURVE",
"103 637 CURVE SMOOTH",
"103 62 LINE SMOOTH",
"103 37 OFFCURVE",
"83 26 OFFCURVE",
"44 26 CURVE SMOOTH",
"16 26 LINE",
"16 0 LINE"
);
},
{
closed = 1;
nodes = (
"455 251 LINE",
"455 485 LINE",
"431 485 LINE",
"427 436 OFFCURVE",
"424 388 OFFCURVE",
"379 388 CURVE SMOOTH",
"162 388 LINE",
"162 348 LINE",
"379 348 LINE SMOOTH",
"424 348 OFFCURVE",
"427 300 OFFCURVE",
"431 251 CURVE"
);
},
{
closed = 1;
nodes = (
"286 858 LINE",
"297 868 OFFCURVE",
"309 878 OFFCURVE",
"318 878 CURVE SMOOTH",
"324 878 OFFCURVE",
"332 873 OFFCURVE",
"341 867 CURVE",
"447 781 LINE",
"466 803 LINE",
"344 932 LINE",
"293 932 LINE",
"171 803 LINE",
"189 781 LINE"
);
},
{
closed = 1;
nodes = (
"493 898 LINE",
"474 905 OFFCURVE",
"464 912 OFFCURVE",
"464 926 CURVE SMOOTH",
"464 954 OFFCURVE",
"544 965 OFFCURVE",
"544 1010 CURVE SMOOTH",
"544 1047 OFFCURVE",
"502 1063 OFFCURVE",
"460 1063 CURVE SMOOTH",
"429 1063 OFFCURVE",
"384 1053 OFFCURVE",
"384 1022 CURVE SMOOTH",
"384 1010 OFFCURVE",
"395 1001 OFFCURVE",
"405 1001 CURVE SMOOTH",
"434 1001 OFFCURVE",
"421 1040 OFFCURVE",
"464 1040 CURVE SMOOTH",
"483 1040 OFFCURVE",
"494 1028 OFFCURVE",
"494 1013 CURVE SMOOTH",
"494 973 OFFCURVE",
"421 965 OFFCURVE",
"421 925 CURVE SMOOTH",
"421 901 OFFCURVE",
"437 880 OFFCURVE",
"484 880 CURVE"
);
}
);
};
components = (
{
name = E;
},
{
name = circumflex_hookabove;
transform = "{1, 0, 0, 1, 515, 230}";
}
);
layerId = "0B1DFD06-3317-40CA-B510-4969A0718C16";
width = 509;
},
{
background = {
paths = (
{
closed = 1;
nodes = (
"554 0 LINE",
"571 179 LINE",
"544 179 LINE",
"538 124 OFFCURVE",
"520 40 OFFCURVE",
"456 40 CURVE SMOOTH",
"201 40 LINE",
"201 659 LINE",
"441 659 LINE SMOOTH",
"516 659 OFFCURVE",
"525 567 OFFCURVE",
"528 527 CURVE",
"555 527 LINE",
"555 700 LINE",
"16 700 LINE",
"16 673 LINE",
"44 673 LINE SMOOTH",
"83 673 OFFCURVE",
"103 662 OFFCURVE",
"103 637 CURVE SMOOTH",
"103 62 LINE SMOOTH",
"103 37 OFFCURVE",
"83 26 OFFCURVE",
"44 26 CURVE SMOOTH",
"16 26 LINE",
"16 0 LINE"
);
},
{
closed = 1;
nodes = (
"455 251 LINE",
"455 485 LINE",
"431 485 LINE",
"427 436 OFFCURVE",
"424 388 OFFCURVE",
"379 388 CURVE SMOOTH",
"162 388 LINE",
"162 348 LINE",
"379 348 LINE SMOOTH",
"424 348 OFFCURVE",
"427 300 OFFCURVE",
"431 251 CURVE"
);
},
{
closed = 1;
nodes = (
"286 858 LINE",
"297 868 OFFCURVE",
"309 878 OFFCURVE",
"318 878 CURVE SMOOTH",
"324 878 OFFCURVE",
"332 873 OFFCURVE",
"341 867 CURVE",
"447 781 LINE",
"466 803 LINE",
"344 932 LINE",
"293 932 LINE",
"171 803 LINE",
"189 781 LINE"
);
},
{
closed = 1;
nodes = (
"493 898 LINE",
"474 905 OFFCURVE",
"464 912 OFFCURVE",
"464 926 CURVE SMOOTH",
"464 954 OFFCURVE",
"544 965 OFFCURVE",
"544 1010 CURVE SMOOTH",
"544 1047 OFFCURVE",
"502 1063 OFFCURVE",
"460 1063 CURVE SMOOTH",
"429 1063 OFFCURVE",
"384 1053 OFFCURVE",
"384 1022 CURVE SMOOTH",
"384 1010 OFFCURVE",
"395 1001 OFFCURVE",
"405 1001 CURVE SMOOTH",
"434 1001 OFFCURVE",
"421 1040 OFFCURVE",
"464 1040 CURVE SMOOTH",
"483 1040 OFFCURVE",
"494 1028 OFFCURVE",
"494 1013 CURVE SMOOTH",
"494 973 OFFCURVE",
"421 965 OFFCURVE",
"421 925 CURVE SMOOTH",
"421 901 OFFCURVE",
"437 880 OFFCURVE",
"484 880 CURVE"
);
}
);
};
components = (
{
name = E;
},
{
name = circumflex_hookabove;
transform = "{1, 0, 0, 1, 539, 230}";
}
);
layerId = "39D19F74-97F3-4EB6-8D96-77117D45ABB1";
width = 553;
},
{
components = (
{
name = E;
},
{
name = circumflex_hookabove;
transform = "{1, 0, 0, 1, 523, 230}";
}
);
layerId = "62D79BA8-865E-4B23-88DF-F495C1A196AD";
width = 523;
},
{
background = {
paths = (
{
closed = 1;
nodes = (
"554 0 LINE",
"571 179 LINE",
"544 179 LINE",
"538 124 OFFCURVE",
"520 40 OFFCURVE",
"456 40 CURVE SMOOTH",
"201 40 LINE",
"201 659 LINE",
"441 659 LINE SMOOTH",
"516 659 OFFCURVE",
"525 567 OFFCURVE",
"528 527 CURVE",
"555 527 LINE",
"555 700 LINE",
"16 700 LINE",
"16 673 LINE",
"44 673 LINE SMOOTH",
"83 673 OFFCURVE",
"103 662 OFFCURVE",
"103 637 CURVE SMOOTH",
"103 62 LINE SMOOTH",
"103 37 OFFCURVE",
"83 26 OFFCURVE",
"44 26 CURVE SMOOTH",
"16 26 LINE",
"16 0 LINE"
);
},
{
closed = 1;
nodes = (
"455 251 LINE",
"455 485 LINE",
"431 485 LINE",
"427 436 OFFCURVE",
"424 388 OFFCURVE",
"379 388 CURVE SMOOTH",
"162 388 LINE",
"162 348 LINE",
"379 348 LINE SMOOTH",
"424 348 OFFCURVE",
"427 300 OFFCURVE",
"431 251 CURVE"
);
},
{
closed = 1;
nodes = (
"286 858 LINE",
"297 868 OFFCURVE",
"309 878 OFFCURVE",
"318 878 CURVE SMOOTH",
"324 878 OFFCURVE",
"332 873 OFFCURVE",
"341 867 CURVE",
"447 781 LINE",
"466 803 LINE",
"344 932 LINE",
"293 932 LINE",
"171 803 LINE",
"189 781 LINE"
);
},
{
closed = 1;
nodes = (
"493 898 LINE",
"474 905 OFFCURVE",
"464 912 OFFCURVE",
"464 926 CURVE SMOOTH",
"464 954 OFFCURVE",
"544 965 OFFCURVE",
"544 1010 CURVE SMOOTH",
"544 1047 OFFCURVE",
"502 1063 OFFCURVE",
"460 1063 CURVE SMOOTH",
"429 1063 OFFCURVE",
"384 1053 OFFCURVE",
"384 1022 CURVE SMOOTH",
"384 1010 OFFCURVE",
"395 1001 OFFCURVE",
"405 1001 CURVE SMOOTH",
"434 1001 OFFCURVE",
"421 1040 OFFCURVE",
"464 1040 CURVE SMOOTH",
"483 1040 OFFCURVE",
"494 1028 OFFCURVE",
"494 1013 CURVE SMOOTH",
"494 973 OFFCURVE",
"421 965 OFFCURVE",
"421 925 CURVE SMOOTH",
"421 901 OFFCURVE",
"437 880 OFFCURVE",
"484 880 CURVE"
);
}
);
};
components = (
{
name = E;
},
{
name = circumflex_hookabove;
transform = "{1, 0, 0, 1, 581, 230}";
}
);
layerId = "C1FA819C-E964-464A-9760-8985A4BBBA06";
width = 553;
},
{
components = (
{
name = E;
},
{
name = circumflex_hookabove;
transform = "{1, 0, 0, 1, 565, 230}";
}
);
layerId = "5A1050C4-4F08-4A6D-BA78-94A136104BF4";
width = 523;
},
{
background = {
paths = (
{
closed = 1;
nodes = (
"554 0 LINE",
"571 179 LINE",
"544 179 LINE",
"538 124 OFFCURVE",
"520 40 OFFCURVE",
"456 40 CURVE SMOOTH",
"201 40 LINE",
"201 659 LINE",
"441 659 LINE SMOOTH",
"516 659 OFFCURVE",
"525 567 OFFCURVE",
"528 527 CURVE",
"555 527 LINE",
"555 700 LINE",
"16 700 LINE",
"16 673 LINE",
"44 673 LINE SMOOTH",
"83 673 OFFCURVE",
"103 662 OFFCURVE",
"103 637 CURVE SMOOTH",
"103 62 LINE SMOOTH",
"103 37 OFFCURVE",
"83 26 OFFCURVE",
"44 26 CURVE SMOOTH",
"16 26 LINE",
"16 0 LINE"
);
},
{
closed = 1;
nodes = (
"455 251 LINE",
"455 485 LINE",
"431 485 LINE",
"427 436 OFFCURVE",
"424 388 OFFCURVE",
"379 388 CURVE SMOOTH",
"162 388 LINE",
"162 348 LINE",
"379 348 LINE SMOOTH",
"424 348 OFFCURVE",
"427 300 OFFCURVE",
"431 251 CURVE"
);
},
{
closed = 1;
nodes = (
"286 858 LINE",
"297 868 OFFCURVE",
"309 878 OFFCURVE",
"318 878 CURVE SMOOTH",
"324 878 OFFCURVE",
"332 873 OFFCURVE",
"341 867 CURVE",
"447 781 LINE",
"466 803 LINE",
"344 932 LINE",
"293 932 LINE",
"171 803 LINE",
"189 781 LINE"
);
},
{
closed = 1;
nodes = (
"493 898 LINE",
"474 905 OFFCURVE",
"464 912 OFFCURVE",
"464 926 CURVE SMOOTH",
"464 954 OFFCURVE",
"544 965 OFFCURVE",
"544 1010 CURVE SMOOTH",
"544 1047 OFFCURVE",
"502 1063 OFFCURVE",
"460 1063 CURVE SMOOTH",
"429 1063 OFFCURVE",
"384 1053 OFFCURVE",
"384 1022 CURVE SMOOTH",
"384 1010 OFFCURVE",
"395 1001 OFFCURVE",
"405 1001 CURVE SMOOTH",
"434 1001 OFFCURVE",
"421 1040 OFFCURVE",
"464 1040 CURVE SMOOTH",
"483 1040 OFFCURVE",
"494 1028 OFFCURVE",
"494 1013 CURVE SMOOTH",
"494 973 OFFCURVE",
"421 965 OFFCURVE",
"421 925 CURVE SMOOTH",
"421 901 OFFCURVE",
"437 880 OFFCURVE",
"484 880 CURVE"
);
}
);
};
components = (
{
name = E;
},
{
name = circumflex_hookabove;
transform = "{1, 0, 0, 1, 556, 230}";
}
);
layerId = "DD5BE8D6-EC3D-4275-AA48-09C9275F1F3A";
width = 509;
}
);
note = Ecircumflexhookabove;
rightKerningGroup = E;
unicode = 1EC2;
},
{
glyphname = Ecircumflextilde;
lastChange = "2018-07-26 07:40:17 +0000";
layers = (
{
background = {
paths = (
{
closed = 1;
nodes = (
"554 0 LINE",
"571 179 LINE",
"544 179 LINE",
"538 124 OFFCURVE",
"520 40 OFFCURVE",
"456 40 CURVE SMOOTH",
"201 40 LINE",
"201 659 LINE",
"441 659 LINE SMOOTH",
"516 659 OFFCURVE",
"525 567 OFFCURVE",
"528 527 CURVE",
"555 527 LINE",
"555 700 LINE",
"16 700 LINE",
"16 673 LINE",
"44 673 LINE SMOOTH",
"83 673 OFFCURVE",
"103 662 OFFCURVE",
"103 637 CURVE SMOOTH",
"103 62 LINE SMOOTH",
"103 37 OFFCURVE",
"83 26 OFFCURVE",
"44 26 CURVE SMOOTH",
"16 26 LINE",
"16 0 LINE"
);
},
{
closed = 1;
nodes = (
"455 251 LINE",
"455 485 LINE",
"431 485 LINE",
"427 436 OFFCURVE",
"424 388 OFFCURVE",
"379 388 CURVE SMOOTH",
"162 388 LINE",
"162 348 LINE",
"379 348 LINE SMOOTH",
"424 348 OFFCURVE",
"427 300 OFFCURVE",
"431 251 CURVE"
);
},
{
closed = 1;
nodes = (
"290 862 LINE SMOOTH",
"300 870 OFFCURVE",
"310 878 OFFCURVE",
"318 878 CURVE SMOOTH",
"324 878 OFFCURVE",
"332 873 OFFCURVE",
"341 867 CURVE",
"447 781 LINE",
"466 803 LINE",
"344 932 LINE",
"293 932 LINE",
"171 803 LINE",
"189 781 LINE"
);
},
{
closed = 1;
nodes = (
"193 997 OFFCURVE",
"211 1018 OFFCURVE",
"242 1018 CURVE SMOOTH",
"291 1018 OFFCURVE",
"338 964 OFFCURVE",
"387 964 CURVE SMOOTH",
"440 964 OFFCURVE",
"469 1012 OFFCURVE",
"481 1063 CURVE",
"460 1075 LINE",
"447 1035 OFFCURVE",
"431 1012 OFFCURVE",
"398 1012 CURVE SMOOTH",
"351 1012 OFFCURVE",
"302 1065 OFFCURVE",
"253 1065 CURVE SMOOTH",
"202 1065 OFFCURVE",
"170 1021 OFFCURVE",
"160 970 CURVE",
"180 958 LINE"
);
}
);
};
components = (
{
name = E;
},
{
name = circumflex_tilde;
transform = "{1, 0, 0, 1, 515, 230}";
}
);
layerId = "0B1DFD06-3317-40CA-B510-4969A0718C16";
width = 509;
},
{
background = {
paths = (
{
closed = 1;
nodes = (
"554 0 LINE",
"571 179 LINE",
"544 179 LINE",
"538 124 OFFCURVE",
"520 40 OFFCURVE",
"456 40 CURVE SMOOTH",
"201 40 LINE",
"201 659 LINE",
"441 659 LINE SMOOTH",
"516 659 OFFCURVE",
"525 567 OFFCURVE",
"528 527 CURVE",
"555 527 LINE",
"555 700 LINE",
"16 700 LINE",
"16 673 LINE",
"44 673 LINE SMOOTH",
"83 673 OFFCURVE",
"103 662 OFFCURVE",
"103 637 CURVE SMOOTH",
"103 62 LINE SMOOTH",
"103 37 OFFCURVE",
"83 26 OFFCURVE",
"44 26 CURVE SMOOTH",
"16 26 LINE",
"16 0 LINE"
);
},
{
closed = 1;
nodes = (
"455 251 LINE",
"455 485 LINE",
"431 485 LINE",
"427 436 OFFCURVE",
"424 388 OFFCURVE",
"379 388 CURVE SMOOTH",
"162 388 LINE",
"162 348 LINE",
"379 348 LINE SMOOTH",
"424 348 OFFCURVE",
"427 300 OFFCURVE",
"431 251 CURVE"
);
},
{
closed = 1;
nodes = (
"290 862 LINE SMOOTH",
"300 870 OFFCURVE",
"310 878 OFFCURVE",
"318 878 CURVE SMOOTH",
"324 878 OFFCURVE",
"332 873 OFFCURVE",
"341 867 CURVE",
"447 781 LINE",
"466 803 LINE",
"344 932 LINE",
"293 932 LINE",
"171 803 LINE",
"189 781 LINE"
);
},
{
closed = 1;
nodes = (
"193 997 OFFCURVE",
"211 1018 OFFCURVE",
"242 1018 CURVE SMOOTH",
"291 1018 OFFCURVE",
"338 964 OFFCURVE",
"387 964 CURVE SMOOTH",
"440 964 OFFCURVE",
"469 1012 OFFCURVE",
"481 1063 CURVE",
"460 1075 LINE",
"447 1035 OFFCURVE",
"431 1012 OFFCURVE",
"398 1012 CURVE SMOOTH",
"351 1012 OFFCURVE",
"302 1065 OFFCURVE",
"253 1065 CURVE SMOOTH",
"202 1065 OFFCURVE",
"170 1021 OFFCURVE",
"160 970 CURVE",
"180 958 LINE"
);
}
);
};
components = (
{
name = E;
},
{
name = circumflex_tilde;
transform = "{1, 0, 0, 1, 539, 230}";
}
);
layerId = "39D19F74-97F3-4EB6-8D96-77117D45ABB1";
width = 553;
},
{
components = (
{
name = E;
},
{
name = circumflex_tilde;
transform = "{1, 0, 0, 1, 523, 230}";
}
);
layerId = "62D79BA8-865E-4B23-88DF-F495C1A196AD";
width = 523;
},
{
background = {
paths = (
{
closed = 1;
nodes = (
"554 0 LINE",
"571 179 LINE",
"544 179 LINE",
"538 124 OFFCURVE",
"520 40 OFFCURVE",
"456 40 CURVE SMOOTH",
"201 40 LINE",
"201 659 LINE",
"441 659 LINE SMOOTH",
"516 659 OFFCURVE",
"525 567 OFFCURVE",
"528 527 CURVE",
"555 527 LINE",
"555 700 LINE",
"16 700 LINE",
"16 673 LINE",
"44 673 LINE SMOOTH",
"83 673 OFFCURVE",
"103 662 OFFCURVE",
"103 637 CURVE SMOOTH",
"103 62 LINE SMOOTH",
"103 37 OFFCURVE",
"83 26 OFFCURVE",
"44 26 CURVE SMOOTH",
"16 26 LINE",
"16 0 LINE"
);
},
{
closed = 1;
nodes = (
"455 251 LINE",
"455 485 LINE",
"431 485 LINE",
"427 436 OFFCURVE",
"424 388 OFFCURVE",
"379 388 CURVE SMOOTH",
"162 388 LINE",
"162 348 LINE",
"379 348 LINE SMOOTH",
"424 348 OFFCURVE",
"427 300 OFFCURVE",
"431 251 CURVE"
);
},
{
closed = 1;
nodes = (
"290 862 LINE SMOOTH",
"300 870 OFFCURVE",
"310 878 OFFCURVE",
"318 878 CURVE SMOOTH",
"324 878 OFFCURVE",
"332 873 OFFCURVE",
"341 867 CURVE",
"447 781 LINE",
"466 803 LINE",
"344 932 LINE",
"293 932 LINE",
"171 803 LINE",
"189 781 LINE"
);
},
{
closed = 1;
nodes = (
"193 997 OFFCURVE",
"211 1018 OFFCURVE",
"242 1018 CURVE SMOOTH",
"291 1018 OFFCURVE",
"338 964 OFFCURVE",
"387 964 CURVE SMOOTH",
"440 964 OFFCURVE",
"469 1012 OFFCURVE",
"481 1063 CURVE",
"460 1075 LINE",
"447 1035 OFFCURVE",
"431 1012 OFFCURVE",
"398 1012 CURVE SMOOTH",
"351 1012 OFFCURVE",
"302 1065 OFFCURVE",
"253 1065 CURVE SMOOTH",
"202 1065 OFFCURVE",
"170 1021 OFFCURVE",
"160 970 CURVE",
"180 958 LINE"
);
}
);
};
components = (
{
name = E;
},
{
name = circumflex_tilde;
transform = "{1, 0, 0, 1, 581, 230}";
}
);
layerId = "C1FA819C-E964-464A-9760-8985A4BBBA06";
width = 553;
},
{
components = (
{
name = E;
},
{
name = circumflex_tilde;
transform = "{1, 0, 0, 1, 565, 230}";
}
);
layerId = "5A1050C4-4F08-4A6D-BA78-94A136104BF4";
width = 523;
},
{
background = {
paths = (
{
closed = 1;
nodes = (
"554 0 LINE",
"571 179 LINE",
"544 179 LINE",
"538 124 OFFCURVE",
"520 40 OFFCURVE",
"456 40 CURVE SMOOTH",
"201 40 LINE",
"201 659 LINE",
"441 659 LINE SMOOTH",
"516 659 OFFCURVE",
"525 567 OFFCURVE",
"528 527 CURVE",
"555 527 LINE",
"555 700 LINE",
"16 700 LINE",
"16 673 LINE",
"44 673 LINE SMOOTH",
"83 673 OFFCURVE",
"103 662 OFFCURVE",
"103 637 CURVE SMOOTH",
"103 62 LINE SMOOTH",
"103 37 OFFCURVE",
"83 26 OFFCURVE",
"44 26 CURVE SMOOTH",
"16 26 LINE",
"16 0 LINE"
);
},
{
closed = 1;
nodes = (
"455 251 LINE",
"455 485 LINE",
"431 485 LINE",
"427 436 OFFCURVE",
"424 388 OFFCURVE",
"379 388 CURVE SMOOTH",
"162 388 LINE",
"162 348 LINE",
"379 348 LINE SMOOTH",
"424 348 OFFCURVE",
"427 300 OFFCURVE",
"431 251 CURVE"
);
},
{
closed = 1;
nodes = (
"290 862 LINE SMOOTH",
"300 870 OFFCURVE",
"310 878 OFFCURVE",
"318 878 CURVE SMOOTH",
"324 878 OFFCURVE",
"332 873 OFFCURVE",
"341 867 CURVE",
"447 781 LINE",
"466 803 LINE",
"344 932 LINE",
"293 932 LINE",
"171 803 LINE",
"189 781 LINE"
);
},
{
closed = 1;
nodes = (
"193 997 OFFCURVE",
"211 1018 OFFCURVE",
"242 1018 CURVE SMOOTH",
"291 1018 OFFCURVE",
"338 964 OFFCURVE",
"387 964 CURVE SMOOTH",
"440 964 OFFCURVE",
"469 1012 OFFCURVE",
"481 1063 CURVE",
"460 1075 LINE",
"447 1035 OFFCURVE",
"431 1012 OFFCURVE",
"398 1012 CURVE SMOOTH",
"351 1012 OFFCURVE",
"302 1065 OFFCURVE",
"253 1065 CURVE SMOOTH",
"202 1065 OFFCURVE",
"170 1021 OFFCURVE",
"160 970 CURVE",
"180 958 LINE"
);
}
);
};
components = (
{
name = E;
},
{
name = circumflex_tilde;
transform = "{1, 0, 0, 1, 556, 230}";
}
);
layerId = "DD5BE8D6-EC3D-4275-AA48-09C9275F1F3A";
width = 509;
}
);
note = Ecircumflextilde;
rightKerningGroup = E;
unicode = 1EC4;
},
{
glyphname = Edieresis;
lastChange = "2018-07-26 07:40:17 +0000";
layers = (
{
background = {
paths = (
{
closed = 1;
nodes = (
"554 0 LINE",
"571 179 LINE",
"544 179 LINE",
"538 124 OFFCURVE",
"520 40 OFFCURVE",
"456 40 CURVE SMOOTH",
"201 40 LINE",
"201 659 LINE",
"441 659 LINE SMOOTH",
"516 659 OFFCURVE",
"525 567 OFFCURVE",
"528 527 CURVE",
"555 527 LINE",
"555 700 LINE",
"16 700 LINE",
"16 673 LINE",
"44 673 LINE SMOOTH",
"83 673 OFFCURVE",
"103 662 OFFCURVE",
"103 637 CURVE SMOOTH",
"103 62 LINE SMOOTH",
"103 37 OFFCURVE",
"83 26 OFFCURVE",
"44 26 CURVE SMOOTH",
"16 26 LINE",
"16 0 LINE"
);
},
{
closed = 1;
nodes = (
"455 251 LINE",
"455 485 LINE",
"431 485 LINE",
"427 436 OFFCURVE",
"424 388 OFFCURVE",
"379 388 CURVE SMOOTH",
"162 388 LINE",
"162 348 LINE",
"379 348 LINE SMOOTH",
"424 348 OFFCURVE",
"427 300 OFFCURVE",
"431 251 CURVE"
);
},
{
closed = 1;
nodes = (
"254 781 OFFCURVE",
"272 800 OFFCURVE",
"272 827 CURVE SMOOTH",
"272 855 OFFCURVE",
"254 875 OFFCURVE",
"225 875 CURVE SMOOTH",
"197 875 OFFCURVE",
"179 855 OFFCURVE",
"179 827 CURVE SMOOTH",
"179 800 OFFCURVE",
"197 781 OFFCURVE",
"225 781 CURVE SMOOTH"
);
},
{
closed = 1;
nodes = (
"470 781 OFFCURVE",
"488 800 OFFCURVE",
"488 827 CURVE SMOOTH",
"488 855 OFFCURVE",
"470 875 OFFCURVE",
"441 875 CURVE SMOOTH",
"412 875 OFFCURVE",
"394 855 OFFCURVE",
"394 827 CURVE SMOOTH",
"394 800 OFFCURVE",
"412 781 OFFCURVE",
"441 781 CURVE SMOOTH"
);
}
);
};
components = (
{
name = E;
},
{
name = dieresiscomb;
transform = "{1, 0, 0, 1, 265, 230}";
}
);
layerId = "0B1DFD06-3317-40CA-B510-4969A0718C16";
width = 509;
},
{
background = {
paths = (
{
closed = 1;
nodes = (
"554 0 LINE",
"571 179 LINE",
"544 179 LINE",
"538 124 OFFCURVE",
"520 40 OFFCURVE",
"456 40 CURVE SMOOTH",
"201 40 LINE",
"201 659 LINE",
"441 659 LINE SMOOTH",
"516 659 OFFCURVE",
"525 567 OFFCURVE",
"528 527 CURVE",
"555 527 LINE",
"555 700 LINE",
"16 700 LINE",
"16 673 LINE",
"44 673 LINE SMOOTH",
"83 673 OFFCURVE",
"103 662 OFFCURVE",
"103 637 CURVE SMOOTH",
"103 62 LINE SMOOTH",
"103 37 OFFCURVE",
"83 26 OFFCURVE",
"44 26 CURVE SMOOTH",
"16 26 LINE",
"16 0 LINE"
);
},
{
closed = 1;
nodes = (
"455 251 LINE",
"455 485 LINE",
"431 485 LINE",
"427 436 OFFCURVE",
"424 388 OFFCURVE",
"379 388 CURVE SMOOTH",
"162 388 LINE",
"162 348 LINE",
"379 348 LINE SMOOTH",
"424 348 OFFCURVE",
"427 300 OFFCURVE",
"431 251 CURVE"
);
},
{
closed = 1;
nodes = (
"254 781 OFFCURVE",
"272 800 OFFCURVE",
"272 827 CURVE SMOOTH",
"272 855 OFFCURVE",
"254 875 OFFCURVE",
"225 875 CURVE SMOOTH",
"197 875 OFFCURVE",
"179 855 OFFCURVE",
"179 827 CURVE SMOOTH",
"179 800 OFFCURVE",
"197 781 OFFCURVE",
"225 781 CURVE SMOOTH"
);
},
{
closed = 1;
nodes = (
"470 781 OFFCURVE",
"488 800 OFFCURVE",
"488 827 CURVE SMOOTH",
"488 855 OFFCURVE",
"470 875 OFFCURVE",
"441 875 CURVE SMOOTH",
"412 875 OFFCURVE",
"394 855 OFFCURVE",
"394 827 CURVE SMOOTH",
"394 800 OFFCURVE",
"412 781 OFFCURVE",
"441 781 CURVE SMOOTH"
);
}
);
};
components = (
{
name = E;
},
{
name = dieresiscomb;
transform = "{1, 0, 0, 1, 289, 230}";
}
);
layerId = "39D19F74-97F3-4EB6-8D96-77117D45ABB1";
width = 553;
},
{
components = (
{
name = E;
},
{
name = dieresiscomb;
transform = "{1, 0, 0, 1, 273, 230}";
}
);
layerId = "62D79BA8-865E-4B23-88DF-F495C1A196AD";
width = 523;
},
{
background = {
paths = (
{
closed = 1;
nodes = (
"554 0 LINE",
"571 179 LINE",
"544 179 LINE",
"538 124 OFFCURVE",
"520 40 OFFCURVE",
"456 40 CURVE SMOOTH",
"201 40 LINE",
"201 659 LINE",
"441 659 LINE SMOOTH",
"516 659 OFFCURVE",
"525 567 OFFCURVE",
"528 527 CURVE",
"555 527 LINE",
"555 700 LINE",
"16 700 LINE",
"16 673 LINE",
"44 673 LINE SMOOTH",
"83 673 OFFCURVE",
"103 662 OFFCURVE",
"103 637 CURVE SMOOTH",
"103 62 LINE SMOOTH",
"103 37 OFFCURVE",
"83 26 OFFCURVE",
"44 26 CURVE SMOOTH",
"16 26 LINE",
"16 0 LINE"
);
},
{
closed = 1;
nodes = (
"455 251 LINE",
"455 485 LINE",
"431 485 LINE",
"427 436 OFFCURVE",
"424 388 OFFCURVE",
"379 388 CURVE SMOOTH",
"162 388 LINE",
"162 348 LINE",
"379 348 LINE SMOOTH",
"424 348 OFFCURVE",
"427 300 OFFCURVE",
"431 251 CURVE"
);
},
{
closed = 1;
nodes = (
"254 781 OFFCURVE",
"272 800 OFFCURVE",
"272 827 CURVE SMOOTH",
"272 855 OFFCURVE",
"254 875 OFFCURVE",
"225 875 CURVE SMOOTH",
"197 875 OFFCURVE",
"179 855 OFFCURVE",
"179 827 CURVE SMOOTH",
"179 800 OFFCURVE",
"197 781 OFFCURVE",
"225 781 CURVE SMOOTH"
);
},
{
closed = 1;
nodes = (
"470 781 OFFCURVE",
"488 800 OFFCURVE",
"488 827 CURVE SMOOTH",
"488 855 OFFCURVE",
"470 875 OFFCURVE",
"441 875 CURVE SMOOTH",
"412 875 OFFCURVE",
"394 855 OFFCURVE",
"394 827 CURVE SMOOTH",
"394 800 OFFCURVE",
"412 781 OFFCURVE",
"441 781 CURVE SMOOTH"
);
}
);
};
components = (
{
name = E;
},
{
name = dieresiscomb;
transform = "{1, 0, 0, 1, 331, 230}";
}
);
layerId = "C1FA819C-E964-464A-9760-8985A4BBBA06";
width = 553;
},
{
components = (
{
name = E;
},
{
name = dieresiscomb;
transform = "{1, 0, 0, 1, 315, 230}";
}
);
layerId = "5A1050C4-4F08-4A6D-BA78-94A136104BF4";
width = 523;
},
{
background = {
paths = (
{
closed = 1;
nodes = (
"554 0 LINE",
"571 179 LINE",
"544 179 LINE",
"538 124 OFFCURVE",
"520 40 OFFCURVE",
"456 40 CURVE SMOOTH",
"201 40 LINE",
"201 659 LINE",
"441 659 LINE SMOOTH",
"516 659 OFFCURVE",
"525 567 OFFCURVE",
"528 527 CURVE",
"555 527 LINE",
"555 700 LINE",
"16 700 LINE",
"16 673 LINE",
"44 673 LINE SMOOTH",
"83 673 OFFCURVE",
"103 662 OFFCURVE",
"103 637 CURVE SMOOTH",
"103 62 LINE SMOOTH",
"103 37 OFFCURVE",
"83 26 OFFCURVE",
"44 26 CURVE SMOOTH",
"16 26 LINE",
"16 0 LINE"
);
},
{
closed = 1;
nodes = (
"455 251 LINE",
"455 485 LINE",
"431 485 LINE",
"427 436 OFFCURVE",
"424 388 OFFCURVE",
"379 388 CURVE SMOOTH",
"162 388 LINE",
"162 348 LINE",
"379 348 LINE SMOOTH",
"424 348 OFFCURVE",
"427 300 OFFCURVE",
"431 251 CURVE"
);
},
{
closed = 1;
nodes = (
"254 781 OFFCURVE",
"272 800 OFFCURVE",
"272 827 CURVE SMOOTH",
"272 855 OFFCURVE",
"254 875 OFFCURVE",
"225 875 CURVE SMOOTH",
"197 875 OFFCURVE",
"179 855 OFFCURVE",
"179 827 CURVE SMOOTH",
"179 800 OFFCURVE",
"197 781 OFFCURVE",
"225 781 CURVE SMOOTH"
);
},
{
closed = 1;
nodes = (
"470 781 OFFCURVE",
"488 800 OFFCURVE",
"488 827 CURVE SMOOTH",
"488 855 OFFCURVE",
"470 875 OFFCURVE",
"441 875 CURVE SMOOTH",
"412 875 OFFCURVE",
"394 855 OFFCURVE",
"394 827 CURVE SMOOTH",
"394 800 OFFCURVE",
"412 781 OFFCURVE",
"441 781 CURVE SMOOTH"
);
}
);
};
components = (
{
name = E;
},
{
name = dieresiscomb;
transform = "{1, 0, 0, 1, 306, 230}";
}
);
layerId = "DD5BE8D6-EC3D-4275-AA48-09C9275F1F3A";
width = 509;
}
);
note = Edieresis;
rightKerningGroup = E;
unicode = 00CB;
},
{
glyphname = Edotaccent;
lastChange = "2018-07-26 07:40:18 +0000";
layers = (
{
background = {
paths = (
{
closed = 1;
nodes = (
"554 0 LINE",
"571 179 LINE",
"544 179 LINE",
"538 124 OFFCURVE",
"520 40 OFFCURVE",
"456 40 CURVE SMOOTH",
"201 40 LINE",
"201 659 LINE",
"441 659 LINE SMOOTH",
"516 659 OFFCURVE",
"525 567 OFFCURVE",
"528 527 CURVE",
"555 527 LINE",
"555 700 LINE",
"16 700 LINE",
"16 673 LINE",
"44 673 LINE SMOOTH",
"83 673 OFFCURVE",
"103 662 OFFCURVE",
"103 637 CURVE SMOOTH",
"103 62 LINE SMOOTH",
"103 37 OFFCURVE",
"83 26 OFFCURVE",
"44 26 CURVE SMOOTH",
"16 26 LINE",
"16 0 LINE"
);
},
{
closed = 1;
nodes = (
"455 251 LINE",
"455 485 LINE",
"431 485 LINE",
"427 436 OFFCURVE",
"424 388 OFFCURVE",
"379 388 CURVE SMOOTH",
"162 388 LINE",
"162 348 LINE",
"379 348 LINE SMOOTH",
"424 348 OFFCURVE",
"427 300 OFFCURVE",
"431 251 CURVE"
);
},
{
closed = 1;
nodes = (
"362 765 OFFCURVE",
"380 784 OFFCURVE",
"380 811 CURVE SMOOTH",
"380 839 OFFCURVE",
"362 858 OFFCURVE",
"334 858 CURVE SMOOTH",
"305 858 OFFCURVE",
"287 839 OFFCURVE",
"287 811 CURVE SMOOTH",
"287 784 OFFCURVE",
"305 765 OFFCURVE",
"334 765 CURVE SMOOTH"
);
}
);
};
components = (
{
name = E;
},
{
name = dotaccentcomb;
transform = "{1, 0, 0, 1, 266, 230}";
}
);
layerId = "0B1DFD06-3317-40CA-B510-4969A0718C16";
width = 509;
},
{
background = {
paths = (
{
closed = 1;
nodes = (
"554 0 LINE",
"571 179 LINE",
"544 179 LINE",
"538 124 OFFCURVE",
"520 40 OFFCURVE",
"456 40 CURVE SMOOTH",
"201 40 LINE",
"201 659 LINE",
"441 659 LINE SMOOTH",
"516 659 OFFCURVE",
"525 567 OFFCURVE",
"528 527 CURVE",
"555 527 LINE",
"555 700 LINE",
"16 700 LINE",
"16 673 LINE",
"44 673 LINE SMOOTH",
"83 673 OFFCURVE",
"103 662 OFFCURVE",
"103 637 CURVE SMOOTH",
"103 62 LINE SMOOTH",
"103 37 OFFCURVE",
"83 26 OFFCURVE",
"44 26 CURVE SMOOTH",
"16 26 LINE",
"16 0 LINE"
);
},
{
closed = 1;
nodes = (
"455 251 LINE",
"455 485 LINE",
"431 485 LINE",
"427 436 OFFCURVE",
"424 388 OFFCURVE",
"379 388 CURVE SMOOTH",
"162 388 LINE",
"162 348 LINE",
"379 348 LINE SMOOTH",
"424 348 OFFCURVE",
"427 300 OFFCURVE",
"431 251 CURVE"
);
},
{
closed = 1;
nodes = (
"362 765 OFFCURVE",
"380 784 OFFCURVE",
"380 811 CURVE SMOOTH",
"380 839 OFFCURVE",
"362 858 OFFCURVE",
"334 858 CURVE SMOOTH",
"305 858 OFFCURVE",
"287 839 OFFCURVE",
"287 811 CURVE SMOOTH",
"287 784 OFFCURVE",
"305 765 OFFCURVE",
"334 765 CURVE SMOOTH"
);
}
);
};
components = (
{
name = E;
},
{
name = dotaccentcomb;
transform = "{1, 0, 0, 1, 290, 230}";
}
);
layerId = "39D19F74-97F3-4EB6-8D96-77117D45ABB1";
width = 553;
},
{
components = (
{
name = E;
},
{
name = dotaccentcomb;
transform = "{1, 0, 0, 1, 274, 230}";
}
);
layerId = "62D79BA8-865E-4B23-88DF-F495C1A196AD";
width = 523;
},
{
background = {
paths = (
{
closed = 1;
nodes = (
"554 0 LINE",
"571 179 LINE",
"544 179 LINE",
"538 124 OFFCURVE",
"520 40 OFFCURVE",
"456 40 CURVE SMOOTH",
"201 40 LINE",
"201 659 LINE",
"441 659 LINE SMOOTH",
"516 659 OFFCURVE",
"525 567 OFFCURVE",
"528 527 CURVE",
"555 527 LINE",
"555 700 LINE",
"16 700 LINE",
"16 673 LINE",
"44 673 LINE SMOOTH",
"83 673 OFFCURVE",
"103 662 OFFCURVE",
"103 637 CURVE SMOOTH",
"103 62 LINE SMOOTH",
"103 37 OFFCURVE",
"83 26 OFFCURVE",
"44 26 CURVE SMOOTH",
"16 26 LINE",
"16 0 LINE"
);
},
{
closed = 1;
nodes = (
"455 251 LINE",
"455 485 LINE",
"431 485 LINE",
"427 436 OFFCURVE",
"424 388 OFFCURVE",
"379 388 CURVE SMOOTH",
"162 388 LINE",
"162 348 LINE",
"379 348 LINE SMOOTH",
"424 348 OFFCURVE",
"427 300 OFFCURVE",
"431 251 CURVE"
);
},
{
closed = 1;
nodes = (
"362 765 OFFCURVE",
"380 784 OFFCURVE",
"380 811 CURVE SMOOTH",
"380 839 OFFCURVE",
"362 858 OFFCURVE",
"334 858 CURVE SMOOTH",
"305 858 OFFCURVE",
"287 839 OFFCURVE",
"287 811 CURVE SMOOTH",
"287 784 OFFCURVE",
"305 765 OFFCURVE",
"334 765 CURVE SMOOTH"
);
}
);
};
components = (
{
name = E;
},
{
name = dotaccentcomb;
transform = "{1, 0, 0, 1, 332, 230}";
}
);
layerId = "C1FA819C-E964-464A-9760-8985A4BBBA06";
width = 553;
},
{
components = (
{
name = E;
},
{
name = dotaccentcomb;
transform = "{1, 0, 0, 1, 316, 230}";
}
);
layerId = "5A1050C4-4F08-4A6D-BA78-94A136104BF4";
width = 523;
},
{
background = {
paths = (
{
closed = 1;
nodes = (
"554 0 LINE",
"571 179 LINE",
"544 179 LINE",
"538 124 OFFCURVE",
"520 40 OFFCURVE",
"456 40 CURVE SMOOTH",
"201 40 LINE",
"201 659 LINE",
"441 659 LINE SMOOTH",
"516 659 OFFCURVE",
"525 567 OFFCURVE",
"528 527 CURVE",
"555 527 LINE",
"555 700 LINE",
"16 700 LINE",
"16 673 LINE",
"44 673 LINE SMOOTH",
"83 673 OFFCURVE",
"103 662 OFFCURVE",
"103 637 CURVE SMOOTH",
"103 62 LINE SMOOTH",
"103 37 OFFCURVE",
"83 26 OFFCURVE",
"44 26 CURVE SMOOTH",
"16 26 LINE",
"16 0 LINE"
);
},
{
closed = 1;
nodes = (
"455 251 LINE",
"455 485 LINE",
"431 485 LINE",
"427 436 OFFCURVE",
"424 388 OFFCURVE",
"379 388 CURVE SMOOTH",
"162 388 LINE",
"162 348 LINE",
"379 348 LINE SMOOTH",
"424 348 OFFCURVE",
"427 300 OFFCURVE",
"431 251 CURVE"
);
},
{
closed = 1;
nodes = (
"362 765 OFFCURVE",
"380 784 OFFCURVE",
"380 811 CURVE SMOOTH",
"380 839 OFFCURVE",
"362 858 OFFCURVE",
"334 858 CURVE SMOOTH",
"305 858 OFFCURVE",
"287 839 OFFCURVE",
"287 811 CURVE SMOOTH",
"287 784 OFFCURVE",
"305 765 OFFCURVE",
"334 765 CURVE SMOOTH"
);
}
);
};
components = (
{
name = E;
},
{
name = dotaccentcomb;
transform = "{1, 0, 0, 1, 307, 230}";
}
);
layerId = "DD5BE8D6-EC3D-4275-AA48-09C9275F1F3A";
width = 509;
}
);
note = Edotaccent;
rightKerningGroup = E;
unicode = 0116;
},
{
glyphname = Edotbelow;
lastChange = "2018-07-26 07:40:18 +0000";
layers = (
{
background = {
paths = (
{
closed = 1;
nodes = (
"554 0 LINE",
"571 179 LINE",
"544 179 LINE",
"538 124 OFFCURVE",
"520 40 OFFCURVE",
"456 40 CURVE SMOOTH",
"201 40 LINE",
"201 659 LINE",
"441 659 LINE SMOOTH",
"516 659 OFFCURVE",
"525 567 OFFCURVE",
"528 527 CURVE",
"555 527 LINE",
"555 700 LINE",
"16 700 LINE",
"16 673 LINE",
"44 673 LINE SMOOTH",
"83 673 OFFCURVE",
"103 662 OFFCURVE",
"103 637 CURVE SMOOTH",
"103 62 LINE SMOOTH",
"103 37 OFFCURVE",
"83 26 OFFCURVE",
"44 26 CURVE SMOOTH",
"16 26 LINE",
"16 0 LINE"
);
},
{
closed = 1;
nodes = (
"343 -159 OFFCURVE",
"361 -140 OFFCURVE",
"361 -112 CURVE SMOOTH",
"361 -84 OFFCURVE",
"343 -64 OFFCURVE",
"315 -64 CURVE SMOOTH",
"287 -64 OFFCURVE",
"268 -84 OFFCURVE",
"268 -112 CURVE SMOOTH",
"268 -140 OFFCURVE",
"287 -159 OFFCURVE",
"315 -159 CURVE SMOOTH"
);
},
{
closed = 1;
nodes = (
"455 251 LINE",
"455 485 LINE",
"431 485 LINE",
"427 436 OFFCURVE",
"424 388 OFFCURVE",
"379 388 CURVE SMOOTH",
"162 388 LINE",
"162 348 LINE",
"379 348 LINE SMOOTH",
"424 348 OFFCURVE",
"427 300 OFFCURVE",
"431 251 CURVE"
);
}
);
};
components = (
{
name = E;
},
{
name = dotbelowcomb;
transform = "{1, 0, 0, 1, 266, 0}";
}
);
layerId = "0B1DFD06-3317-40CA-B510-4969A0718C16";
width = 509;
},
{
background = {
paths = (
{
closed = 1;
nodes = (
"554 0 LINE",
"571 179 LINE",
"544 179 LINE",
"538 124 OFFCURVE",
"520 40 OFFCURVE",
"456 40 CURVE SMOOTH",
"201 40 LINE",
"201 659 LINE",
"441 659 LINE SMOOTH",
"516 659 OFFCURVE",
"525 567 OFFCURVE",
"528 527 CURVE",
"555 527 LINE",
"555 700 LINE",
"16 700 LINE",
"16 673 LINE",
"44 673 LINE SMOOTH",
"83 673 OFFCURVE",
"103 662 OFFCURVE",
"103 637 CURVE SMOOTH",
"103 62 LINE SMOOTH",
"103 37 OFFCURVE",
"83 26 OFFCURVE",
"44 26 CURVE SMOOTH",
"16 26 LINE",
"16 0 LINE"
);
},
{
closed = 1;
nodes = (
"343 -159 OFFCURVE",
"361 -140 OFFCURVE",
"361 -112 CURVE SMOOTH",
"361 -84 OFFCURVE",
"343 -64 OFFCURVE",
"315 -64 CURVE SMOOTH",
"287 -64 OFFCURVE",
"268 -84 OFFCURVE",
"268 -112 CURVE SMOOTH",
"268 -140 OFFCURVE",
"287 -159 OFFCURVE",
"315 -159 CURVE SMOOTH"
);
},
{
closed = 1;
nodes = (
"455 251 LINE",
"455 485 LINE",
"431 485 LINE",
"427 436 OFFCURVE",
"424 388 OFFCURVE",
"379 388 CURVE SMOOTH",
"162 388 LINE",
"162 348 LINE",
"379 348 LINE SMOOTH",
"424 348 OFFCURVE",
"427 300 OFFCURVE",
"431 251 CURVE"
);
}
);
};
components = (
{
name = E;
},
{
name = dotbelowcomb;
transform = "{1, 0, 0, 1, 290, -30}";
}
);
layerId = "39D19F74-97F3-4EB6-8D96-77117D45ABB1";
width = 553;
},
{
components = (
{
name = E;
},
{
name = dotbelowcomb;
transform = "{1, 0, 0, 1, 274, -12}";
}
);
layerId = "62D79BA8-865E-4B23-88DF-F495C1A196AD";
width = 523;
},
{
background = {
paths = (
{
closed = 1;
nodes = (
"554 0 LINE",
"571 179 LINE",
"544 179 LINE",
"538 124 OFFCURVE",
"520 40 OFFCURVE",
"456 40 CURVE SMOOTH",
"201 40 LINE",
"201 659 LINE",
"441 659 LINE SMOOTH",
"516 659 OFFCURVE",
"525 567 OFFCURVE",
"528 527 CURVE",
"555 527 LINE",
"555 700 LINE",
"16 700 LINE",
"16 673 LINE",
"44 673 LINE SMOOTH",
"83 673 OFFCURVE",
"103 662 OFFCURVE",
"103 637 CURVE SMOOTH",
"103 62 LINE SMOOTH",
"103 37 OFFCURVE",
"83 26 OFFCURVE",
"44 26 CURVE SMOOTH",
"16 26 LINE",
"16 0 LINE"
);
},
{
closed = 1;
nodes = (
"343 -159 OFFCURVE",
"361 -140 OFFCURVE",
"361 -112 CURVE SMOOTH",
"361 -84 OFFCURVE",
"343 -64 OFFCURVE",
"315 -64 CURVE SMOOTH",
"287 -64 OFFCURVE",
"268 -84 OFFCURVE",
"268 -112 CURVE SMOOTH",
"268 -140 OFFCURVE",
"287 -159 OFFCURVE",
"315 -159 CURVE SMOOTH"
);
},
{
closed = 1;
nodes = (
"455 251 LINE",
"455 485 LINE",
"431 485 LINE",
"427 436 OFFCURVE",
"424 388 OFFCURVE",
"379 388 CURVE SMOOTH",
"162 388 LINE",
"162 348 LINE",
"379 348 LINE SMOOTH",
"424 348 OFFCURVE",
"427 300 OFFCURVE",
"431 251 CURVE"
);
}
);
};
components = (
{
name = E;
},
{
name = dotbelowcomb;
transform = "{1, 0, 0, 1, 287, -30}";
}
);
layerId = "C1FA819C-E964-464A-9760-8985A4BBBA06";
width = 553;
},
{
components = (
{
name = E;
},
{
name = dotbelowcomb;
transform = "{1, 0, 0, 1, 274, -12}";
}
);
layerId = "5A1050C4-4F08-4A6D-BA78-94A136104BF4";
width = 523;
},
{
background = {
paths = (
{
closed = 1;
nodes = (
"554 0 LINE",
"571 179 LINE",
"544 179 LINE",
"538 124 OFFCURVE",
"520 40 OFFCURVE",
"456 40 CURVE SMOOTH",
"201 40 LINE",
"201 659 LINE",
"441 659 LINE SMOOTH",
"516 659 OFFCURVE",
"525 567 OFFCURVE",
"528 527 CURVE",
"555 527 LINE",
"555 700 LINE",
"16 700 LINE",
"16 673 LINE",
"44 673 LINE SMOOTH",
"83 673 OFFCURVE",
"103 662 OFFCURVE",
"103 637 CURVE SMOOTH",
"103 62 LINE SMOOTH",
"103 37 OFFCURVE",
"83 26 OFFCURVE",
"44 26 CURVE SMOOTH",
"16 26 LINE",
"16 0 LINE"
);
},
{
closed = 1;
nodes = (
"343 -159 OFFCURVE",
"361 -140 OFFCURVE",
"361 -112 CURVE SMOOTH",
"361 -84 OFFCURVE",
"343 -64 OFFCURVE",
"315 -64 CURVE SMOOTH",
"287 -64 OFFCURVE",
"268 -84 OFFCURVE",
"268 -112 CURVE SMOOTH",
"268 -140 OFFCURVE",
"287 -159 OFFCURVE",
"315 -159 CURVE SMOOTH"
);
},
{
closed = 1;
nodes = (
"455 251 LINE",
"455 485 LINE",
"431 485 LINE",
"427 436 OFFCURVE",
"424 388 OFFCURVE",
"379 388 CURVE SMOOTH",
"162 388 LINE",
"162 348 LINE",
"379 348 LINE SMOOTH",
"424 348 OFFCURVE",
"427 300 OFFCURVE",
"431 251 CURVE"
);
}
);
};
components = (
{
name = E;
},
{
name = dotbelowcomb;
transform = "{1, 0, 0, 1, 267, 0}";
}
);
layerId = "DD5BE8D6-EC3D-4275-AA48-09C9275F1F3A";
width = 509;
}
);
note = Edotbelow;
rightKerningGroup = E;
unicode = 1EB8;
},
{
glyphname = Egrave;
lastChange = "2018-07-26 07:40:19 +0000";
layers = (
{
background = {
paths = (
{
closed = 1;
nodes = (
"554 0 LINE",
"571 179 LINE",
"544 179 LINE",
"538 124 OFFCURVE",
"520 40 OFFCURVE",
"456 40 CURVE SMOOTH",
"201 40 LINE",
"201 659 LINE",
"441 659 LINE SMOOTH",
"516 659 OFFCURVE",
"525 567 OFFCURVE",
"528 527 CURVE",
"555 527 LINE",
"555 700 LINE",
"16 700 LINE",
"16 673 LINE",
"44 673 LINE SMOOTH",
"83 673 OFFCURVE",
"103 662 OFFCURVE",
"103 637 CURVE SMOOTH",
"103 62 LINE SMOOTH",
"103 37 OFFCURVE",
"83 26 OFFCURVE",
"44 26 CURVE SMOOTH",
"16 26 LINE",
"16 0 LINE"
);
},
{
closed = 1;
nodes = (
"455 251 LINE",
"455 485 LINE",
"431 485 LINE",
"427 436 OFFCURVE",
"424 388 OFFCURVE",
"379 388 CURVE SMOOTH",
"162 388 LINE",
"162 348 LINE",
"379 348 LINE SMOOTH",
"424 348 OFFCURVE",
"427 300 OFFCURVE",
"431 251 CURVE"
);
},
{
closed = 1;
nodes = (
"425 807 LINE",
"310 913 LINE",
"301 922 OFFCURVE",
"285 937 OFFCURVE",
"265 937 CURVE SMOOTH",
"245 937 OFFCURVE",
"233 924 OFFCURVE",
"233 908 CURVE SMOOTH",
"233 890 OFFCURVE",
"245 876 OFFCURVE",
"264 865 CURVE SMOOTH",
"407 782 LINE"
);
}
);
};
components = (
{
name = E;
},
{
name = gravecomb;
transform = "{1, 0, 0, 1, 199, 230}";
}
);
layerId = "0B1DFD06-3317-40CA-B510-4969A0718C16";
width = 509;
},
{
background = {
paths = (
{
closed = 1;
nodes = (
"554 0 LINE",
"571 179 LINE",
"544 179 LINE",
"538 124 OFFCURVE",
"520 40 OFFCURVE",
"456 40 CURVE SMOOTH",
"201 40 LINE",
"201 659 LINE",
"441 659 LINE SMOOTH",
"516 659 OFFCURVE",
"525 567 OFFCURVE",
"528 527 CURVE",
"555 527 LINE",
"555 700 LINE",
"16 700 LINE",
"16 673 LINE",
"44 673 LINE SMOOTH",
"83 673 OFFCURVE",
"103 662 OFFCURVE",
"103 637 CURVE SMOOTH",
"103 62 LINE SMOOTH",
"103 37 OFFCURVE",
"83 26 OFFCURVE",
"44 26 CURVE SMOOTH",
"16 26 LINE",
"16 0 LINE"
);
},
{
closed = 1;
nodes = (
"455 251 LINE",
"455 485 LINE",
"431 485 LINE",
"427 436 OFFCURVE",
"424 388 OFFCURVE",
"379 388 CURVE SMOOTH",
"162 388 LINE",
"162 348 LINE",
"379 348 LINE SMOOTH",
"424 348 OFFCURVE",
"427 300 OFFCURVE",
"431 251 CURVE"
);
},
{
closed = 1;
nodes = (
"425 807 LINE",
"310 913 LINE",
"301 922 OFFCURVE",
"285 937 OFFCURVE",
"265 937 CURVE SMOOTH",
"245 937 OFFCURVE",
"233 924 OFFCURVE",
"233 908 CURVE SMOOTH",
"233 890 OFFCURVE",
"245 876 OFFCURVE",
"264 865 CURVE SMOOTH",
"407 782 LINE"
);
}
);
};
components = (
{
name = E;
},
{
name = gravecomb;
transform = "{1, 0, 0, 1, 223, 230}";
}
);
layerId = "39D19F74-97F3-4EB6-8D96-77117D45ABB1";
width = 553;
},
{
components = (
{
name = E;
},
{
name = gravecomb;
transform = "{1, 0, 0, 1, 207, 230}";
}
);
layerId = "62D79BA8-865E-4B23-88DF-F495C1A196AD";
width = 523;
},
{
background = {
paths = (
{
closed = 1;
nodes = (
"554 0 LINE",
"571 179 LINE",
"544 179 LINE",
"538 124 OFFCURVE",
"520 40 OFFCURVE",
"456 40 CURVE SMOOTH",
"201 40 LINE",
"201 659 LINE",
"441 659 LINE SMOOTH",
"516 659 OFFCURVE",
"525 567 OFFCURVE",
"528 527 CURVE",
"555 527 LINE",
"555 700 LINE",
"16 700 LINE",
"16 673 LINE",
"44 673 LINE SMOOTH",
"83 673 OFFCURVE",
"103 662 OFFCURVE",
"103 637 CURVE SMOOTH",
"103 62 LINE SMOOTH",
"103 37 OFFCURVE",
"83 26 OFFCURVE",
"44 26 CURVE SMOOTH",
"16 26 LINE",
"16 0 LINE"
);
},
{
closed = 1;
nodes = (
"455 251 LINE",
"455 485 LINE",
"431 485 LINE",
"427 436 OFFCURVE",
"424 388 OFFCURVE",
"379 388 CURVE SMOOTH",
"162 388 LINE",
"162 348 LINE",
"379 348 LINE SMOOTH",
"424 348 OFFCURVE",
"427 300 OFFCURVE",
"431 251 CURVE"
);
},
{
closed = 1;
nodes = (
"425 807 LINE",
"310 913 LINE",
"301 922 OFFCURVE",
"285 937 OFFCURVE",
"265 937 CURVE SMOOTH",
"245 937 OFFCURVE",
"233 924 OFFCURVE",
"233 908 CURVE SMOOTH",
"233 890 OFFCURVE",
"245 876 OFFCURVE",
"264 865 CURVE SMOOTH",
"407 782 LINE"
);
}
);
};
components = (
{
name = E;
},
{
name = gravecomb;
transform = "{1, 0, 0, 1, 265, 230}";
}
);
layerId = "C1FA819C-E964-464A-9760-8985A4BBBA06";
width = 553;
},
{
components = (
{
name = E;
},
{
name = gravecomb;
transform = "{1, 0, 0, 1, 249, 230}";
}
);
layerId = "5A1050C4-4F08-4A6D-BA78-94A136104BF4";
width = 523;
},
{
background = {
paths = (
{
closed = 1;
nodes = (
"554 0 LINE",
"571 179 LINE",
"544 179 LINE",
"538 124 OFFCURVE",
"520 40 OFFCURVE",
"456 40 CURVE SMOOTH",
"201 40 LINE",
"201 659 LINE",
"441 659 LINE SMOOTH",
"516 659 OFFCURVE",
"525 567 OFFCURVE",
"528 527 CURVE",
"555 527 LINE",
"555 700 LINE",
"16 700 LINE",
"16 673 LINE",
"44 673 LINE SMOOTH",
"83 673 OFFCURVE",
"103 662 OFFCURVE",
"103 637 CURVE SMOOTH",
"103 62 LINE SMOOTH",
"103 37 OFFCURVE",
"83 26 OFFCURVE",
"44 26 CURVE SMOOTH",
"16 26 LINE",
"16 0 LINE"
);
},
{
closed = 1;
nodes = (
"455 251 LINE",
"455 485 LINE",
"431 485 LINE",
"427 436 OFFCURVE",
"424 388 OFFCURVE",
"379 388 CURVE SMOOTH",
"162 388 LINE",
"162 348 LINE",
"379 348 LINE SMOOTH",
"424 348 OFFCURVE",
"427 300 OFFCURVE",
"431 251 CURVE"
);
},
{
closed = 1;
nodes = (
"425 807 LINE",
"310 913 LINE",
"301 922 OFFCURVE",
"285 937 OFFCURVE",
"265 937 CURVE SMOOTH",
"245 937 OFFCURVE",
"233 924 OFFCURVE",
"233 908 CURVE SMOOTH",
"233 890 OFFCURVE",
"245 876 OFFCURVE",
"264 865 CURVE SMOOTH",
"407 782 LINE"
);
}
);
};
components = (
{
name = E;
},
{
name = gravecomb;
transform = "{1, 0, 0, 1, 240, 230}";
}
);
layerId = "DD5BE8D6-EC3D-4275-AA48-09C9275F1F3A";
width = 509;
}
);
note = Egrave;
rightKerningGroup = E;
unicode = 00C8;
},
{
glyphname = Ehookabove;
lastChange = "2018-07-26 07:40:20 +0000";
layers = (
{
background = {
paths = (
{
closed = 1;
nodes = (
"554 0 LINE",
"571 179 LINE",
"544 179 LINE",
"538 124 OFFCURVE",
"520 40 OFFCURVE",
"456 40 CURVE SMOOTH",
"201 40 LINE",
"201 659 LINE",
"441 659 LINE SMOOTH",
"516 659 OFFCURVE",
"525 567 OFFCURVE",
"528 527 CURVE",
"555 527 LINE",
"555 700 LINE",
"16 700 LINE",
"16 673 LINE",
"44 673 LINE SMOOTH",
"83 673 OFFCURVE",
"103 662 OFFCURVE",
"103 637 CURVE SMOOTH",
"103 62 LINE SMOOTH",
"103 37 OFFCURVE",
"83 26 OFFCURVE",
"44 26 CURVE SMOOTH",
"16 26 LINE",
"16 0 LINE"
);
},
{
closed = 1;
nodes = (
"455 251 LINE",
"455 485 LINE",
"431 485 LINE",
"427 436 OFFCURVE",
"424 388 OFFCURVE",
"379 388 CURVE SMOOTH",
"162 388 LINE",
"162 348 LINE",
"379 348 LINE SMOOTH",
"424 348 OFFCURVE",
"427 300 OFFCURVE",
"431 251 CURVE"
);
},
{
closed = 1;
nodes = (
"367 798 LINE",
"348 805 OFFCURVE",
"336 811 OFFCURVE",
"336 828 CURVE SMOOTH",
"336 861 OFFCURVE",
"425 876 OFFCURVE",
"425 927 CURVE SMOOTH",
"425 969 OFFCURVE",
"389 991 OFFCURVE",
"336 991 CURVE SMOOTH",
"289 991 OFFCURVE",
"248 974 OFFCURVE",
"248 940 CURVE SMOOTH",
"248 923 OFFCURVE",
"256 915 OFFCURVE",
"271 915 CURVE SMOOTH",
"294 915 OFFCURVE",
"296 934 OFFCURVE",
"299 942 CURVE SMOOTH",
"304 956 OFFCURVE",
"321 962 OFFCURVE",
"337 962 CURVE SMOOTH",
"358 962 OFFCURVE",
"371 947 OFFCURVE",
"371 930 CURVE SMOOTH",
"371 885 OFFCURVE",
"289 874 OFFCURVE",
"289 828 CURVE SMOOTH",
"289 801 OFFCURVE",
"307 778 OFFCURVE",
"358 778 CURVE"
);
}
);
};
components = (
{
name = E;
},
{
name = hookabovecomb;
transform = "{1, 0, 0, 1, 5, 230}";
}
);
layerId = "0B1DFD06-3317-40CA-B510-4969A0718C16";
width = 509;
},
{
background = {
paths = (
{
closed = 1;
nodes = (
"554 0 LINE",
"571 179 LINE",
"544 179 LINE",
"538 124 OFFCURVE",
"520 40 OFFCURVE",
"456 40 CURVE SMOOTH",
"201 40 LINE",
"201 659 LINE",
"441 659 LINE SMOOTH",
"516 659 OFFCURVE",
"525 567 OFFCURVE",
"528 527 CURVE",
"555 527 LINE",
"555 700 LINE",
"16 700 LINE",
"16 673 LINE",
"44 673 LINE SMOOTH",
"83 673 OFFCURVE",
"103 662 OFFCURVE",
"103 637 CURVE SMOOTH",
"103 62 LINE SMOOTH",
"103 37 OFFCURVE",
"83 26 OFFCURVE",
"44 26 CURVE SMOOTH",
"16 26 LINE",
"16 0 LINE"
);
},
{
closed = 1;
nodes = (
"455 251 LINE",
"455 485 LINE",
"431 485 LINE",
"427 436 OFFCURVE",
"424 388 OFFCURVE",
"379 388 CURVE SMOOTH",
"162 388 LINE",
"162 348 LINE",
"379 348 LINE SMOOTH",
"424 348 OFFCURVE",
"427 300 OFFCURVE",
"431 251 CURVE"
);
},
{
closed = 1;
nodes = (
"367 798 LINE",
"348 805 OFFCURVE",
"336 811 OFFCURVE",
"336 828 CURVE SMOOTH",
"336 861 OFFCURVE",
"425 876 OFFCURVE",
"425 927 CURVE SMOOTH",
"425 969 OFFCURVE",
"389 991 OFFCURVE",
"336 991 CURVE SMOOTH",
"289 991 OFFCURVE",
"248 974 OFFCURVE",
"248 940 CURVE SMOOTH",
"248 923 OFFCURVE",
"256 915 OFFCURVE",
"271 915 CURVE SMOOTH",
"294 915 OFFCURVE",
"296 934 OFFCURVE",
"299 942 CURVE SMOOTH",
"304 956 OFFCURVE",
"321 962 OFFCURVE",
"337 962 CURVE SMOOTH",
"358 962 OFFCURVE",
"371 947 OFFCURVE",
"371 930 CURVE SMOOTH",
"371 885 OFFCURVE",
"289 874 OFFCURVE",
"289 828 CURVE SMOOTH",
"289 801 OFFCURVE",
"307 778 OFFCURVE",
"358 778 CURVE"
);
}
);
};
components = (
{
name = E;
},
{
name = hookabovecomb;
transform = "{1, 0, 0, 1, 117, 230}";
}
);
layerId = "39D19F74-97F3-4EB6-8D96-77117D45ABB1";
width = 553;
},
{
components = (
{
name = E;
},
{
name = hookabovecomb;
transform = "{1, 0, 0, 1, 48, 230}";
}
);
layerId = "62D79BA8-865E-4B23-88DF-F495C1A196AD";
width = 523;
},
{
background = {
paths = (
{
closed = 1;
nodes = (
"554 0 LINE",
"571 179 LINE",
"544 179 LINE",
"538 124 OFFCURVE",
"520 40 OFFCURVE",
"456 40 CURVE SMOOTH",
"201 40 LINE",
"201 659 LINE",
"441 659 LINE SMOOTH",
"516 659 OFFCURVE",
"525 567 OFFCURVE",
"528 527 CURVE",
"555 527 LINE",
"555 700 LINE",
"16 700 LINE",
"16 673 LINE",
"44 673 LINE SMOOTH",
"83 673 OFFCURVE",
"103 662 OFFCURVE",
"103 637 CURVE SMOOTH",
"103 62 LINE SMOOTH",
"103 37 OFFCURVE",
"83 26 OFFCURVE",
"44 26 CURVE SMOOTH",
"16 26 LINE",
"16 0 LINE"
);
},
{
closed = 1;
nodes = (
"455 251 LINE",
"455 485 LINE",
"431 485 LINE",
"427 436 OFFCURVE",
"424 388 OFFCURVE",
"379 388 CURVE SMOOTH",
"162 388 LINE",
"162 348 LINE",
"379 348 LINE SMOOTH",
"424 348 OFFCURVE",
"427 300 OFFCURVE",
"431 251 CURVE"
);
},
{
closed = 1;
nodes = (
"367 798 LINE",
"348 805 OFFCURVE",
"336 811 OFFCURVE",
"336 828 CURVE SMOOTH",
"336 861 OFFCURVE",
"425 876 OFFCURVE",
"425 927 CURVE SMOOTH",
"425 969 OFFCURVE",
"389 991 OFFCURVE",
"336 991 CURVE SMOOTH",
"289 991 OFFCURVE",
"248 974 OFFCURVE",
"248 940 CURVE SMOOTH",
"248 923 OFFCURVE",
"256 915 OFFCURVE",
"271 915 CURVE SMOOTH",
"294 915 OFFCURVE",
"296 934 OFFCURVE",
"299 942 CURVE SMOOTH",
"304 956 OFFCURVE",
"321 962 OFFCURVE",
"337 962 CURVE SMOOTH",
"358 962 OFFCURVE",
"371 947 OFFCURVE",
"371 930 CURVE SMOOTH",
"371 885 OFFCURVE",
"289 874 OFFCURVE",
"289 828 CURVE SMOOTH",
"289 801 OFFCURVE",
"307 778 OFFCURVE",
"358 778 CURVE"
);
}
);
};
components = (
{
name = E;
},
{
name = hookabovecomb;
transform = "{1, 0, 0, 1, 160, 230}";
}
);
layerId = "C1FA819C-E964-464A-9760-8985A4BBBA06";
width = 553;
},
{
components = (
{
name = E;
},
{
name = hookabovecomb;
transform = "{1, 0, 0, 1, 90, 230}";
}
);
layerId = "5A1050C4-4F08-4A6D-BA78-94A136104BF4";
width = 523;
},
{
background = {
paths = (
{
closed = 1;
nodes = (
"554 0 LINE",
"571 179 LINE",
"544 179 LINE",
"538 124 OFFCURVE",
"520 40 OFFCURVE",
"456 40 CURVE SMOOTH",
"201 40 LINE",
"201 659 LINE",
"441 659 LINE SMOOTH",
"516 659 OFFCURVE",
"525 567 OFFCURVE",
"528 527 CURVE",
"555 527 LINE",
"555 700 LINE",
"16 700 LINE",
"16 673 LINE",
"44 673 LINE SMOOTH",
"83 673 OFFCURVE",
"103 662 OFFCURVE",
"103 637 CURVE SMOOTH",
"103 62 LINE SMOOTH",
"103 37 OFFCURVE",
"83 26 OFFCURVE",
"44 26 CURVE SMOOTH",
"16 26 LINE",
"16 0 LINE"
);
},
{
closed = 1;
nodes = (
"455 251 LINE",
"455 485 LINE",
"431 485 LINE",
"427 436 OFFCURVE",
"424 388 OFFCURVE",
"379 388 CURVE SMOOTH",
"162 388 LINE",
"162 348 LINE",
"379 348 LINE SMOOTH",
"424 348 OFFCURVE",
"427 300 OFFCURVE",
"431 251 CURVE"
);
},
{
closed = 1;
nodes = (
"367 798 LINE",
"348 805 OFFCURVE",
"336 811 OFFCURVE",
"336 828 CURVE SMOOTH",
"336 861 OFFCURVE",
"425 876 OFFCURVE",
"425 927 CURVE SMOOTH",
"425 969 OFFCURVE",
"389 991 OFFCURVE",
"336 991 CURVE SMOOTH",
"289 991 OFFCURVE",
"248 974 OFFCURVE",
"248 940 CURVE SMOOTH",
"248 923 OFFCURVE",
"256 915 OFFCURVE",
"271 915 CURVE SMOOTH",
"294 915 OFFCURVE",
"296 934 OFFCURVE",
"299 942 CURVE SMOOTH",
"304 956 OFFCURVE",
"321 962 OFFCURVE",
"337 962 CURVE SMOOTH",
"358 962 OFFCURVE",
"371 947 OFFCURVE",
"371 930 CURVE SMOOTH",
"371 885 OFFCURVE",
"289 874 OFFCURVE",
"289 828 CURVE SMOOTH",
"289 801 OFFCURVE",
"307 778 OFFCURVE",
"358 778 CURVE"
);
}
);
};
components = (
{
name = E;
},
{
name = hookabovecomb;
transform = "{1, 0, 0, 1, 46, 230}";
}
);
layerId = "DD5BE8D6-EC3D-4275-AA48-09C9275F1F3A";
width = 509;
}
);
note = Ehookabove;
rightKerningGroup = E;
unicode = 1EBA;
},
{
glyphname = Emacron;
lastChange = "2018-07-26 07:40:20 +0000";
layers = (
{
background = {
paths = (
{
closed = 1;
nodes = (
"554 0 LINE",
"571 179 LINE",
"544 179 LINE",
"538 124 OFFCURVE",
"520 40 OFFCURVE",
"456 40 CURVE SMOOTH",
"201 40 LINE",
"201 659 LINE",
"441 659 LINE SMOOTH",
"516 659 OFFCURVE",
"525 567 OFFCURVE",
"528 527 CURVE",
"555 527 LINE",
"555 700 LINE",
"16 700 LINE",
"16 673 LINE",
"44 673 LINE SMOOTH",
"83 673 OFFCURVE",
"103 662 OFFCURVE",
"103 637 CURVE SMOOTH",
"103 62 LINE SMOOTH",
"103 37 OFFCURVE",
"83 26 OFFCURVE",
"44 26 CURVE SMOOTH",
"16 26 LINE",
"16 0 LINE"
);
},
{
closed = 1;
nodes = (
"455 251 LINE",
"455 485 LINE",
"431 485 LINE",
"427 436 OFFCURVE",
"424 388 OFFCURVE",
"379 388 CURVE SMOOTH",
"162 388 LINE",
"162 348 LINE",
"379 348 LINE SMOOTH",
"424 348 OFFCURVE",
"427 300 OFFCURVE",
"431 251 CURVE"
);
},
{
closed = 1;
nodes = (
"495 782 LINE",
"495 824 LINE",
"162 824 LINE",
"162 782 LINE"
);
}
);
};
components = (
{
name = E;
},
{
name = macroncomb;
transform = "{1, 0, 0, 1, 265, 230}";
}
);
layerId = "0B1DFD06-3317-40CA-B510-4969A0718C16";
width = 509;
},
{
background = {
paths = (
{
closed = 1;
nodes = (
"554 0 LINE",
"571 179 LINE",
"544 179 LINE",
"538 124 OFFCURVE",
"520 40 OFFCURVE",
"456 40 CURVE SMOOTH",
"201 40 LINE",
"201 659 LINE",
"441 659 LINE SMOOTH",
"516 659 OFFCURVE",
"525 567 OFFCURVE",
"528 527 CURVE",
"555 527 LINE",
"555 700 LINE",
"16 700 LINE",
"16 673 LINE",
"44 673 LINE SMOOTH",
"83 673 OFFCURVE",
"103 662 OFFCURVE",
"103 637 CURVE SMOOTH",
"103 62 LINE SMOOTH",
"103 37 OFFCURVE",
"83 26 OFFCURVE",
"44 26 CURVE SMOOTH",
"16 26 LINE",
"16 0 LINE"
);
},
{
closed = 1;
nodes = (
"455 251 LINE",
"455 485 LINE",
"431 485 LINE",
"427 436 OFFCURVE",
"424 388 OFFCURVE",
"379 388 CURVE SMOOTH",
"162 388 LINE",
"162 348 LINE",
"379 348 LINE SMOOTH",
"424 348 OFFCURVE",
"427 300 OFFCURVE",
"431 251 CURVE"
);
},
{
closed = 1;
nodes = (
"495 782 LINE",
"495 824 LINE",
"162 824 LINE",
"162 782 LINE"
);
}
);
};
components = (
{
name = E;
},
{
name = macroncomb;
transform = "{1, 0, 0, 1, 289, 230}";
}
);
layerId = "39D19F74-97F3-4EB6-8D96-77117D45ABB1";
width = 553;
},
{
components = (
{
name = E;
},
{
name = macroncomb;
transform = "{1, 0, 0, 1, 273, 230}";
}
);
layerId = "62D79BA8-865E-4B23-88DF-F495C1A196AD";
width = 523;
},
{
background = {
paths = (
{
closed = 1;
nodes = (
"554 0 LINE",
"571 179 LINE",
"544 179 LINE",
"538 124 OFFCURVE",
"520 40 OFFCURVE",
"456 40 CURVE SMOOTH",
"201 40 LINE",
"201 659 LINE",
"441 659 LINE SMOOTH",
"516 659 OFFCURVE",
"525 567 OFFCURVE",
"528 527 CURVE",
"555 527 LINE",
"555 700 LINE",
"16 700 LINE",
"16 673 LINE",
"44 673 LINE SMOOTH",
"83 673 OFFCURVE",
"103 662 OFFCURVE",
"103 637 CURVE SMOOTH",
"103 62 LINE SMOOTH",
"103 37 OFFCURVE",
"83 26 OFFCURVE",
"44 26 CURVE SMOOTH",
"16 26 LINE",
"16 0 LINE"
);
},
{
closed = 1;
nodes = (
"455 251 LINE",
"455 485 LINE",
"431 485 LINE",
"427 436 OFFCURVE",
"424 388 OFFCURVE",
"379 388 CURVE SMOOTH",
"162 388 LINE",
"162 348 LINE",
"379 348 LINE SMOOTH",
"424 348 OFFCURVE",
"427 300 OFFCURVE",
"431 251 CURVE"
);
},
{
closed = 1;
nodes = (
"495 782 LINE",
"495 824 LINE",
"162 824 LINE",
"162 782 LINE"
);
}
);
};
components = (
{
name = E;
},
{
name = macroncomb;
transform = "{1, 0, 0, 1, 331, 230}";
}
);
layerId = "C1FA819C-E964-464A-9760-8985A4BBBA06";
width = 553;
},
{
components = (
{
name = E;
},
{
name = macroncomb;
transform = "{1, 0, 0, 1, 315, 230}";
}
);
layerId = "5A1050C4-4F08-4A6D-BA78-94A136104BF4";
width = 523;
},
{
background = {
paths = (
{
closed = 1;
nodes = (
"554 0 LINE",
"571 179 LINE",
"544 179 LINE",
"538 124 OFFCURVE",
"520 40 OFFCURVE",
"456 40 CURVE SMOOTH",
"201 40 LINE",
"201 659 LINE",
"441 659 LINE SMOOTH",
"516 659 OFFCURVE",
"525 567 OFFCURVE",
"528 527 CURVE",
"555 527 LINE",
"555 700 LINE",
"16 700 LINE",
"16 673 LINE",
"44 673 LINE SMOOTH",
"83 673 OFFCURVE",
"103 662 OFFCURVE",
"103 637 CURVE SMOOTH",
"103 62 LINE SMOOTH",
"103 37 OFFCURVE",
"83 26 OFFCURVE",
"44 26 CURVE SMOOTH",
"16 26 LINE",
"16 0 LINE"
);
},
{
closed = 1;
nodes = (
"455 251 LINE",
"455 485 LINE",
"431 485 LINE",
"427 436 OFFCURVE",
"424 388 OFFCURVE",
"379 388 CURVE SMOOTH",
"162 388 LINE",
"162 348 LINE",
"379 348 LINE SMOOTH",
"424 348 OFFCURVE",
"427 300 OFFCURVE",
"431 251 CURVE"
);
},
{
closed = 1;
nodes = (
"495 782 LINE",
"495 824 LINE",
"162 824 LINE",
"162 782 LINE"
);
}
);
};
components = (
{
name = E;
},
{
name = macroncomb;
transform = "{1, 0, 0, 1, 306, 230}";
}
);
layerId = "DD5BE8D6-EC3D-4275-AA48-09C9275F1F3A";
width = 509;
}
);
note = Emacron;
rightKerningGroup = E;
unicode = 0112;
},
{
glyphname = Eogonek;
lastChange = "2018-07-26 07:40:21 +0000";
layers = (
{
background = {
paths = (
{
closed = 1;
nodes = (
"554 0 LINE",
"571 179 LINE",
"544 179 LINE",
"538 124 OFFCURVE",
"520 40 OFFCURVE",
"456 40 CURVE SMOOTH",
"201 40 LINE",
"201 659 LINE",
"441 659 LINE SMOOTH",
"516 659 OFFCURVE",
"525 567 OFFCURVE",
"528 527 CURVE",
"555 527 LINE",
"555 700 LINE",
"16 700 LINE",
"16 673 LINE",
"44 673 LINE SMOOTH",
"83 673 OFFCURVE",
"103 662 OFFCURVE",
"103 637 CURVE SMOOTH",
"103 62 LINE SMOOTH",
"103 37 OFFCURVE",
"83 26 OFFCURVE",
"44 26 CURVE SMOOTH",
"16 26 LINE",
"16 0 LINE"
);
},
{
closed = 1;
nodes = (
"496 -196 OFFCURVE",
"524 -189 OFFCURVE",
"549 -172 CURVE",
"543 -152 LINE",
"527 -158 OFFCURVE",
"510 -162 OFFCURVE",
"497 -162 CURVE SMOOTH",
"464 -162 OFFCURVE",
"437 -146 OFFCURVE",
"437 -106 CURVE SMOOTH",
"437 -66 OFFCURVE",
"464 -26 OFFCURVE",
"510 4 CURVE",
"469 4 LINE",
"416 -22 OFFCURVE",
"376 -64 OFFCURVE",
"376 -114 CURVE SMOOTH",
"376 -147 OFFCURVE",
"395 -196 OFFCURVE",
"470 -196 CURVE SMOOTH"
);
},
{
closed = 1;
nodes = (
"455 251 LINE",
"455 485 LINE",
"431 485 LINE",
"427 436 OFFCURVE",
"424 388 OFFCURVE",
"379 388 CURVE SMOOTH",
"162 388 LINE",
"162 348 LINE",
"379 348 LINE SMOOTH",
"424 348 OFFCURVE",
"427 300 OFFCURVE",
"431 251 CURVE"
);
}
);
};
components = (
{
name = E;
},
{
name = ogonekcomb;
transform = "{1, 0, 0, 1, 412, 0}";
}
);
layerId = "0B1DFD06-3317-40CA-B510-4969A0718C16";
width = 509;
},
{
background = {
paths = (
{
closed = 1;
nodes = (
"554 0 LINE",
"571 179 LINE",
"544 179 LINE",
"538 124 OFFCURVE",
"520 40 OFFCURVE",
"456 40 CURVE SMOOTH",
"201 40 LINE",
"201 659 LINE",
"441 659 LINE SMOOTH",
"516 659 OFFCURVE",
"525 567 OFFCURVE",
"528 527 CURVE",
"555 527 LINE",
"555 700 LINE",
"16 700 LINE",
"16 673 LINE",
"44 673 LINE SMOOTH",
"83 673 OFFCURVE",
"103 662 OFFCURVE",
"103 637 CURVE SMOOTH",
"103 62 LINE SMOOTH",
"103 37 OFFCURVE",
"83 26 OFFCURVE",
"44 26 CURVE SMOOTH",
"16 26 LINE",
"16 0 LINE"
);
},
{
closed = 1;
nodes = (
"496 -196 OFFCURVE",
"524 -189 OFFCURVE",
"549 -172 CURVE",
"543 -152 LINE",
"527 -158 OFFCURVE",
"510 -162 OFFCURVE",
"497 -162 CURVE SMOOTH",
"464 -162 OFFCURVE",
"437 -146 OFFCURVE",
"437 -106 CURVE SMOOTH",
"437 -66 OFFCURVE",
"464 -26 OFFCURVE",
"510 4 CURVE",
"469 4 LINE",
"416 -22 OFFCURVE",
"376 -64 OFFCURVE",
"376 -114 CURVE SMOOTH",
"376 -147 OFFCURVE",
"395 -196 OFFCURVE",
"470 -196 CURVE SMOOTH"
);
},
{
closed = 1;
nodes = (
"455 251 LINE",
"455 485 LINE",
"431 485 LINE",
"427 436 OFFCURVE",
"424 388 OFFCURVE",
"379 388 CURVE SMOOTH",
"162 388 LINE",
"162 348 LINE",
"379 348 LINE SMOOTH",
"424 348 OFFCURVE",
"427 300 OFFCURVE",
"431 251 CURVE"
);
}
);
};
components = (
{
name = E;
},
{
name = ogonekcomb;
transform = "{1, 0, 0, 1, 436, 0}";
}
);
layerId = "39D19F74-97F3-4EB6-8D96-77117D45ABB1";
width = 553;
},
{
components = (
{
name = E;
},
{
name = ogonekcomb;
transform = "{1, 0, 0, 1, 420, 0}";
}
);
layerId = "62D79BA8-865E-4B23-88DF-F495C1A196AD";
width = 523;
},
{
background = {
paths = (
{
closed = 1;
nodes = (
"554 0 LINE",
"571 179 LINE",
"544 179 LINE",
"538 124 OFFCURVE",
"520 40 OFFCURVE",
"456 40 CURVE SMOOTH",
"201 40 LINE",
"201 659 LINE",
"441 659 LINE SMOOTH",
"516 659 OFFCURVE",
"525 567 OFFCURVE",
"528 527 CURVE",
"555 527 LINE",
"555 700 LINE",
"16 700 LINE",
"16 673 LINE",
"44 673 LINE SMOOTH",
"83 673 OFFCURVE",
"103 662 OFFCURVE",
"103 637 CURVE SMOOTH",
"103 62 LINE SMOOTH",
"103 37 OFFCURVE",
"83 26 OFFCURVE",
"44 26 CURVE SMOOTH",
"16 26 LINE",
"16 0 LINE"
);
},
{
closed = 1;
nodes = (
"496 -196 OFFCURVE",
"524 -189 OFFCURVE",
"549 -172 CURVE",
"543 -152 LINE",
"527 -158 OFFCURVE",
"510 -162 OFFCURVE",
"497 -162 CURVE SMOOTH",
"464 -162 OFFCURVE",
"437 -146 OFFCURVE",
"437 -106 CURVE SMOOTH",
"437 -66 OFFCURVE",
"464 -26 OFFCURVE",
"510 4 CURVE",
"469 4 LINE",
"416 -22 OFFCURVE",
"376 -64 OFFCURVE",
"376 -114 CURVE SMOOTH",
"376 -147 OFFCURVE",
"395 -196 OFFCURVE",
"470 -196 CURVE SMOOTH"
);
},
{
closed = 1;
nodes = (
"455 251 LINE",
"455 485 LINE",
"431 485 LINE",
"427 436 OFFCURVE",
"424 388 OFFCURVE",
"379 388 CURVE SMOOTH",
"162 388 LINE",
"162 348 LINE",
"379 348 LINE SMOOTH",
"424 348 OFFCURVE",
"427 300 OFFCURVE",
"431 251 CURVE"
);
}
);
};
components = (
{
name = E;
},
{
name = ogonekcomb;
transform = "{1, 0, 0, 1, 439, 0}";
}
);
layerId = "C1FA819C-E964-464A-9760-8985A4BBBA06";
width = 553;
},
{
components = (
{
name = E;
},
{
name = ogonekcomb;
transform = "{1, 0, 0, 1, 422, 0}";
}
);
layerId = "5A1050C4-4F08-4A6D-BA78-94A136104BF4";
width = 523;
},
{
background = {
paths = (
{
closed = 1;
nodes = (
"554 0 LINE",
"571 179 LINE",
"544 179 LINE",
"538 124 OFFCURVE",
"520 40 OFFCURVE",
"456 40 CURVE SMOOTH",
"201 40 LINE",
"201 659 LINE",
"441 659 LINE SMOOTH",
"516 659 OFFCURVE",
"525 567 OFFCURVE",
"528 527 CURVE",
"555 527 LINE",
"555 700 LINE",
"16 700 LINE",
"16 673 LINE",
"44 673 LINE SMOOTH",
"83 673 OFFCURVE",
"103 662 OFFCURVE",
"103 637 CURVE SMOOTH",
"103 62 LINE SMOOTH",
"103 37 OFFCURVE",
"83 26 OFFCURVE",
"44 26 CURVE SMOOTH",
"16 26 LINE",
"16 0 LINE"
);
},
{
closed = 1;
nodes = (
"496 -196 OFFCURVE",
"524 -189 OFFCURVE",
"549 -172 CURVE",
"543 -152 LINE",
"527 -158 OFFCURVE",
"510 -162 OFFCURVE",
"497 -162 CURVE SMOOTH",
"464 -162 OFFCURVE",
"437 -146 OFFCURVE",
"437 -106 CURVE SMOOTH",
"437 -66 OFFCURVE",
"464 -26 OFFCURVE",
"510 4 CURVE",
"469 4 LINE",
"416 -22 OFFCURVE",
"376 -64 OFFCURVE",
"376 -114 CURVE SMOOTH",
"376 -147 OFFCURVE",
"395 -196 OFFCURVE",
"470 -196 CURVE SMOOTH"
);
},
{
closed = 1;
nodes = (
"455 251 LINE",
"455 485 LINE",
"431 485 LINE",
"427 436 OFFCURVE",
"424 388 OFFCURVE",
"379 388 CURVE SMOOTH",
"162 388 LINE",
"162 348 LINE",
"379 348 LINE SMOOTH",
"424 348 OFFCURVE",
"427 300 OFFCURVE",
"431 251 CURVE"
);
}
);
};
components = (
{
name = E;
},
{
name = ogonekcomb;
transform = "{1, 0, 0, 1, 413, 0}";
}
);
layerId = "DD5BE8D6-EC3D-4275-AA48-09C9275F1F3A";
width = 509;
}
);
note = Eogonek;
rightKerningGroup = E;
unicode = 0118;
},
{
glyphname = Etilde;
lastChange = "2018-07-26 07:40:29 +0000";
layers = (
{
background = {
paths = (
{
closed = 1;
nodes = (
"554 0 LINE",
"571 179 LINE",
"544 179 LINE",
"538 124 OFFCURVE",
"520 40 OFFCURVE",
"456 40 CURVE SMOOTH",
"201 40 LINE",
"201 659 LINE",
"441 659 LINE SMOOTH",
"516 659 OFFCURVE",
"525 567 OFFCURVE",
"528 527 CURVE",
"555 527 LINE",
"555 700 LINE",
"16 700 LINE",
"16 673 LINE",
"44 673 LINE SMOOTH",
"83 673 OFFCURVE",
"103 662 OFFCURVE",
"103 637 CURVE SMOOTH",
"103 62 LINE SMOOTH",
"103 37 OFFCURVE",
"83 26 OFFCURVE",
"44 26 CURVE SMOOTH",
"16 26 LINE",
"16 0 LINE"
);
},
{
closed = 1;
nodes = (
"455 251 LINE",
"455 485 LINE",
"431 485 LINE",
"427 436 OFFCURVE",
"424 388 OFFCURVE",
"379 388 CURVE SMOOTH",
"162 388 LINE",
"162 348 LINE",
"379 348 LINE SMOOTH",
"424 348 OFFCURVE",
"427 300 OFFCURVE",
"431 251 CURVE"
);
},
{
closed = 1;
nodes = (
"190 817 OFFCURVE",
"208 838 OFFCURVE",
"241 838 CURVE SMOOTH",
"292 838 OFFCURVE",
"341 784 OFFCURVE",
"392 784 CURVE SMOOTH",
"450 784 OFFCURVE",
"480 832 OFFCURVE",
"492 884 CURVE",
"471 895 LINE",
"455 855 OFFCURVE",
"439 833 OFFCURVE",
"405 833 CURVE SMOOTH",
"356 833 OFFCURVE",
"304 886 OFFCURVE",
"253 886 CURVE SMOOTH",
"199 886 OFFCURVE",
"166 842 OFFCURVE",
"154 790 CURVE",
"176 779 LINE"
);
}
);
};
components = (
{
name = E;
},
{
name = tildecomb;
transform = "{1, 0, 0, 1, 265, 230}";
}
);
layerId = "0B1DFD06-3317-40CA-B510-4969A0718C16";
width = 509;
},
{
background = {
paths = (
{
closed = 1;
nodes = (
"554 0 LINE",
"571 179 LINE",
"544 179 LINE",
"538 124 OFFCURVE",
"520 40 OFFCURVE",
"456 40 CURVE SMOOTH",
"201 40 LINE",
"201 659 LINE",
"441 659 LINE SMOOTH",
"516 659 OFFCURVE",
"525 567 OFFCURVE",
"528 527 CURVE",
"555 527 LINE",
"555 700 LINE",
"16 700 LINE",
"16 673 LINE",
"44 673 LINE SMOOTH",
"83 673 OFFCURVE",
"103 662 OFFCURVE",
"103 637 CURVE SMOOTH",
"103 62 LINE SMOOTH",
"103 37 OFFCURVE",
"83 26 OFFCURVE",
"44 26 CURVE SMOOTH",
"16 26 LINE",
"16 0 LINE"
);
},
{
closed = 1;
nodes = (
"455 251 LINE",
"455 485 LINE",
"431 485 LINE",
"427 436 OFFCURVE",
"424 388 OFFCURVE",
"379 388 CURVE SMOOTH",
"162 388 LINE",
"162 348 LINE",
"379 348 LINE SMOOTH",
"424 348 OFFCURVE",
"427 300 OFFCURVE",
"431 251 CURVE"
);
},
{
closed = 1;
nodes = (
"190 817 OFFCURVE",
"208 838 OFFCURVE",
"241 838 CURVE SMOOTH",
"292 838 OFFCURVE",
"341 784 OFFCURVE",
"392 784 CURVE SMOOTH",
"450 784 OFFCURVE",
"480 832 OFFCURVE",
"492 884 CURVE",
"471 895 LINE",
"455 855 OFFCURVE",
"439 833 OFFCURVE",
"405 833 CURVE SMOOTH",
"356 833 OFFCURVE",
"304 886 OFFCURVE",
"253 886 CURVE SMOOTH",
"199 886 OFFCURVE",
"166 842 OFFCURVE",
"154 790 CURVE",
"176 779 LINE"
);
}
);
};
components = (
{
name = E;
},
{
name = tildecomb;
transform = "{1, 0, 0, 1, 289, 230}";
}
);
layerId = "39D19F74-97F3-4EB6-8D96-77117D45ABB1";
width = 553;
},
{
components = (
{
name = E;
},
{
name = tildecomb;
transform = "{1, 0, 0, 1, 273, 230}";
}
);
layerId = "62D79BA8-865E-4B23-88DF-F495C1A196AD";
width = 523;
},
{
background = {
paths = (
{
closed = 1;
nodes = (
"554 0 LINE",
"571 179 LINE",
"544 179 LINE",
"538 124 OFFCURVE",
"520 40 OFFCURVE",
"456 40 CURVE SMOOTH",
"201 40 LINE",
"201 659 LINE",
"441 659 LINE SMOOTH",
"516 659 OFFCURVE",
"525 567 OFFCURVE",
"528 527 CURVE",
"555 527 LINE",
"555 700 LINE",
"16 700 LINE",
"16 673 LINE",
"44 673 LINE SMOOTH",
"83 673 OFFCURVE",
"103 662 OFFCURVE",
"103 637 CURVE SMOOTH",
"103 62 LINE SMOOTH",
"103 37 OFFCURVE",
"83 26 OFFCURVE",
"44 26 CURVE SMOOTH",
"16 26 LINE",
"16 0 LINE"
);
},
{
closed = 1;
nodes = (
"455 251 LINE",
"455 485 LINE",
"431 485 LINE",
"427 436 OFFCURVE",
"424 388 OFFCURVE",
"379 388 CURVE SMOOTH",
"162 388 LINE",
"162 348 LINE",
"379 348 LINE SMOOTH",
"424 348 OFFCURVE",
"427 300 OFFCURVE",
"431 251 CURVE"
);
},
{
closed = 1;
nodes = (
"190 817 OFFCURVE",
"208 838 OFFCURVE",
"241 838 CURVE SMOOTH",
"292 838 OFFCURVE",
"341 784 OFFCURVE",
"392 784 CURVE SMOOTH",
"450 784 OFFCURVE",
"480 832 OFFCURVE",
"492 884 CURVE",
"471 895 LINE",
"455 855 OFFCURVE",
"439 833 OFFCURVE",
"405 833 CURVE SMOOTH",
"356 833 OFFCURVE",
"304 886 OFFCURVE",
"253 886 CURVE SMOOTH",
"199 886 OFFCURVE",
"166 842 OFFCURVE",
"154 790 CURVE",
"176 779 LINE"
);
}
);
};
components = (
{
name = E;
},
{
name = tildecomb;
transform = "{1, 0, 0, 1, 331, 230}";
}
);
layerId = "C1FA819C-E964-464A-9760-8985A4BBBA06";
width = 553;
},
{
components = (
{
name = E;
},
{
name = tildecomb;
transform = "{1, 0, 0, 1, 315, 230}";
}
);
layerId = "5A1050C4-4F08-4A6D-BA78-94A136104BF4";
width = 523;
},
{
background = {
paths = (
{
closed = 1;
nodes = (
"554 0 LINE",
"571 179 LINE",
"544 179 LINE",
"538 124 OFFCURVE",
"520 40 OFFCURVE",
"456 40 CURVE SMOOTH",
"201 40 LINE",
"201 659 LINE",
"441 659 LINE SMOOTH",
"516 659 OFFCURVE",
"525 567 OFFCURVE",
"528 527 CURVE",
"555 527 LINE",
"555 700 LINE",
"16 700 LINE",
"16 673 LINE",
"44 673 LINE SMOOTH",
"83 673 OFFCURVE",
"103 662 OFFCURVE",
"103 637 CURVE SMOOTH",
"103 62 LINE SMOOTH",
"103 37 OFFCURVE",
"83 26 OFFCURVE",
"44 26 CURVE SMOOTH",
"16 26 LINE",
"16 0 LINE"
);
},
{
closed = 1;
nodes = (
"455 251 LINE",
"455 485 LINE",
"431 485 LINE",
"427 436 OFFCURVE",
"424 388 OFFCURVE",
"379 388 CURVE SMOOTH",
"162 388 LINE",
"162 348 LINE",
"379 348 LINE SMOOTH",
"424 348 OFFCURVE",
"427 300 OFFCURVE",
"431 251 CURVE"
);
},
{
closed = 1;
nodes = (
"190 817 OFFCURVE",
"208 838 OFFCURVE",
"241 838 CURVE SMOOTH",
"292 838 OFFCURVE",
"341 784 OFFCURVE",
"392 784 CURVE SMOOTH",
"450 784 OFFCURVE",
"480 832 OFFCURVE",
"492 884 CURVE",
"471 895 LINE",
"455 855 OFFCURVE",
"439 833 OFFCURVE",
"405 833 CURVE SMOOTH",
"356 833 OFFCURVE",
"304 886 OFFCURVE",
"253 886 CURVE SMOOTH",
"199 886 OFFCURVE",
"166 842 OFFCURVE",
"154 790 CURVE",
"176 779 LINE"
);
}
);
};
components = (
{
name = E;
},
{
name = tildecomb;
transform = "{1, 0, 0, 1, 306, 230}";
}
);
layerId = "DD5BE8D6-EC3D-4275-AA48-09C9275F1F3A";
width = 509;
}
);
note = Etilde;
rightKerningGroup = E;
unicode = 1EBC;
},
{
glyphname = F;
lastChange = "2018-07-09 13:29:34 +0000";
layers = (
{
anchors = (
{
name = bottom;
position = "{245, 0}";
},
{
name = top;
position = "{245, 700}";
}
);
layerId = "0B1DFD06-3317-40CA-B510-4969A0718C16";
paths = (
{
closed = 1;
nodes = (
"135 0 LINE",
"135 334 LINE",
"361 334 LINE",
"361 380 LINE",
"135 380 LINE",
"135 654 LINE",
"445 654 LINE",
"445 700 LINE",
"116 700 LINE",
"109 709 OFFCURVE",
"97 718 OFFCURVE",
"91 718 CURVE SMOOTH",
"72 718 OFFCURVE",
"59 696 OFFCURVE",
"56 687 CURVE",
"51 669 OFFCURVE",
"81 666 OFFCURVE",
"81 631 CURVE SMOOTH",
"81 0 LINE"
);
}
);
width = 490;
},
{
anchors = (
{
name = bottom;
position = "{242, 0}";
},
{
name = top;
position = "{242, 700}";
}
);
background = {
anchors = (
{
name = bottom;
position = "{242, 0}";
},
{
name = top;
position = "{242, 700}";
}
);
paths = (
{
closed = 1;
nodes = (
"78 0 LINE",
"132 0 LINE",
"132 334 LINE",
"358 334 LINE",
"358 380 LINE",
"132 380 LINE",
"132 654 LINE",
"442 654 LINE",
"442 700 LINE",
"113 700 LINE",
"106 709 OFFCURVE",
"94 718 OFFCURVE",
"88 718 CURVE SMOOTH",
"69 718 OFFCURVE",
"56 696 OFFCURVE",
"53 687 CURVE",
"48 669 OFFCURVE",
"78 666 OFFCURVE",
"78 631 CURVE SMOOTH"
);
}
);
};
layerId = "39D19F74-97F3-4EB6-8D96-77117D45ABB1";
paths = (
{
closed = 1;
nodes = (
"199 0 LINE",
"199 299 LINE",
"425 299 LINE",
"425 409 LINE",
"199 409 LINE",
"199 584 LINE",
"509 584 LINE",
"509 700 LINE",
"140 700 LINE",
"129 712 OFFCURVE",
"118 718 OFFCURVE",
"102 718 CURVE SMOOTH",
"73 718 OFFCURVE",
"46 682 OFFCURVE",
"37 655 CURVE SMOOTH",
"27 625 OFFCURVE",
"65 635 OFFCURVE",
"65 576 CURVE SMOOTH",
"65 0 LINE"
);
}
);
width = 544;
},
{
anchors = (
{
name = bottom;
position = "{242, 0}";
},
{
name = top;
position = "{242, 700}";
}
);
layerId = "62D79BA8-865E-4B23-88DF-F495C1A196AD";
paths = (
{
closed = 1;
nodes = (
"159 0 LINE",
"159 320 LINE",
"385 320 LINE",
"385 392 LINE",
"159 392 LINE",
"159 626 LINE",
"469 626 LINE",
"469 700 LINE",
"124 700 LINE",
"115 710 OFFCURVE",
"103 718 OFFCURVE",
"93 718 CURVE SMOOTH",
"70 718 OFFCURVE",
"52 690 OFFCURVE",
"46 674 CURVE SMOOTH",
"39 651 OFFCURVE",
"73 654 OFFCURVE",
"73 609 CURVE SMOOTH",
"73 0 LINE"
);
}
);
width = 514;
},
{
anchors = (
{
name = bottom;
position = "{201, 0}";
},
{
name = top;
position = "{386, 700}";
}
);
background = {
anchors = (
{
name = bottom;
position = "{242, 0}";
},
{
name = top;
position = "{242, 700}";
}
);
paths = (
{
closed = 1;
nodes = (
"78 0 LINE",
"132 0 LINE",
"132 334 LINE",
"358 334 LINE",
"358 380 LINE",
"132 380 LINE",
"132 654 LINE",
"442 654 LINE",
"442 700 LINE",
"113 700 LINE",
"106 709 OFFCURVE",
"94 718 OFFCURVE",
"88 718 CURVE SMOOTH",
"69 718 OFFCURVE",
"56 696 OFFCURVE",
"53 687 CURVE",
"48 669 OFFCURVE",
"78 666 OFFCURVE",
"78 631 CURVE SMOOTH"
);
}
);
};
layerId = "C1FA819C-E964-464A-9760-8985A4BBBA06";
paths = (
{
closed = 1;
nodes = (
"158 0 LINE",
"211 299 LINE",
"437 299 LINE",
"456 409 LINE",
"230 409 LINE",
"261 584 LINE",
"571 584 LINE",
"591 700 LINE",
"222 700 LINE",
"213 713 OFFCURVE",
"202 718 OFFCURVE",
"188 718 CURVE SMOOTH",
"159 718 OFFCURVE",
"125 682 OFFCURVE",
"111 654 CURVE SMOOTH",
"96 625 OFFCURVE",
"136 635 OFFCURVE",
"126 576 CURVE SMOOTH",
"24 0 LINE"
);
}
);
width = 544;
},
{
anchors = (
{
name = bottom;
position = "{201, 0}";
},
{
name = top;
position = "{324, 700}";
}
);
layerId = "5A1050C4-4F08-4A6D-BA78-94A136104BF4";
paths = (
{
closed = 1;
nodes = (
"117 0 LINE",
"173 320 LINE",
"400 320 LINE",
"413 392 LINE",
"186 392 LINE",
"227 626 LINE",
"538 626 LINE",
"551 700 LINE",
"205 700 LINE",
"198 710 OFFCURVE",
"187 718 OFFCURVE",
"178 718 CURVE SMOOTH",
"154 718 OFFCURVE",
"130 688 OFFCURVE",
"123 674 CURVE SMOOTH",
"112 653 OFFCURVE",
"146 654 OFFCURVE",
"138 609 CURVE SMOOTH",
"31 0 LINE"
);
}
);
width = 514;
},
{
anchors = (
{
name = bottom;
position = "{203, 0}";
},
{
name = top;
position = "{326, 700}";
}
);
layerId = "DD5BE8D6-EC3D-4275-AA48-09C9275F1F3A";
paths = (
{
closed = 1;
nodes = (
"93 0 LINE",
"152 334 LINE",
"379 334 LINE",
"387 380 LINE",
"160 380 LINE",
"208 654 LINE",
"519 654 LINE",
"527 700 LINE",
"197 700 LINE",
"192 709 OFFCURVE",
"181 718 OFFCURVE",
"176 718 CURVE SMOOTH",
"156 718 OFFCURVE",
"140 696 OFFCURVE",
"135 687 CURVE SMOOTH",
"127 669 OFFCURVE",
"156 666 OFFCURVE",
"150 631 CURVE SMOOTH",
"39 0 LINE"
);
}
);
width = 490;
}
);
note = F;
unicode = 0046;
},
{
glyphname = G;
lastChange = "2018-07-09 13:29:34 +0000";
layers = (
{
anchors = (
{
name = bottom;
position = "{350, 0}";
},
{
name = top;
position = "{350, 700}";
}
);
layerId = "0B1DFD06-3317-40CA-B510-4969A0718C16";
paths = (
{
closed = 1;
nodes = (
"436 -10 OFFCURVE",
"487 7 OFFCURVE",
"558 50 CURVE",
"558 293 LINE SMOOTH",
"558 330 OFFCURVE",
"581 322 OFFCURVE",
"581 340 CURVE SMOOTH",
"581 354 OFFCURVE",
"565 375 OFFCURVE",
"545 375 CURVE SMOOTH",
"536 375 OFFCURVE",
"530 371 OFFCURVE",
"523 362 CURVE",
"331 362 LINE",
"331 316 LINE",
"504 316 LINE",
"504 79 LINE",
"464 51 OFFCURVE",
"423 39 OFFCURVE",
"355 39 CURVE SMOOTH",
"193 39 OFFCURVE",
"111 179 OFFCURVE",
"111 351 CURVE SMOOTH",
"111 518 OFFCURVE",
"199 661 OFFCURVE",
"350 661 CURVE SMOOTH",
"422 661 OFFCURVE",
"471 642 OFFCURVE",
"511 598 CURVE",
"537 643 LINE",
"491 685 OFFCURVE",
"434 710 OFFCURVE",
"350 710 CURVE SMOOTH",
"170 710 OFFCURVE",
"55 561 OFFCURVE",
"55 351 CURVE SMOOTH",
"55 141 OFFCURVE",
"161 -10 OFFCURVE",
"353 -10 CURVE SMOOTH"
);
}
);
width = 636;
},
{
anchors = (
{
name = bottom;
position = "{363, 0}";
},
{
name = top;
position = "{363, 700}";
}
);
background = {
anchors = (
{
name = bottom;
position = "{363, 0}";
},
{
name = top;
position = "{363, 700}";
}
);
paths = (
{
closed = 1;
nodes = (
"206 39 OFFCURVE",
"124 179 OFFCURVE",
"124 351 CURVE SMOOTH",
"124 518 OFFCURVE",
"212 661 OFFCURVE",
"363 661 CURVE SMOOTH",
"435 661 OFFCURVE",
"484 642 OFFCURVE",
"524 598 CURVE",
"550 643 LINE",
"504 685 OFFCURVE",
"447 710 OFFCURVE",
"363 710 CURVE SMOOTH",
"183 710 OFFCURVE",
"68 561 OFFCURVE",
"68 351 CURVE SMOOTH",
"68 141 OFFCURVE",
"174 -10 OFFCURVE",
"366 -10 CURVE SMOOTH",
"449 -10 OFFCURVE",
"500 7 OFFCURVE",
"571 50 CURVE",
"571 293 LINE SMOOTH",
"571 330 OFFCURVE",
"594 322 OFFCURVE",
"594 340 CURVE SMOOTH",
"594 354 OFFCURVE",
"578 375 OFFCURVE",
"558 375 CURVE SMOOTH",
"549 375 OFFCURVE",
"543 371 OFFCURVE",
"536 362 CURVE",
"344 362 LINE",
"344 316 LINE",
"517 316 LINE",
"517 79 LINE",
"477 51 OFFCURVE",
"436 39 OFFCURVE",
"368 39 CURVE SMOOTH"
);
}
);
};
layerId = "39D19F74-97F3-4EB6-8D96-77117D45ABB1";
paths = (
{
closed = 1;
nodes = (
"459 -10 OFFCURVE",
"525 11 OFFCURVE",
"611 66 CURVE",
"611 268 LINE SMOOTH",
"611 327 OFFCURVE",
"649 317 OFFCURVE",
"639 347 CURVE SMOOTH",
"630 374 OFFCURVE",
"603 410 OFFCURVE",
"574 410 CURVE SMOOTH",
"558 410 OFFCURVE",
"547 404 OFFCURVE",
"536 392 CURVE",
"324 392 LINE",
"324 281 LINE",
"477 281 LINE",
"477 123 LINE",
"446 105 OFFCURVE",
"418 99 OFFCURVE",
"368 99 CURVE SMOOTH",
"245 99 OFFCURVE",
"171 193 OFFCURVE",
"171 351 CURVE SMOOTH",
"171 508 OFFCURVE",
"241 601 OFFCURVE",
"368 601 CURVE SMOOTH",
"456 601 OFFCURVE",
"501 573 OFFCURVE",
"545 526 CURVE",
"597 616 LINE",
"549 674 OFFCURVE",
"465 710 OFFCURVE",
"368 710 CURVE SMOOTH",
"156 710 OFFCURVE",
"35 577 OFFCURVE",
"35 351 CURVE SMOOTH",
"35 124 OFFCURVE",
"159 -10 OFFCURVE",
"366 -10 CURVE SMOOTH"
);
}
);
width = 676;
},
{
anchors = (
{
name = bottom;
position = "{353, 0}";
},
{
name = top;
position = "{353, 700}";
}
);
layerId = "62D79BA8-865E-4B23-88DF-F495C1A196AD";
paths = (
{
closed = 1;
nodes = (
"443 -10 OFFCURVE",
"500 9 OFFCURVE",
"577 56 CURVE",
"577 283 LINE SMOOTH",
"577 329 OFFCURVE",
"606 320 OFFCURVE",
"602 343 CURVE SMOOTH",
"599 362 OFFCURVE",
"578 389 OFFCURVE",
"555 389 CURVE SMOOTH",
"543 389 OFFCURVE",
"535 384 OFFCURVE",
"526 374 CURVE",
"326 374 LINE",
"326 302 LINE",
"491 302 LINE",
"491 97 LINE",
"455 73 OFFCURVE",
"419 63 OFFCURVE",
"358 63 CURVE SMOOTH",
"212 63 OFFCURVE",
"133 175 OFFCURVE",
"133 351 CURVE SMOOTH",
"133 527 OFFCURVE",
"214 637 OFFCURVE",
"355 637 CURVE SMOOTH",
"434 637 OFFCURVE",
"481 614 OFFCURVE",
"523 569 CURVE",
"559 632 LINE",
"512 681 OFFCURVE",
"444 710 OFFCURVE",
"355 710 CURVE SMOOTH",
"162 710 OFFCURVE",
"45 567 OFFCURVE",
"45 351 CURVE SMOOTH",
"45 134 OFFCURVE",
"158 -10 OFFCURVE",
"356 -10 CURVE SMOOTH"
);
}
);
width = 647;
},
{
anchors = (
{
name = bottom;
position = "{322, 0}";
},
{
name = top;
position = "{443, 700}";
}
);
background = {
anchors = (
{
name = bottom;
position = "{363, 0}";
},
{
name = top;
position = "{363, 700}";
}
);
paths = (
{
closed = 1;
nodes = (
"206 39 OFFCURVE",
"124 179 OFFCURVE",
"124 351 CURVE SMOOTH",
"124 518 OFFCURVE",
"212 661 OFFCURVE",
"363 661 CURVE SMOOTH",
"435 661 OFFCURVE",
"484 642 OFFCURVE",
"524 598 CURVE",
"550 643 LINE",
"504 685 OFFCURVE",
"447 710 OFFCURVE",
"363 710 CURVE SMOOTH",
"183 710 OFFCURVE",
"68 561 OFFCURVE",
"68 351 CURVE SMOOTH",
"68 141 OFFCURVE",
"174 -10 OFFCURVE",
"366 -10 CURVE SMOOTH",
"449 -10 OFFCURVE",
"500 7 OFFCURVE",
"571 50 CURVE",
"571 293 LINE SMOOTH",
"571 330 OFFCURVE",
"594 322 OFFCURVE",
"594 340 CURVE SMOOTH",
"594 354 OFFCURVE",
"578 375 OFFCURVE",
"558 375 CURVE SMOOTH",
"549 375 OFFCURVE",
"543 371 OFFCURVE",
"536 362 CURVE",
"344 362 LINE",
"344 316 LINE",
"517 316 LINE",
"517 79 LINE",
"477 51 OFFCURVE",
"436 39 OFFCURVE",
"368 39 CURVE SMOOTH"
);
}
);
};
layerId = "C1FA819C-E964-464A-9760-8985A4BBBA06";
paths = (
{
closed = 1;
nodes = (
"415 -10 OFFCURVE",
"486 11 OFFCURVE",
"581 66 CURVE",
"617 268 LINE SMOOTH",
"628 327 OFFCURVE",
"664 317 OFFCURVE",
"659 347 CURVE SMOOTH",
"655 374 OFFCURVE",
"634 410 OFFCURVE",
"605 410 CURVE SMOOTH",
"590 410 OFFCURVE",
"577 404 OFFCURVE",
"564 392 CURVE",
"352 392 LINE",
"332 281 LINE",
"485 281 LINE",
"457 123 LINE",
"423 105 OFFCURVE",
"395 99 OFFCURVE",
"344 99 CURVE SMOOTH",
"242 99 OFFCURVE",
"189 164 OFFCURVE",
"189 278 CURVE SMOOTH",
"189 471 OFFCURVE",
"287 601 OFFCURVE",
"430 601 CURVE SMOOTH",
"517 601 OFFCURVE",
"558 573 OFFCURVE",
"593 526 CURVE",
"661 616 LINE",
"624 674 OFFCURVE",
"545 710 OFFCURVE",
"449 710 CURVE SMOOTH",
"198 710 OFFCURVE",
"51 539 OFFCURVE",
"51 264 CURVE SMOOTH",
"51 105 OFFCURVE",
"146 -10 OFFCURVE",
"323 -10 CURVE SMOOTH"
);
}
);
width = 676;
},
{
anchors = (
{
name = bottom;
position = "{312, 0}";
},
{
name = top;
position = "{435, 700}";
}
);
layerId = "5A1050C4-4F08-4A6D-BA78-94A136104BF4";
paths = (
{
closed = 1;
nodes = (
"401 -10 OFFCURVE",
"459 8 OFFCURVE",
"546 56 CURVE",
"586 283 LINE SMOOTH",
"594 329 OFFCURVE",
"621 319 OFFCURVE",
"621 344 CURVE SMOOTH",
"621 362 OFFCURVE",
"605 389 OFFCURVE",
"582 389 CURVE SMOOTH",
"570 389 OFFCURVE",
"562 384 OFFCURVE",
"551 374 CURVE",
"351 374 LINE",
"338 302 LINE",
"503 302 LINE",
"467 97 LINE",
"427 73 OFFCURVE",
"391 63 OFFCURVE",
"331 63 CURVE SMOOTH",
"208 63 OFFCURVE",
"148 140 OFFCURVE",
"148 269 CURVE SMOOTH",
"148 486 OFFCURVE",
"268 637 OFFCURVE",
"427 637 CURVE SMOOTH",
"502 637 OFFCURVE",
"546 611 OFFCURVE",
"580 569 CURVE",
"627 632 LINE",
"588 682 OFFCURVE",
"519 710 OFFCURVE",
"440 710 CURVE SMOOTH",
"209 710 OFFCURVE",
"59 515 OFFCURVE",
"59 261 CURVE SMOOTH",
"59 95 OFFCURVE",
"159 -10 OFFCURVE",
"316 -10 CURVE SMOOTH"
);
}
);
width = 647;
},
{
anchors = (
{
name = bottom;
position = "{310, 0}";
},
{
name = top;
position = "{433, 700}";
}
);
layerId = "DD5BE8D6-EC3D-4275-AA48-09C9275F1F3A";
paths = (
{
closed = 1;
nodes = (
"394 -10 OFFCURVE",
"449 6 OFFCURVE",
"526 50 CURVE",
"569 293 LINE SMOOTH",
"576 332 OFFCURVE",
"600 322 OFFCURVE",
"600 344 CURVE SMOOTH",
"600 357 OFFCURVE",
"588 375 OFFCURVE",
"570 375 CURVE SMOOTH",
"562 375 OFFCURVE",
"554 371 OFFCURVE",
"546 362 CURVE",
"354 362 LINE",
"346 316 LINE",
"519 316 LINE",
"477 79 LINE",
"434 52 OFFCURVE",
"389 39 OFFCURVE",
"322 39 CURVE SMOOTH",
"188 39 OFFCURVE",
"125 112 OFFCURVE",
"125 266 CURVE SMOOTH",
"125 486 OFFCURVE",
"263 661 OFFCURVE",
"427 661 CURVE SMOOTH",
"498 661 OFFCURVE",
"544 642 OFFCURVE",
"576 598 CURVE",
"610 643 LINE",
"572 685 OFFCURVE",
"518 710 OFFCURVE",
"435 710 CURVE SMOOTH",
"229 710 OFFCURVE",
"68 515 OFFCURVE",
"68 255 CURVE SMOOTH",
"68 97 OFFCURVE",
"150 -10 OFFCURVE",
"311 -10 CURVE SMOOTH"
);
}
);
width = 636;
}
);
leftKerningGroup = C;
note = G;
rightKerningGroup = C;
unicode = 0047;
},
{
glyphname = H;
lastChange = "2018-07-09 13:31:26 +0000";
layers = (
{
anchors = (
{
name = bottom;
position = "{311, 0}";
},
{
name = center;
position = "{311, 350}";
},
{
name = top;
position = "{311, 700}";
},
{
name = topleft;
position = "{20, 700}";
}
);
layerId = "0B1DFD06-3317-40CA-B510-4969A0718C16";
paths = (
{
closed = 1;
nodes = (
"134 0 LINE",
"134 345 LINE",
"487 345 LINE",
"487 0 LINE",
"541 0 LINE",
"541 700 LINE",
"487 700 LINE",
"487 391 LINE",
"134 391 LINE",
"134 700 LINE",
"80 700 LINE",
"80 0 LINE"
);
}
);
width = 621;
},
{
anchors = (
{
name = bottom;
position = "{316, 0}";
},
{
name = center;
position = "{316, 350}";
},
{
name = top;
position = "{316, 700}";
},
{
name = topleft;
position = "{25, 700}";
}
);
layerId = "39D19F74-97F3-4EB6-8D96-77117D45ABB1";
paths = (
{
closed = 1;
nodes = (
"179 0 LINE",
"179 311 LINE",
"452 311 LINE",
"452 0 LINE",
"586 0 LINE",
"586 700 LINE",
"452 700 LINE",
"452 425 LINE",
"179 425 LINE",
"179 700 LINE",
"45 700 LINE",
"45 0 LINE"
);
}
);
width = 631;
},
{
anchors = (
{
name = bottom;
position = "{307, 0}";
},
{
name = center;
position = "{307, 350}";
},
{
name = top;
position = "{307, 700}";
},
{
name = topleft;
position = "{16, 700}";
}
);
layerId = "62D79BA8-865E-4B23-88DF-F495C1A196AD";
paths = (
{
closed = 1;
nodes = (
"146 0 LINE",
"146 331 LINE",
"467 331 LINE",
"467 0 LINE",
"553 0 LINE",
"553 700 LINE",
"467 700 LINE",
"467 405 LINE",
"146 405 LINE",
"146 700 LINE",
"60 700 LINE",
"60 0 LINE"
);
}
);
width = 613;
},
{
anchors = (
{
name = bottom;
position = "{275, 0}";
},
{
name = center;
position = "{337, 350}";
},
{
name = top;
position = "{398, 700}";
},
{
name = topleft;
position = "{107, 700}";
}
);
layerId = "C1FA819C-E964-464A-9760-8985A4BBBA06";
paths = (
{
closed = 1;
nodes = (
"138 0 LINE",
"193 311 LINE",
"466 311 LINE",
"411 0 LINE",
"545 0 LINE",
"668 700 LINE",
"534 700 LINE",
"486 425 LINE",
"213 425 LINE",
"261 700 LINE",
"127 700 LINE",
"4 0 LINE"
);
}
);
width = 631;
},
{
anchors = (
{
name = bottom;
position = "{266, 0}";
},
{
name = center;
position = "{328, 350}";
},
{
name = top;
position = "{389, 700}";
},
{
name = topleft;
position = "{98, 700}";
}
);
layerId = "5A1050C4-4F08-4A6D-BA78-94A136104BF4";
paths = (
{
closed = 1;
nodes = (
"105 0 LINE",
"163 331 LINE",
"484 331 LINE",
"426 0 LINE",
"512 0 LINE",
"635 700 LINE",
"549 700 LINE",
"497 405 LINE",
"176 405 LINE",
"228 700 LINE",
"142 700 LINE",
"19 0 LINE"
);
}
);
width = 613;
},
{
anchors = (
{
name = bottom;
position = "{270, 0}";
},
{
name = center;
position = "{332, 350}";
},
{
name = top;
position = "{393, 700}";
},
{
name = topleft;
position = "{102, 700}";
}
);
layerId = "DD5BE8D6-EC3D-4275-AA48-09C9275F1F3A";
paths = (
{
closed = 1;
nodes = (
"93 0 LINE",
"154 345 LINE",
"507 345 LINE",
"446 0 LINE",
"500 0 LINE",
"623 700 LINE",
"569 700 LINE",
"515 391 LINE",
"162 391 LINE",
"216 700 LINE",
"162 700 LINE",
"39 0 LINE"
);
}
);
width = 621;
}
);
leftKerningGroup = H;
note = H;
rightKerningGroup = H;
unicode = 0048;
},
{
glyphname = Hbar;
lastChange = "2018-07-09 13:29:34 +0000";
layers = (
{
components = (
{
name = H;
transform = "{1, 0, 0, 1, 32, 0}";
}
);
layerId = "0B1DFD06-3317-40CA-B510-4969A0718C16";
paths = (
{
closed = 1;
nodes = (
"651 514 LINE",
"651 560 LINE",
"35 560 LINE",
"35 514 LINE"
);
}
);
width = 686;
},
{
components = (
{
name = H;
transform = "{1, 0, 0, 1, 42, 0}";
}
);
layerId = "39D19F74-97F3-4EB6-8D96-77117D45ABB1";
paths = (
{
closed = 1;
nodes = (
"680 514 LINE",
"680 610 LINE",
"35 610 LINE",
"35 514 LINE"
);
}
);
width = 715;
},
{
components = (
{
alignment = -1;
name = H;
transform = "{1, 0, 0, 1, 36, 0}";
}
);
layerId = "62D79BA8-865E-4B23-88DF-F495C1A196AD";
paths = (
{
closed = 1;
nodes = (
"651 514 LINE",
"651 580 LINE",
"35 580 LINE",
"35 514 LINE"
);
}
);
width = 686;
},
{
components = (
{
name = H;
transform = "{1, 0, 0, 1, 42, 0}";
}
);
layerId = "C1FA819C-E964-464A-9760-8985A4BBBA06";
paths = (
{
closed = 1;
nodes = (
"729 514 LINE",
"746 610 LINE",
"101 610 LINE",
"84 514 LINE"
);
}
);
width = 715;
},
{
components = (
{
alignment = -1;
name = H;
transform = "{1, 0, 0, 1, 49, 0}";
}
);
layerId = "5A1050C4-4F08-4A6D-BA78-94A136104BF4";
paths = (
{
closed = 1;
nodes = (
"700 514 LINE",
"700 580 LINE",
"96 580 LINE",
"96 514 LINE"
);
}
);
width = 686;
},
{
components = (
{
name = H;
transform = "{1, 0, 0, 1, 32, 0}";
}
);
layerId = "DD5BE8D6-EC3D-4275-AA48-09C9275F1F3A";
paths = (
{
closed = 1;
nodes = (
"700 514 LINE",
"700 560 LINE",
"92 560 LINE",
"92 514 LINE"
);
}
);
width = 686;
}
);
leftKerningGroup = H;
note = Hbar;
rightKerningGroup = H;
unicode = 0126;
},
{
glyphname = I;
lastChange = "2018-07-26 17:41:20 +0000";
layers = (
{
anchors = (
{
name = bottom;
position = "{147, 0}";
},
{
name = ogonek;
position = "{145, 10}";
},
{
name = top;
position = "{147, 700}";
},
{
name = topleft;
position = "{60, 700}";
}
);
layerId = "0B1DFD06-3317-40CA-B510-4969A0718C16";
paths = (
{
closed = 1;
nodes = (
"174 0 LINE",
"174 700 LINE",
"120 700 LINE",
"120 0 LINE"
);
}
);
width = 294;
},
{
anchors = (
{
name = bottom;
position = "{152, 0}";
},
{
name = ogonek;
position = "{144, 10}";
},
{
name = top;
position = "{152, 700}";
},
{
name = topleft;
position = "{65, 700}";
}
);
background = {
anchors = (
{
name = bottom;
position = "{152, 0}";
},
{
name = ogonek;
position = "{149, 10}";
},
{
name = top;
position = "{152, 700}";
},
{
name = topleft;
position = "{65, 700}";
}
);
paths = (
{
closed = 1;
nodes = (
"125 700 LINE",
"125 0 LINE",
"179 0 LINE",
"179 700 LINE"
);
}
);
};
layerId = "39D19F74-97F3-4EB6-8D96-77117D45ABB1";
paths = (
{
closed = 1;
nodes = (
"219 0 LINE",
"219 700 LINE",
"85 700 LINE",
"85 0 LINE"
);
}
);
width = 304;
},
{
anchors = (
{
name = bottom;
position = "{143, 0}";
},
{
name = ogonek;
position = "{141, 10}";
},
{
name = top;
position = "{143, 700}";
},
{
name = topleft;
position = "{56, 700}";
}
);
layerId = "62D79BA8-865E-4B23-88DF-F495C1A196AD";
paths = (
{
closed = 1;
nodes = (
"186 0 LINE",
"186 700 LINE",
"100 700 LINE",
"100 0 LINE"
);
}
);
width = 286;
},
{
anchors = (
{
name = bottom;
position = "{110, 0}";
},
{
name = ogonek;
position = "{104, 10}";
},
{
name = top;
position = "{233, 700}";
},
{
name = topleft;
position = "{146, 700}";
}
);
background = {
anchors = (
{
name = bottom;
position = "{151, 0}";
},
{
name = ogonek;
position = "{148, 10}";
},
{
name = top;
position = "{151, 700}";
},
{
name = topleft;
position = "{64, 700}";
}
);
paths = (
{
closed = 1;
nodes = (
"124 700 LINE",
"124 0 LINE",
"178 0 LINE",
"178 700 LINE"
);
}
);
};
layerId = "C1FA819C-E964-464A-9760-8985A4BBBA06";
paths = (
{
closed = 1;
nodes = (
"177 0 LINE",
"300 700 LINE",
"166 700 LINE",
"43 0 LINE"
);
}
);
width = 305;
},
{
anchors = (
{
name = bottom;
position = "{101, 0}";
},
{
name = ogonek;
position = "{101, 10}";
},
{
name = top;
position = "{224, 700}";
},
{
name = topleft;
position = "{137, 700}";
}
);
layerId = "5A1050C4-4F08-4A6D-BA78-94A136104BF4";
paths = (
{
closed = 1;
nodes = (
"144 0 LINE",
"267 700 LINE",
"181 700 LINE",
"58 0 LINE"
);
}
);
width = 287;
},
{
anchors = (
{
name = bottom;
position = "{105, 0}";
},
{
name = ogonek;
position = "{105, 10}";
},
{
name = top;
position = "{228, 700}";
},
{
name = topleft;
position = "{141, 700}";
}
);
layerId = "DD5BE8D6-EC3D-4275-AA48-09C9275F1F3A";
paths = (
{
closed = 1;
nodes = (
"132 0 LINE",
"255 700 LINE",
"201 700 LINE",
"78 0 LINE"
);
}
);
width = 295;
}
);
note = I;
unicode = 0049;
},
{
glyphname = J;
lastChange = "2018-07-09 13:29:34 +0000";
layers = (
{
anchors = (
{
name = bottom;
position = "{220, 0}";
},
{
name = top;
position = "{321, 700}";
}
);
layerId = "0B1DFD06-3317-40CA-B510-4969A0718C16";
paths = (
{
closed = 1;
nodes = (
"276 -10 OFFCURVE",
"347 55 OFFCURVE",
"347 164 CURVE SMOOTH",
"347 700 LINE",
"293 700 LINE",
"293 161 LINE SMOOTH",
"293 81 OFFCURVE",
"248 39 OFFCURVE",
"173 39 CURVE SMOOTH",
"139 39 OFFCURVE",
"92 53 OFFCURVE",
"68 70 CURVE",
"45 25 LINE",
"77 5 OFFCURVE",
"130 -10 OFFCURVE",
"169 -10 CURVE SMOOTH"
);
}
);
width = 427;
},
{
anchors = (
{
name = bottom;
position = "{244, 0}";
},
{
name = top;
position = "{345, 700}";
}
);
background = {
anchors = (
{
name = bottom;
position = "{244, 0}";
},
{
name = top;
position = "{345, 700}";
}
);
paths = (
{
closed = 1;
nodes = (
"317 700 LINE",
"317 161 LINE SMOOTH",
"317 81 OFFCURVE",
"272 39 OFFCURVE",
"197 39 CURVE SMOOTH",
"163 39 OFFCURVE",
"116 53 OFFCURVE",
"92 70 CURVE",
"69 25 LINE",
"101 5 OFFCURVE",
"154 -10 OFFCURVE",
"193 -10 CURVE SMOOTH",
"300 -10 OFFCURVE",
"371 55 OFFCURVE",
"371 164 CURVE SMOOTH",
"371 700 LINE"
);
}
);
};
layerId = "39D19F74-97F3-4EB6-8D96-77117D45ABB1";
paths = (
{
closed = 1;
nodes = (
"333 -10 OFFCURVE",
"411 71 OFFCURVE",
"411 194 CURVE SMOOTH",
"411 700 LINE",
"277 700 LINE",
"277 191 LINE SMOOTH",
"277 128 OFFCURVE",
"252 101 OFFCURVE",
"195 101 CURVE SMOOTH",
"153 101 OFFCURVE",
"119 112 OFFCURVE",
"78 137 CURVE",
"25 46 LINE",
"71 10 OFFCURVE",
"134 -10 OFFCURVE",
"199 -10 CURVE SMOOTH"
);
}
);
width = 451;
},
{
anchors = (
{
name = bottom;
position = "{228, 0}";
},
{
name = top;
position = "{329, 700}";
}
);
layerId = "62D79BA8-865E-4B23-88DF-F495C1A196AD";
paths = (
{
closed = 1;
nodes = (
"297 -10 OFFCURVE",
"371 61 OFFCURVE",
"371 176 CURVE SMOOTH",
"371 700 LINE",
"285 700 LINE",
"285 173 LINE SMOOTH",
"285 100 OFFCURVE",
"248 64 OFFCURVE",
"180 64 CURVE SMOOTH",
"143 64 OFFCURVE",
"101 77 OFFCURVE",
"70 97 CURVE",
"35 33 LINE",
"73 7 OFFCURVE",
"130 -10 OFFCURVE",
"179 -10 CURVE SMOOTH"
);
}
);
width = 431;
},
{
anchors = (
{
name = bottom;
position = "{203, 0}";
},
{
name = top;
position = "{427, 700}";
}
);
background = {
anchors = (
{
name = bottom;
position = "{244, 0}";
},
{
name = top;
position = "{345, 700}";
}
);
paths = (
{
closed = 1;
nodes = (
"317 700 LINE",
"317 161 LINE SMOOTH",
"317 81 OFFCURVE",
"272 39 OFFCURVE",
"197 39 CURVE SMOOTH",
"163 39 OFFCURVE",
"116 53 OFFCURVE",
"92 70 CURVE",
"69 25 LINE",
"101 5 OFFCURVE",
"154 -10 OFFCURVE",
"193 -10 CURVE SMOOTH",
"300 -10 OFFCURVE",
"371 55 OFFCURVE",
"371 164 CURVE SMOOTH",
"371 700 LINE"
);
}
);
};
layerId = "C1FA819C-E964-464A-9760-8985A4BBBA06";
paths = (
{
closed = 1;
nodes = (
"316 -10 OFFCURVE",
"382 71 OFFCURVE",
"404 194 CURVE SMOOTH",
"493 700 LINE",
"359 700 LINE",
"270 191 LINE SMOOTH",
"259 127 OFFCURVE",
"228 101 OFFCURVE",
"172 101 CURVE SMOOTH",
"130 101 OFFCURVE",
"98 112 OFFCURVE",
"61 137 CURVE",
"-8 46 LINE",
"32 10 OFFCURVE",
"90 -10 OFFCURVE",
"156 -10 CURVE SMOOTH"
);
}
);
width = 451;
},
{
anchors = (
{
name = bottom;
position = "{186, 0}";
},
{
name = top;
position = "{411, 700}";
}
);
layerId = "5A1050C4-4F08-4A6D-BA78-94A136104BF4";
paths = (
{
closed = 1;
nodes = (
"253 -10 OFFCURVE",
"340 61 OFFCURVE",
"360 176 CURVE SMOOTH",
"453 700 LINE",
"367 700 LINE",
"274 173 LINE SMOOTH",
"261 100 OFFCURVE",
"217 64 OFFCURVE",
"149 64 CURVE SMOOTH",
"113 64 OFFCURVE",
"73 77 OFFCURVE",
"45 97 CURVE",
"-1 33 LINE",
"32 7 OFFCURVE",
"88 -10 OFFCURVE",
"135 -10 CURVE SMOOTH"
);
}
);
width = 431;
},
{
anchors = (
{
name = bottom;
position = "{179, 0}";
},
{
name = top;
position = "{403, 700}";
}
);
layerId = "DD5BE8D6-EC3D-4275-AA48-09C9275F1F3A";
paths = (
{
closed = 1;
nodes = (
"244 -10 OFFCURVE",
"315 55 OFFCURVE",
"334 164 CURVE SMOOTH",
"428 700 LINE",
"374 700 LINE",
"279 161 LINE SMOOTH",
"265 81 OFFCURVE",
"213 39 OFFCURVE",
"138 39 CURVE SMOOTH",
"105 39 OFFCURVE",
"60 53 OFFCURVE",
"39 70 CURVE",
"8 25 LINE",
"35 6 OFFCURVE",
"85 -10 OFFCURVE",
"126 -10 CURVE SMOOTH"
);
}
);
width = 427;
}
);
leftKerningGroup = J;
note = J;
rightKerningGroup = J;
unicode = 004A;
},
{
glyphname = K;
lastChange = "2018-07-09 13:29:34 +0000";
layers = (
{
anchors = (
{
name = bottom;
position = "{290, 0}";
},
{
name = top;
position = "{290, 700}";
}
);
layerId = "0B1DFD06-3317-40CA-B510-4969A0718C16";
paths = (
{
closed = 1;
nodes = (
"134 0 LINE",
"134 356 LINE",
"453 0 LINE",
"524 0 LINE",
"192 366 LINE",
"495 700 LINE",
"425 700 LINE",
"134 375 LINE",
"134 700 LINE",
"80 700 LINE",
"80 0 LINE"
);
}
);
width = 579;
},
{
anchors = (
{
name = bottom;
position = "{295, 0}";
},
{
name = top;
position = "{295, 700}";
}
);
background = {
anchors = (
{
name = bottom;
position = "{295, 0}";
},
{
name = top;
position = "{295, 700}";
}
);
paths = (
{
closed = 1;
nodes = (
"197 366 LINE",
"500 700 LINE",
"430 700 LINE",
"139 375 LINE",
"139 700 LINE",
"85 700 LINE",
"85 0 LINE",
"139 0 LINE",
"139 356 LINE",
"458 0 LINE",
"529 0 LINE"
);
}
);
};
layerId = "39D19F74-97F3-4EB6-8D96-77117D45ABB1";
paths = (
{
closed = 1;
nodes = (
"179 0 LINE",
"179 274 LINE",
"427 0 LINE",
"591 0 LINE",
"256 366 LINE",
"560 700 LINE",
"397 700 LINE",
"179 457 LINE",
"179 700 LINE",
"45 700 LINE",
"45 0 LINE"
);
}
);
width = 626;
},
{
anchors = (
{
name = bottom;
position = "{286, 0}";
},
{
name = top;
position = "{286, 700}";
}
);
layerId = "62D79BA8-865E-4B23-88DF-F495C1A196AD";
paths = (
{
closed = 1;
nodes = (
"146 0 LINE",
"146 323 LINE",
"437 0 LINE",
"545 0 LINE",
"212 366 LINE",
"515 700 LINE",
"408 700 LINE",
"146 408 LINE",
"146 700 LINE",
"60 700 LINE",
"60 0 LINE"
);
}
);
width = 590;
},
{
anchors = (
{
name = bottom;
position = "{254, 0}";
},
{
name = top;
position = "{377, 700}";
}
);
background = {
anchors = (
{
name = bottom;
position = "{295, 0}";
},
{
name = top;
position = "{295, 700}";
}
);
paths = (
{
closed = 1;
nodes = (
"197 366 LINE",
"500 700 LINE",
"430 700 LINE",
"139 375 LINE",
"139 700 LINE",
"85 700 LINE",
"85 0 LINE",
"139 0 LINE",
"139 356 LINE",
"458 0 LINE",
"529 0 LINE"
);
}
);
};
layerId = "C1FA819C-E964-464A-9760-8985A4BBBA06";
paths = (
{
closed = 1;
nodes = (
"138 0 LINE",
"186 274 LINE",
"386 0 LINE",
"550 0 LINE",
"280 356 LINE",
"642 700 LINE",
"479 700 LINE",
"219 457 LINE",
"261 700 LINE",
"127 700 LINE",
"4 0 LINE"
);
}
);
width = 626;
},
{
anchors = (
{
name = bottom;
position = "{245, 0}";
},
{
name = top;
position = "{368, 700}";
}
);
layerId = "5A1050C4-4F08-4A6D-BA78-94A136104BF4";
paths = (
{
closed = 1;
nodes = (
"105 0 LINE",
"162 323 LINE",
"396 0 LINE",
"504 0 LINE",
"236 366 LINE",
"597 700 LINE",
"490 700 LINE",
"177 408 LINE",
"228 700 LINE",
"142 700 LINE",
"19 0 LINE"
);
}
);
width = 590;
},
{
anchors = (
{
name = bottom;
position = "{249, 0}";
},
{
name = top;
position = "{372, 700}";
}
);
layerId = "DD5BE8D6-EC3D-4275-AA48-09C9275F1F3A";
paths = (
{
closed = 1;
nodes = (
"93 0 LINE",
"156 356 LINE",
"412 0 LINE",
"483 0 LINE",
"216 366 LINE",
"577 700 LINE",
"507 700 LINE",
"159 375 LINE",
"216 700 LINE",
"162 700 LINE",
"39 0 LINE"
);
}
);
width = 579;
}
);
note = K;
rightKerningGroup = K;
unicode = 004B;
},
{
glyphname = L;
lastChange = "2018-07-09 13:29:34 +0000";
layers = (
{
anchors = (
{
name = bottom;
position = "{240, 0}";
},
{
name = center;
position = "{240, 350}";
},
{
name = top;
position = "{111, 700}";
},
{
name = topright;
position = "{463, 700}";
}
);
layerId = "0B1DFD06-3317-40CA-B510-4969A0718C16";
paths = (
{
closed = 1;
nodes = (
"100 -10 OFFCURVE",
"105 -6 OFFCURVE",
"110 0 CURVE",
"438 0 LINE",
"438 46 LINE",
"132 46 LINE",
"132 700 LINE",
"78 700 LINE",
"78 72 LINE SMOOTH",
"78 42 OFFCURVE",
"55 39 OFFCURVE",
"55 21 CURVE SMOOTH",
"55 5 OFFCURVE",
"71 -10 OFFCURVE",
"91 -10 CURVE SMOOTH"
);
}
);
width = 483;
},
{
anchors = (
{
name = bottom;
position = "{270, 0}";
},
{
name = center;
position = "{240, 350}";
},
{
name = top;
position = "{134, 700}";
},
{
name = topright;
position = "{463, 700}";
}
);
background = {
anchors = (
{
name = bottom;
position = "{240, 0}";
},
{
name = center;
position = "{240, 350}";
},
{
name = top;
position = "{111, 700}";
},
{
name = topright;
position = "{463, 700}";
}
);
paths = (
{
closed = 1;
nodes = (
"438 0 LINE",
"438 46 LINE",
"132 46 LINE",
"132 700 LINE",
"78 700 LINE",
"78 72 LINE SMOOTH",
"78 42 OFFCURVE",
"55 39 OFFCURVE",
"55 21 CURVE SMOOTH",
"55 5 OFFCURVE",
"71 -10 OFFCURVE",
"91 -10 CURVE SMOOTH",
"100 -10 OFFCURVE",
"105 -6 OFFCURVE",
"110 0 CURVE"
);
}
);
};
layerId = "39D19F74-97F3-4EB6-8D96-77117D45ABB1";
paths = (
{
closed = 1;
nodes = (
"115 -10 OFFCURVE",
"129 -6 OFFCURVE",
"140 0 CURVE",
"499 0 LINE",
"499 116 LINE",
"199 116 LINE",
"199 700 LINE",
"65 700 LINE",
"65 124 LINE SMOOTH",
"65 65 OFFCURVE",
"27 75 OFFCURVE",
"37 45 CURVE SMOOTH",
"46 18 OFFCURVE",
"70 -10 OFFCURVE",
"99 -10 CURVE SMOOTH"
);
}
);
width = 534;
},
{
anchors = (
{
name = bottom;
position = "{249, 0}";
},
{
name = center;
position = "{237, 350}";
},
{
name = top;
position = "{117, 700}";
},
{
name = topright;
position = "{460, 700}";
}
);
layerId = "62D79BA8-865E-4B23-88DF-F495C1A196AD";
paths = (
{
closed = 1;
nodes = (
"102 -10 OFFCURVE",
"112 -8 OFFCURVE",
"119 0 CURVE",
"459 0 LINE",
"459 74 LINE",
"156 74 LINE",
"156 700 LINE",
"70 700 LINE",
"70 93 LINE SMOOTH",
"70 51 OFFCURVE",
"41 53 OFFCURVE",
"45 31 CURVE SMOOTH",
"48 10 OFFCURVE",
"67 -10 OFFCURVE",
"90 -10 CURVE SMOOTH"
);
}
);
width = 494;
},
{
anchors = (
{
name = bottom;
position = "{228, 0}";
},
{
name = center;
position = "{260, 350}";
},
{
name = top;
position = "{215, 700}";
},
{
name = topright;
position = "{544, 700}";
}
);
background = {
anchors = (
{
name = bottom;
position = "{240, 0}";
},
{
name = center;
position = "{240, 350}";
},
{
name = top;
position = "{111, 700}";
},
{
name = topright;
position = "{463, 700}";
}
);
paths = (
{
closed = 1;
nodes = (
"438 0 LINE",
"438 46 LINE",
"132 46 LINE",
"132 700 LINE",
"78 700 LINE",
"78 72 LINE SMOOTH",
"78 42 OFFCURVE",
"55 39 OFFCURVE",
"55 21 CURVE SMOOTH",
"55 5 OFFCURVE",
"71 -10 OFFCURVE",
"91 -10 CURVE SMOOTH",
"100 -10 OFFCURVE",
"105 -6 OFFCURVE",
"110 0 CURVE"
);
}
);
};
layerId = "C1FA819C-E964-464A-9760-8985A4BBBA06";
paths = (
{
closed = 1;
nodes = (
"73 -18 OFFCURVE",
"85 -12 OFFCURVE",
"98 0 CURVE",
"457 0 LINE",
"478 116 LINE",
"178 116 LINE",
"280 700 LINE",
"146 700 LINE",
"45 124 LINE SMOOTH",
"35 65 OFFCURVE",
"-1 75 OFFCURVE",
"3 45 CURVE SMOOTH",
"7 18 OFFCURVE",
"29 -18 OFFCURVE",
"57 -18 CURVE SMOOTH"
);
}
);
width = 534;
},
{
anchors = (
{
name = bottom;
position = "{208, 0}";
},
{
name = center;
position = "{257, 350}";
},
{
name = top;
position = "{199, 700}";
},
{
name = topright;
position = "{542, 700}";
}
);
layerId = "5A1050C4-4F08-4A6D-BA78-94A136104BF4";
paths = (
{
closed = 1;
nodes = (
"60 -13 OFFCURVE",
"69 -8 OFFCURVE",
"78 0 CURVE",
"418 0 LINE",
"431 74 LINE",
"128 74 LINE",
"238 700 LINE",
"152 700 LINE",
"45 93 LINE SMOOTH",
"37 50 OFFCURVE",
"9 55 OFFCURVE",
"9 30 CURVE SMOOTH",
"9 9 OFFCURVE",
"26 -13 OFFCURVE",
"48 -13 CURVE SMOOTH"
);
}
);
width = 494;
},
{
anchors = (
{
name = bottom;
position = "{199, 0}";
},
{
name = center;
position = "{260, 350}";
},
{
name = top;
position = "{193, 700}";
},
{
name = topright;
position = "{545, 700}";
}
);
layerId = "DD5BE8D6-EC3D-4275-AA48-09C9275F1F3A";
paths = (
{
closed = 1;
nodes = (
"56 -10 OFFCURVE",
"63 -6 OFFCURVE",
"69 0 CURVE",
"397 0 LINE",
"405 46 LINE",
"99 46 LINE",
"214 700 LINE",
"160 700 LINE",
"49 72 LINE SMOOTH",
"43 39 OFFCURVE",
"17 39 OFFCURVE",
"17 17 CURVE SMOOTH",
"17 3 OFFCURVE",
"30 -10 OFFCURVE",
"48 -10 CURVE SMOOTH"
);
}
);
width = 483;
}
);
note = L;
rightKerningGroup = L;
unicode = 004C;
},
{
glyphname = Lslash;
lastChange = "2018-07-26 07:56:05 +0000";
layers = (
{
components = (
{
name = L;
transform = "{1, 0, 0, 1, 50, 0}";
}
);
layerId = "0B1DFD06-3317-40CA-B510-4969A0718C16";
paths = (
{
closed = 1;
nodes = (
"357 412 LINE",
"357 462 LINE",
"45 312 LINE",
"45 262 LINE"
);
}
);
width = 533;
},
{
components = (
{
name = L;
transform = "{1, 0, 0, 1, 40, 0}";
}
);
layerId = "39D19F74-97F3-4EB6-8D96-77117D45ABB1";
paths = (
{
closed = 1;
nodes = (
"387 392 LINE",
"387 502 LINE",
"35 342 LINE",
"35 232 LINE"
);
}
);
width = 574;
},
{
components = (
{
alignment = -1;
name = L;
transform = "{1, 0, 0, 1, 46, 0}";
}
);
layerId = "62D79BA8-865E-4B23-88DF-F495C1A196AD";
paths = (
{
closed = 1;
nodes = (
"368 404 LINE",
"368 478 LINE",
"40 324 LINE",
"40 250 LINE"
);
}
);
width = 540;
},
{
components = (
{
name = L;
transform = "{1, 0, 0, 1, 40, 0}";
}
);
layerId = "C1FA819C-E964-464A-9760-8985A4BBBA06";
paths = (
{
closed = 1;
nodes = (
"415 392 LINE",
"435 502 LINE",
"54 342 LINE",
"35 232 LINE"
);
}
);
width = 574;
},
{
components = (
{
alignment = -1;
name = L;
transform = "{1, 0, 0, 1, 46, 0}";
}
);
layerId = "5A1050C4-4F08-4A6D-BA78-94A136104BF4";
paths = (
{
closed = 1;
nodes = (
"399 404 LINE",
"412 478 LINE",
"56 324 LINE",
"43 250 LINE"
);
}
);
width = 540;
},
{
components = (
{
name = L;
transform = "{1, 0, 0, 1, 50, 0}";
}
);
layerId = "DD5BE8D6-EC3D-4275-AA48-09C9275F1F3A";
paths = (
{
closed = 1;
nodes = (
"388 412 LINE",
"397 462 LINE",
"59 312 LINE",
"50 262 LINE"
);
}
);
width = 533;
}
);
note = Lslash;
rightKerningGroup = L;
rightMetricsKey = L;
unicode = 0141;
},
{
glyphname = M;
lastChange = "2018-07-09 13:29:34 +0000";
layers = (
{
anchors = (
{
name = bottom;
position = "{381, 0}";
},
{
name = top;
position = "{381, 700}";
}
);
layerId = "0B1DFD06-3317-40CA-B510-4969A0718C16";
paths = (
{
closed = 1;
nodes = (
"406 -10 OFFCURVE",
"421 6 OFFCURVE",
"415 26 CURVE SMOOTH",
"412 36 LINE",
"598 599 LINE",
"653 -1 LINE",
"708 -1 LINE",
"641 666 LINE",
"649 678 LINE SMOOTH",
"656 689 OFFCURVE",
"649 718 OFFCURVE",
"619 718 CURVE SMOOTH",
"593 718 OFFCURVE",
"581 700 OFFCURVE",
"573 676 CURVE SMOOTH",
"381 93 LINE",
"190 676 LINE SMOOTH",
"182 700 OFFCURVE",
"170 718 OFFCURVE",
"144 718 CURVE SMOOTH",
"114 718 OFFCURVE",
"107 689 OFFCURVE",
"114 678 CURVE SMOOTH",
"122 666 LINE",
"55 -1 LINE",
"110 -1 LINE",
"165 599 LINE",
"360 7 LINE SMOOTH",
"364 -5 OFFCURVE",
"373 -10 OFFCURVE",
"384 -10 CURVE SMOOTH"
);
}
);
width = 763;
},
{
anchors = (
{
name = bottom;
position = "{399, 0}";
},
{
name = top;
position = "{399, 700}";
}
);
background = {
anchors = (
{
name = bottom;
position = "{399, 0}";
},
{
name = top;
position = "{399, 700}";
}
);
paths = (
{
closed = 1;
nodes = (
"399 93 LINE",
"208 676 LINE SMOOTH",
"200 700 OFFCURVE",
"188 718 OFFCURVE",
"162 718 CURVE SMOOTH",
"132 718 OFFCURVE",
"125 689 OFFCURVE",
"132 678 CURVE SMOOTH",
"140 666 LINE",
"73 -1 LINE",
"128 -1 LINE",
"183 599 LINE",
"378 6 LINE SMOOTH",
"382 -6 OFFCURVE",
"391 -11 OFFCURVE",
"402 -11 CURVE SMOOTH",
"424 -11 OFFCURVE",
"439 5 OFFCURVE",
"433 25 CURVE SMOOTH",
"430 35 LINE",
"616 599 LINE",
"671 -1 LINE",
"726 -1 LINE",
"659 666 LINE",
"667 678 LINE SMOOTH",
"674 689 OFFCURVE",
"667 718 OFFCURVE",
"637 718 CURVE SMOOTH",
"611 718 OFFCURVE",
"599 700 OFFCURVE",
"591 676 CURVE SMOOTH"
);
}
);
};
layerId = "39D19F74-97F3-4EB6-8D96-77117D45ABB1";
paths = (
{
closed = 1;
nodes = (
"448 -10 OFFCURVE",
"487 13 OFFCURVE",
"474 56 CURVE SMOOTH",
"471 66 LINE",
"589 437 LINE",
"629 -1 LINE",
"764 -1 LINE",
"695 631 LINE",
"699 638 LINE SMOOTH",
"715 667 OFFCURVE",
"701 718 OFFCURVE",
"637 718 CURVE SMOOTH",
"580 718 OFFCURVE",
"563 697 OFFCURVE",
"549 655 CURVE SMOOTH",
"399 190 LINE",
"250 655 LINE SMOOTH",
"237 697 OFFCURVE",
"219 718 OFFCURVE",
"162 718 CURVE SMOOTH",
"98 718 OFFCURVE",
"85 668 OFFCURVE",
"100 638 CURVE SMOOTH",
"104 630 LINE",
"35 -1 LINE",
"170 -1 LINE",
"210 436 LINE",
"340 28 LINE SMOOTH",
"348 4 OFFCURVE",
"371 -10 OFFCURVE",
"402 -10 CURVE SMOOTH"
);
}
);
width = 799;
},
{
anchors = (
{
name = bottom;
position = "{386, 0}";
},
{
name = top;
position = "{386, 700}";
}
);
layerId = "62D79BA8-865E-4B23-88DF-F495C1A196AD";
paths = (
{
closed = 1;
nodes = (
"421 -10 OFFCURVE",
"446 9 OFFCURVE",
"437 38 CURVE SMOOTH",
"434 48 LINE",
"592 530 LINE",
"641 -1 LINE",
"728 -1 LINE",
"661 652 LINE",
"667 662 LINE SMOOTH",
"678 680 OFFCURVE",
"668 718 OFFCURVE",
"624 718 CURVE SMOOTH",
"586 718 OFFCURVE",
"572 699 OFFCURVE",
"561 668 CURVE SMOOTH",
"386 135 LINE",
"212 668 LINE SMOOTH",
"202 699 OFFCURVE",
"188 718 OFFCURVE",
"149 718 CURVE SMOOTH",
"106 718 OFFCURVE",
"96 681 OFFCURVE",
"106 662 CURVE SMOOTH",
"113 652 LINE",
"45 -1 LINE",
"132 -1 LINE",
"181 530 LINE",
"350 15 LINE SMOOTH",
"355 -1 OFFCURVE",
"370 -10 OFFCURVE",
"389 -10 CURVE SMOOTH"
);
}
);
width = 773;
},
{
anchors = (
{
name = bottom;
position = "{357, 0}";
},
{
name = top;
position = "{481, 700}";
}
);
background = {
anchors = (
{
name = bottom;
position = "{399, 0}";
},
{
name = top;
position = "{399, 700}";
}
);
paths = (
{
closed = 1;
nodes = (
"399 93 LINE",
"208 676 LINE SMOOTH",
"200 700 OFFCURVE",
"188 718 OFFCURVE",
"162 718 CURVE SMOOTH",
"132 718 OFFCURVE",
"125 689 OFFCURVE",
"132 678 CURVE SMOOTH",
"140 666 LINE",
"73 -1 LINE",
"128 -1 LINE",
"183 599 LINE",
"378 6 LINE SMOOTH",
"382 -6 OFFCURVE",
"391 -11 OFFCURVE",
"402 -11 CURVE SMOOTH",
"424 -11 OFFCURVE",
"439 5 OFFCURVE",
"433 25 CURVE SMOOTH",
"430 35 LINE",
"616 599 LINE",
"671 -1 LINE",
"726 -1 LINE",
"659 666 LINE",
"667 678 LINE SMOOTH",
"674 689 OFFCURVE",
"667 718 OFFCURVE",
"637 718 CURVE SMOOTH",
"611 718 OFFCURVE",
"599 700 OFFCURVE",
"591 676 CURVE SMOOTH"
);
}
);
};
layerId = "C1FA819C-E964-464A-9760-8985A4BBBA06";
paths = (
{
closed = 1;
nodes = (
"404 -11 OFFCURVE",
"444 12 OFFCURVE",
"444 55 CURVE SMOOTH",
"444 65 LINE",
"622 427 LINE",
"587 -1 LINE",
"722 -1 LINE",
"764 631 LINE",
"769 638 LINE SMOOTH",
"790 668 OFFCURVE",
"784 718 OFFCURVE",
"720 718 CURVE SMOOTH",
"663 718 OFFCURVE",
"642 697 OFFCURVE",
"621 655 CURVE SMOOTH",
"390 199 LINE",
"322 655 LINE SMOOTH",
"316 698 OFFCURVE",
"301 718 OFFCURVE",
"247 718 CURVE SMOOTH",
"185 718 OFFCURVE",
"163 671 OFFCURVE",
"171 638 CURVE SMOOTH",
"173 630 LINE",
"-7 -1 LINE",
"128 -1 LINE",
"243 426 LINE",
"303 27 LINE SMOOTH",
"307 3 OFFCURVE",
"327 -11 OFFCURVE",
"358 -11 CURVE SMOOTH"
);
}
);
width = 799;
},
{
anchors = (
{
name = bottom;
position = "{344, 0}";
},
{
name = top;
position = "{468, 700}";
}
);
layerId = "5A1050C4-4F08-4A6D-BA78-94A136104BF4";
paths = (
{
closed = 1;
nodes = (
"379 -11 OFFCURVE",
"406 8 OFFCURVE",
"403 37 CURVE SMOOTH",
"402 47 LINE",
"646 530 LINE",
"601 -1 LINE",
"686 -1 LINE",
"734 652 LINE",
"742 662 LINE SMOOTH",
"756 680 OFFCURVE",
"753 718 OFFCURVE",
"709 718 CURVE SMOOTH",
"671 718 OFFCURVE",
"653 699 OFFCURVE",
"637 668 CURVE SMOOTH",
"368 135 LINE",
"288 668 LINE SMOOTH",
"283 699 OFFCURVE",
"273 718 OFFCURVE",
"234 718 CURVE SMOOTH",
"191 718 OFFCURVE",
"174 681 OFFCURVE",
"182 662 CURVE SMOOTH",
"186 652 LINE",
"3 -1 LINE",
"92 -1 LINE",
"235 530 LINE",
"313 14 LINE SMOOTH",
"315 -2 OFFCURVE",
"328 -11 OFFCURVE",
"347 -11 CURVE SMOOTH"
);
}
);
width = 773;
},
{
anchors = (
{
name = bottom;
position = "{340, 0}";
},
{
name = top;
position = "{464, 700}";
}
);
layerId = "DD5BE8D6-EC3D-4275-AA48-09C9275F1F3A";
paths = (
{
closed = 1;
nodes = (
"362 -11 OFFCURVE",
"379 5 OFFCURVE",
"377 25 CURVE SMOOTH",
"376 35 LINE",
"662 599 LINE",
"611 -1 LINE",
"666 -1 LINE",
"717 666 LINE",
"727 678 LINE SMOOTH",
"736 689 OFFCURVE",
"734 718 OFFCURVE",
"704 718 CURVE SMOOTH",
"678 718 OFFCURVE",
"662 700 OFFCURVE",
"650 676 CURVE SMOOTH",
"356 93 LINE",
"267 676 LINE SMOOTH",
"263 700 OFFCURVE",
"255 718 OFFCURVE",
"229 718 CURVE SMOOTH",
"199 718 OFFCURVE",
"187 689 OFFCURVE",
"192 678 CURVE SMOOTH",
"198 666 LINE",
"13 -1 LINE",
"68 -1 LINE",
"229 599 LINE",
"319 6 LINE SMOOTH",
"321 -6 OFFCURVE",
"329 -11 OFFCURVE",
"340 -11 CURVE SMOOTH"
);
}
);
width = 763;
}
);
leftKerningGroup = M;
note = M;
rightKerningGroup = M;
unicode = 004D;
},
{
glyphname = N;
lastChange = "2018-07-09 13:29:34 +0000";
layers = (
{
anchors = (
{
name = bottom;
position = "{308, 0}";
},
{
name = top;
position = "{308, 700}";
}
);
layerId = "0B1DFD06-3317-40CA-B510-4969A0718C16";
paths = (
{
closed = 1;
nodes = (
"131 0 LINE",
"131 579 LINE",
"489 0 LINE",
"537 0 LINE",
"537 700 LINE",
"483 700 LINE",
"483 104 LINE",
"115 701 LINE SMOOTH",
"109 710 OFFCURVE",
"102 718 OFFCURVE",
"90 718 CURVE SMOOTH",
"71 718 OFFCURVE",
"58 699 OFFCURVE",
"55 687 CURVE SMOOTH",
"51 670 OFFCURVE",
"77 670 OFFCURVE",
"77 634 CURVE SMOOTH",
"77 0 LINE"
);
}
);
width = 617;
},
{
anchors = (
{
name = bottom;
position = "{329, 0}";
},
{
name = top;
position = "{329, 700}";
}
);
background = {
anchors = (
{
name = bottom;
position = "{329, 0}";
},
{
name = top;
position = "{329, 700}";
}
);
paths = (
{
closed = 1;
nodes = (
"98 0 LINE",
"152 0 LINE",
"152 579 LINE",
"510 0 LINE",
"510 0 OFFCURVE",
"558 0 OFFCURVE",
"558 0 CURVE",
"558 700 LINE",
"504 700 LINE",
"504 104 LINE",
"136 701 LINE SMOOTH",
"130 710 OFFCURVE",
"123 718 OFFCURVE",
"111 718 CURVE SMOOTH",
"92 718 OFFCURVE",
"79 699 OFFCURVE",
"76 687 CURVE SMOOTH",
"72 670 OFFCURVE",
"98 670 OFFCURVE",
"98 634 CURVE SMOOTH"
);
}
);
};
layerId = "39D19F74-97F3-4EB6-8D96-77117D45ABB1";
paths = (
{
closed = 1;
nodes = (
"192 0 LINE",
"192 443 LINE",
"470 0 LINE",
"583 0 LINE",
"583 700 LINE",
"449 700 LINE",
"449 240 LINE",
"169 688 LINE SMOOTH",
"157 707 OFFCURVE",
"137 718 OFFCURVE",
"111 718 CURVE SMOOTH",
"78 718 OFFCURVE",
"48 700 OFFCURVE",
"37 664 CURVE SMOOTH",
"26 627 OFFCURVE",
"58 632 OFFCURVE",
"58 597 CURVE SMOOTH",
"58 0 LINE"
);
}
);
width = 628;
},
{
anchors = (
{
name = bottom;
position = "{314, 0}";
},
{
name = top;
position = "{314, 700}";
}
);
layerId = "62D79BA8-865E-4B23-88DF-F495C1A196AD";
paths = (
{
closed = 1;
nodes = (
"153 0 LINE",
"153 525 LINE",
"479 0 LINE",
"553 0 LINE",
"553 700 LINE",
"467 700 LINE",
"467 158 LINE",
"135 696 LINE SMOOTH",
"126 709 OFFCURVE",
"114 718 OFFCURVE",
"96 718 CURVE SMOOTH",
"72 718 OFFCURVE",
"52 699 OFFCURVE",
"46 678 CURVE SMOOTH",
"39 653 OFFCURVE",
"67 655 OFFCURVE",
"67 619 CURVE SMOOTH",
"67 0 LINE"
);
}
);
width = 613;
},
{
anchors = (
{
name = bottom;
position = "{288, 0}";
},
{
name = top;
position = "{411, 700}";
}
);
background = {
anchors = (
{
name = bottom;
position = "{329, 0}";
},
{
name = top;
position = "{329, 700}";
}
);
paths = (
{
closed = 1;
nodes = (
"98 0 LINE",
"152 0 LINE",
"152 579 LINE",
"510 0 LINE",
"510 0 OFFCURVE",
"558 0 OFFCURVE",
"558 0 CURVE",
"558 700 LINE",
"504 700 LINE",
"504 104 LINE",
"136 701 LINE SMOOTH",
"130 710 OFFCURVE",
"123 718 OFFCURVE",
"111 718 CURVE SMOOTH",
"92 718 OFFCURVE",
"79 699 OFFCURVE",
"76 687 CURVE SMOOTH",
"72 670 OFFCURVE",
"98 670 OFFCURVE",
"98 634 CURVE SMOOTH"
);
}
);
};
layerId = "C1FA819C-E964-464A-9760-8985A4BBBA06";
paths = (
{
closed = 1;
nodes = (
"151 0 LINE",
"229 443 LINE",
"429 0 LINE",
"542 0 LINE",
"665 700 LINE",
"531 700 LINE",
"450 240 LINE",
"249 688 LINE SMOOTH",
"240 708 OFFCURVE",
"221 718 OFFCURVE",
"197 718 CURVE SMOOTH",
"164 718 OFFCURVE",
"130 700 OFFCURVE",
"113 664 CURVE SMOOTH",
"96 628 OFFCURVE",
"128 632 OFFCURVE",
"122 597 CURVE SMOOTH",
"17 0 LINE"
);
}
);
width = 628;
},
{
anchors = (
{
name = bottom;
position = "{273, 0}";
},
{
name = top;
position = "{396, 700}";
}
);
layerId = "5A1050C4-4F08-4A6D-BA78-94A136104BF4";
paths = (
{
closed = 1;
nodes = (
"112 0 LINE",
"205 525 LINE",
"438 0 LINE",
"512 0 LINE",
"635 700 LINE",
"549 700 LINE",
"454 158 LINE",
"216 696 LINE SMOOTH",
"210 709 OFFCURVE",
"200 718 OFFCURVE",
"182 718 CURVE SMOOTH",
"158 718 OFFCURVE",
"134 699 OFFCURVE",
"125 679 CURVE SMOOTH",
"113 653 OFFCURVE",
"141 655 OFFCURVE",
"135 619 CURVE SMOOTH",
"26 0 LINE"
);
}
);
width = 613;
},
{
anchors = (
{
name = bottom;
position = "{267, 0}";
},
{
name = top;
position = "{390, 700}";
}
);
layerId = "DD5BE8D6-EC3D-4275-AA48-09C9275F1F3A";
paths = (
{
closed = 1;
nodes = (
"90 0 LINE",
"192 579 LINE",
"448 0 LINE",
"496 0 LINE",
"619 700 LINE",
"565 700 LINE",
"460 104 LINE",
"197 701 LINE SMOOTH",
"193 710 OFFCURVE",
"187 718 OFFCURVE",
"176 718 CURVE SMOOTH",
"157 718 OFFCURVE",
"140 699 OFFCURVE",
"135 687 CURVE SMOOTH",
"128 671 OFFCURVE",
"154 670 OFFCURVE",
"148 634 CURVE SMOOTH",
"36 0 LINE"
);
}
);
width = 617;
}
);
leftKerningGroup = N;
note = N;
rightKerningGroup = N;
unicode = 004E;
},
{
glyphname = Nacute;
lastChange = "2018-07-26 07:56:13 +0000";
layers = (
{
background = {
paths = (
{
closed = 1;
nodes = (
"247 0 LINE",
"247 26 LINE",
"217 26 LINE SMOOTH",
"179 26 OFFCURVE",
"159 37 OFFCURVE",
"159 62 CURVE SMOOTH",
"159 642 LINE",
"587 0 LINE",
"645 0 LINE",
"645 637 LINE SMOOTH",
"645 662 OFFCURVE",
"665 673 OFFCURVE",
"703 673 CURVE SMOOTH",
"733 673 LINE",
"733 700 LINE",
"508 700 LINE",
"508 673 LINE",
"537 673 LINE SMOOTH",
"576 673 OFFCURVE",
"595 662 OFFCURVE",
"595 637 CURVE SMOOTH",
"595 126 LINE",
"217 700 LINE",
"22 700 LINE",
"22 673 LINE",
"51 673 LINE SMOOTH",
"90 673 OFFCURVE",
"109 662 OFFCURVE",
"109 637 CURVE SMOOTH",
"109 62 LINE SMOOTH",
"109 37 OFFCURVE",
"90 26 OFFCURVE",
"51 26 CURVE SMOOTH",
"22 26 LINE",
"22 0 LINE"
);
},
{
closed = 1;
nodes = (
"458 865 LINE SMOOTH",
"480 877 OFFCURVE",
"492 890 OFFCURVE",
"492 907 CURVE SMOOTH",
"492 922 OFFCURVE",
"480 937 OFFCURVE",
"458 937 CURVE SMOOTH",
"437 937 OFFCURVE",
"422 921 OFFCURVE",
"414 914 CURVE SMOOTH",
"299 807 LINE",
"316 782 LINE"
);
}
);
};
components = (
{
name = N;
},
{
name = acutecomb;
transform = "{1, 0, 0, 1, 339, 230}";
}
);
layerId = "0B1DFD06-3317-40CA-B510-4969A0718C16";
width = 617;
},
{
background = {
paths = (
{
closed = 1;
nodes = (
"247 0 LINE",
"247 26 LINE",
"217 26 LINE SMOOTH",
"179 26 OFFCURVE",
"159 37 OFFCURVE",
"159 62 CURVE SMOOTH",
"159 642 LINE",
"587 0 LINE",
"645 0 LINE",
"645 637 LINE SMOOTH",
"645 662 OFFCURVE",
"665 673 OFFCURVE",
"703 673 CURVE SMOOTH",
"733 673 LINE",
"733 700 LINE",
"508 700 LINE",
"508 673 LINE",
"537 673 LINE SMOOTH",
"576 673 OFFCURVE",
"595 662 OFFCURVE",
"595 637 CURVE SMOOTH",
"595 126 LINE",
"217 700 LINE",
"22 700 LINE",
"22 673 LINE",
"51 673 LINE SMOOTH",
"90 673 OFFCURVE",
"109 662 OFFCURVE",
"109 637 CURVE SMOOTH",
"109 62 LINE SMOOTH",
"109 37 OFFCURVE",
"90 26 OFFCURVE",
"51 26 CURVE SMOOTH",
"22 26 LINE",
"22 0 LINE"
);
},
{
closed = 1;
nodes = (
"458 865 LINE SMOOTH",
"480 877 OFFCURVE",
"492 890 OFFCURVE",
"492 907 CURVE SMOOTH",
"492 922 OFFCURVE",
"480 937 OFFCURVE",
"458 937 CURVE SMOOTH",
"437 937 OFFCURVE",
"422 921 OFFCURVE",
"414 914 CURVE SMOOTH",
"299 807 LINE",
"316 782 LINE"
);
}
);
};
components = (
{
name = N;
},
{
name = acutecomb;
transform = "{1, 0, 0, 1, 360, 230}";
}
);
layerId = "39D19F74-97F3-4EB6-8D96-77117D45ABB1";
width = 628;
},
{
components = (
{
name = N;
},
{
name = acutecomb;
transform = "{1, 0, 0, 1, 345, 230}";
}
);
layerId = "62D79BA8-865E-4B23-88DF-F495C1A196AD";
width = 613;
},
{
background = {
paths = (
{
closed = 1;
nodes = (
"247 0 LINE",
"247 26 LINE",
"217 26 LINE SMOOTH",
"179 26 OFFCURVE",
"159 37 OFFCURVE",
"159 62 CURVE SMOOTH",
"159 642 LINE",
"587 0 LINE",
"645 0 LINE",
"645 637 LINE SMOOTH",
"645 662 OFFCURVE",
"665 673 OFFCURVE",
"703 673 CURVE SMOOTH",
"733 673 LINE",
"733 700 LINE",
"508 700 LINE",
"508 673 LINE",
"537 673 LINE SMOOTH",
"576 673 OFFCURVE",
"595 662 OFFCURVE",
"595 637 CURVE SMOOTH",
"595 126 LINE",
"217 700 LINE",
"22 700 LINE",
"22 673 LINE",
"51 673 LINE SMOOTH",
"90 673 OFFCURVE",
"109 662 OFFCURVE",
"109 637 CURVE SMOOTH",
"109 62 LINE SMOOTH",
"109 37 OFFCURVE",
"90 26 OFFCURVE",
"51 26 CURVE SMOOTH",
"22 26 LINE",
"22 0 LINE"
);
},
{
closed = 1;
nodes = (
"458 865 LINE SMOOTH",
"480 877 OFFCURVE",
"492 890 OFFCURVE",
"492 907 CURVE SMOOTH",
"492 922 OFFCURVE",
"480 937 OFFCURVE",
"458 937 CURVE SMOOTH",
"437 937 OFFCURVE",
"422 921 OFFCURVE",
"414 914 CURVE SMOOTH",
"299 807 LINE",
"316 782 LINE"
);
}
);
};
components = (
{
name = N;
},
{
name = acutecomb;
transform = "{1, 0, 0, 1, 402, 230}";
}
);
layerId = "C1FA819C-E964-464A-9760-8985A4BBBA06";
width = 628;
},
{
components = (
{
name = N;
},
{
name = acutecomb;
transform = "{1, 0, 0, 1, 387, 230}";
}
);
layerId = "5A1050C4-4F08-4A6D-BA78-94A136104BF4";
width = 613;
},
{
background = {
paths = (
{
closed = 1;
nodes = (
"247 0 LINE",
"247 26 LINE",
"217 26 LINE SMOOTH",
"179 26 OFFCURVE",
"159 37 OFFCURVE",
"159 62 CURVE SMOOTH",
"159 642 LINE",
"587 0 LINE",
"645 0 LINE",
"645 637 LINE SMOOTH",
"645 662 OFFCURVE",
"665 673 OFFCURVE",
"703 673 CURVE SMOOTH",
"733 673 LINE",
"733 700 LINE",
"508 700 LINE",
"508 673 LINE",
"537 673 LINE SMOOTH",
"576 673 OFFCURVE",
"595 662 OFFCURVE",
"595 637 CURVE SMOOTH",
"595 126 LINE",
"217 700 LINE",
"22 700 LINE",
"22 673 LINE",
"51 673 LINE SMOOTH",
"90 673 OFFCURVE",
"109 662 OFFCURVE",
"109 637 CURVE SMOOTH",
"109 62 LINE SMOOTH",
"109 37 OFFCURVE",
"90 26 OFFCURVE",
"51 26 CURVE SMOOTH",
"22 26 LINE",
"22 0 LINE"
);
},
{
closed = 1;
nodes = (
"458 865 LINE SMOOTH",
"480 877 OFFCURVE",
"492 890 OFFCURVE",
"492 907 CURVE SMOOTH",
"492 922 OFFCURVE",
"480 937 OFFCURVE",
"458 937 CURVE SMOOTH",
"437 937 OFFCURVE",
"422 921 OFFCURVE",
"414 914 CURVE SMOOTH",
"299 807 LINE",
"316 782 LINE"
);
}
);
};
components = (
{
name = N;
},
{
name = acutecomb;
transform = "{1, 0, 0, 1, 381, 230}";
}
);
layerId = "DD5BE8D6-EC3D-4275-AA48-09C9275F1F3A";
width = 617;
}
);
leftKerningGroup = N;
note = Nacute;
rightKerningGroup = N;
unicode = 0143;
},
